<?xml version="1.0" encoding="UTF-8" standalone="no"?>
<svg
   width="670.7"
   height="503.84"
   fill="none"
   stroke-linecap="square"
   stroke-miterlimit="10"
   version="1.1"
   viewBox="0 0 670.7 503.84"
   id="svg37033"
   sodipodi:docname="status_reporter_db_nodes.svg"
   inkscape:version="1.2.2 (b0a8486541, 2022-12-01)"
   xmlns:inkscape="http://www.inkscape.org/namespaces/inkscape"
   xmlns:sodipodi="http://sodipodi.sourceforge.net/DTD/sodipodi-0.dtd"
   xmlns="http://www.w3.org/2000/svg"
   xmlns:svg="http://www.w3.org/2000/svg">
  <sodipodi:namedview
     id="namedview37035"
     pagecolor="#ffffff"
     bordercolor="#000000"
     borderopacity="0.25"
     inkscape:showpageshadow="2"
     inkscape:pageopacity="0.0"
     inkscape:pagecheckerboard="0"
     inkscape:deskcolor="#d1d1d1"
     showgrid="false"
     inkscape:zoom="1.4802329"
     inkscape:cx="263.13427"
     inkscape:cy="242.5294"
     inkscape:window-width="1920"
     inkscape:window-height="1062"
     inkscape:window-x="0"
     inkscape:window-y="18"
     inkscape:window-maximized="1"
     inkscape:current-layer="svg37033" />
  <defs
     id="defs36887">
    <clipPath
       id="clipPath14344">
      <path
         d="m0 0h2560v1440h-2560z"
         id="path36692" />
    </clipPath>
    <clipPath
       id="clipPath14350">
      <path
         d="m0 0h2560v1440h-2560z"
         id="path36695" />
    </clipPath>
    <clipPath
       id="clipPath14356">
      <path
         d="m0 0h2560v1440h-2560z"
         id="path36698" />
    </clipPath>
    <clipPath
       id="clipPath14362">
      <path
         d="m0 0h2560v1440h-2560z"
         id="path36701" />
    </clipPath>
    <clipPath
       id="clipPath14368">
      <path
         d="m0 0h2560v1440h-2560z"
         id="path36704" />
    </clipPath>
    <clipPath
       id="clipPath14374">
      <path
         d="m0 0h2560v1440h-2560z"
         id="path36707" />
    </clipPath>
    <clipPath
       id="clipPath14380">
      <path
         d="m0 0h2560v1440h-2560z"
         id="path36710" />
    </clipPath>
    <clipPath
       id="clipPath14386">
      <path
         d="m0 0h2560v1440h-2560z"
         id="path36713" />
    </clipPath>
    <clipPath
       id="clipPath14392">
      <path
         d="m0 0h2560v1440h-2560z"
         id="path36716" />
    </clipPath>
    <clipPath
       id="clipPath14398">
      <path
         d="m0 0h2560v1440h-2560z"
         id="path36719" />
    </clipPath>
    <clipPath
       id="clipPath14404">
      <path
         d="m0 0h2560v1440h-2560z"
         id="path36722" />
    </clipPath>
    <clipPath
       id="clipPath14410">
      <path
         d="m0 0h2560v1440h-2560z"
         id="path36725" />
    </clipPath>
    <clipPath
       id="clipPath14416">
      <path
         d="m0 0h2560v1440h-2560z"
         id="path36728" />
    </clipPath>
    <clipPath
       id="clipPath14422">
      <path
         d="m0 0h2560v1440h-2560z"
         id="path36731" />
    </clipPath>
    <clipPath
       id="clipPath14428">
      <path
         d="m0 0h2560v1440h-2560z"
         id="path36734" />
    </clipPath>
    <clipPath
       id="clipPath14434">
      <path
         d="m0 0h2560v1440h-2560z"
         id="path36737" />
    </clipPath>
    <clipPath
       id="clipPath14440">
      <path
         d="m0 0h2560v1440h-2560z"
         id="path36740" />
    </clipPath>
    <clipPath
       id="clipPath14446">
      <path
         d="m0 0h2560v1440h-2560z"
         id="path36743" />
    </clipPath>
    <clipPath
       id="clipPath14452">
      <path
         d="m0 0h2560v1440h-2560z"
         id="path36746" />
    </clipPath>
    <clipPath
       id="clipPath14458">
      <path
         d="m0 0h2560v1440h-2560z"
         id="path36749" />
    </clipPath>
    <clipPath
       id="clipPath14464">
      <path
         d="m0 0h2560v1440h-2560z"
         id="path36752" />
    </clipPath>
    <clipPath
       id="clipPath14470">
      <path
         d="m0 0h2560v1440h-2560z"
         id="path36755" />
    </clipPath>
    <clipPath
       id="clipPath14476">
      <path
         d="m0 0h2560v1440h-2560z"
         id="path36758" />
    </clipPath>
    <clipPath
       id="clipPath14482">
      <path
         d="m0 0h2560v1440h-2560z"
         id="path36761" />
    </clipPath>
    <clipPath
       id="clipPath14488">
      <path
         d="m0 0h2560v1440h-2560z"
         id="path36764" />
    </clipPath>
    <clipPath
       id="clipPath14494">
      <path
         d="m0 0h2560v1440h-2560z"
         id="path36767" />
    </clipPath>
    <clipPath
       id="clipPath14500">
      <path
         d="m0 0h2560v1440h-2560z"
         id="path36770" />
    </clipPath>
    <clipPath
       id="clipPath14506">
      <path
         d="m0 0h2560v1440h-2560z"
         id="path36773" />
    </clipPath>
    <clipPath
       id="clipPath14512">
      <path
         d="m0 0h2560v1440h-2560z"
         id="path36776" />
    </clipPath>
    <clipPath
       id="clipPath14518">
      <path
         d="m0 0h2560v1440h-2560z"
         id="path36779" />
    </clipPath>
    <clipPath
       id="clipPath14524">
      <path
         d="m0 0h2560v1440h-2560z"
         id="path36782" />
    </clipPath>
    <clipPath
       id="clipPath14530">
      <path
         d="m0 0h2560v1440h-2560z"
         id="path36785" />
    </clipPath>
    <clipPath
       id="clipPath14536">
      <path
         d="m0 0h2560v1440h-2560z"
         id="path36788" />
    </clipPath>
    <clipPath
       id="clipPath14542">
      <path
         d="m0 0h2560v1440h-2560z"
         id="path36791" />
    </clipPath>
    <clipPath
       id="clipPath14548">
      <path
         d="m0 0h2560v1440h-2560z"
         id="path36794" />
    </clipPath>
    <clipPath
       id="clipPath14554">
      <path
         d="m0 0h2560v1440h-2560z"
         id="path36797" />
    </clipPath>
    <clipPath
       id="clipPath14560">
      <path
         d="m0 0h2560v1440h-2560z"
         id="path36800" />
    </clipPath>
    <clipPath
       id="clipPath14566">
      <path
         d="m0 0h2560v1440h-2560z"
         id="path36803" />
    </clipPath>
    <clipPath
       id="clipPath14572">
      <path
         d="m0 0h2560v1440h-2560z"
         id="path36806" />
    </clipPath>
    <clipPath
       id="clipPath14578">
      <path
         d="m0 0h2560v1440h-2560z"
         id="path36809" />
    </clipPath>
    <clipPath
       id="clipPath14584">
      <path
         d="m0 0h2560v1440h-2560z"
         id="path36812" />
    </clipPath>
    <clipPath
       id="clipPath14590">
      <path
         d="m0 0h2560v1440h-2560z"
         id="path36815" />
    </clipPath>
    <clipPath
       id="clipPath14596">
      <path
         d="m0 0h2560v1440h-2560z"
         id="path36818" />
    </clipPath>
    <clipPath
       id="clipPath14602">
      <path
         d="m0 0h2560v1440h-2560z"
         id="path36821" />
    </clipPath>
    <clipPath
       id="clipPath14608">
      <path
         d="m0 0h2560v1440h-2560z"
         id="path36824" />
    </clipPath>
    <clipPath
       id="clipPath14614">
      <path
         d="m0 0h2560v1440h-2560z"
         id="path36827" />
    </clipPath>
    <clipPath
       id="clipPath14620">
      <path
         d="m0 0h2560v1440h-2560z"
         id="path36830" />
    </clipPath>
    <clipPath
       id="clipPath14626">
      <path
         d="m0 0h2560v1440h-2560z"
         id="path36833" />
    </clipPath>
    <clipPath
       id="clipPath14632">
      <path
         d="m0 0h2560v1440h-2560z"
         id="path36836" />
    </clipPath>
    <clipPath
       id="clipPath14638">
      <path
         d="m0 0h2560v1440h-2560z"
         id="path36839" />
    </clipPath>
    <clipPath
       id="clipPath14644">
      <path
         d="m0 0h2560v1440h-2560z"
         id="path36842" />
    </clipPath>
    <clipPath
       id="clipPath14650">
      <path
         d="m0 0h2560v1440h-2560z"
         id="path36845" />
    </clipPath>
    <clipPath
       id="clipPath14656">
      <path
         d="m0 0h2560v1440h-2560z"
         id="path36848" />
    </clipPath>
    <clipPath
       id="clipPath14662">
      <path
         d="m0 0h2560v1440h-2560z"
         id="path36851" />
    </clipPath>
    <clipPath
       id="clipPath14668">
      <path
         d="m0 0h2560v1440h-2560z"
         id="path36854" />
    </clipPath>
    <clipPath
       id="clipPath14674">
      <path
         d="m0 0h2560v1440h-2560z"
         id="path36857" />
    </clipPath>
    <clipPath
       id="clipPath14680">
      <path
         d="m0 0h2560v1440h-2560z"
         id="path36860" />
    </clipPath>
    <clipPath
       id="clipPath14686">
      <path
         d="m0 0h2560v1440h-2560z"
         id="path36863" />
    </clipPath>
    <clipPath
       id="clipPath14692">
      <path
         d="m0 0h2560v1440h-2560z"
         id="path36866" />
    </clipPath>
    <clipPath
       id="clipPath14698">
      <path
         d="m0 0h2560v1440h-2560z"
         id="path36869" />
    </clipPath>
    <clipPath
       id="clipPath14704">
      <path
         d="m0 0h2560v1440h-2560z"
         id="path36872" />
    </clipPath>
    <clipPath
       id="clipPath14734">
      <path
         d="m0 0h2560v1440h-2560z"
         id="path36875" />
    </clipPath>
    <clipPath
       id="clipPath14740">
      <path
         d="m0 0h2560v1440h-2560z"
         id="path36878" />
    </clipPath>
    <clipPath
       id="clipPath14746">
      <path
         d="m0 0h2560v1440h-2560z"
         id="path36881" />
    </clipPath>
    <clipPath
       id="clipPath14752">
      <path
         d="m0 0h2560v1440h-2560z"
         id="path36884" />
    </clipPath>
  </defs>
  <g
     id="g45475">
    <g
       transform="matrix(0.5,0,0,0.5,-480.56,-105.64)"
       fill-rule="evenodd"
       id="g36923">
      <path
         d="m 1087.8,415.67 125.23,-95.666 125.23,95.666 -47.833,154.79 h -154.79 z"
         clip-path="url(#clipPath14752)"
         fill="#ffffff"
         id="path36889" />
      <path
         d="m 1087.8,415.67 125.23,-95.666 125.23,95.666 -47.833,154.79 h -154.79 z"
         clip-path="url(#clipPath14746)"
         stroke="#ffc000"
         stroke-linecap="butt"
         stroke-linejoin="round"
         stroke-width="4"
         id="path36891" />
      <path
         d="m 1358.9,415.67 125.23,-95.666 125.23,95.666 -47.833,154.79 h -154.79 z"
         clip-path="url(#clipPath14740)"
         fill="#ffffff"
         id="path36893" />
      <path
         d="m 1358.9,415.67 125.23,-95.666 125.23,95.666 -47.833,154.79 h -154.79 z"
         clip-path="url(#clipPath14734)"
         stroke="#ffc000"
         stroke-linecap="butt"
         stroke-linejoin="round"
         stroke-width="4"
         id="path36895" />
      <path
         d="m 2030.1,264.59 c 0,17.29 56.067,31.307 125.23,31.307 69.163,0 125.23,-14.017 125.23,-31.307 v 274.55 c 0,17.29 -56.067,31.307 -125.23,31.307 -69.163,0 -125.23,-14.017 -125.23,-31.307 z"
         clip-path="url(#clipPath14704)"
         fill="#ffffff"
         id="path36897" />
      <path
         d="m 2030.1,264.59 c 0,-17.29 56.067,-31.307 125.23,-31.307 69.163,0 125.23,14.017 125.23,31.307 0,17.29 -56.067,31.307 -125.23,31.307 -69.163,0 -125.23,-14.017 -125.23,-31.307 z"
         clip-path="url(#clipPath14698)"
         fill="#ffffff"
         id="path36899" />
      <path
         d="m 2280.5,264.59 c 0,17.29 -56.067,31.307 -125.23,31.307 -69.163,0 -125.23,-14.017 -125.23,-31.307 0,-17.29 56.067,-31.307 125.23,-31.307 69.163,0 125.23,14.017 125.23,31.307 v 274.55 c 0,17.29 -56.067,31.307 -125.23,31.307 -69.163,0 -125.23,-14.017 -125.23,-31.307 V 264.59"
         clip-path="url(#clipPath14692)"
         fill="#000000"
         fill-opacity="0"
         id="path36901" />
      <path
         d="m 2280.5,264.59 c 0,17.29 -56.067,31.307 -125.23,31.307 -69.163,0 -125.23,-14.017 -125.23,-31.307 0,-17.29 56.067,-31.307 125.23,-31.307 69.163,0 125.23,14.017 125.23,31.307 v 274.55 c 0,17.29 -56.067,31.307 -125.23,31.307 -69.163,0 -125.23,-14.017 -125.23,-31.307 V 264.59"
         clip-path="url(#clipPath14686)"
         stroke="#ffc000"
         stroke-linecap="butt"
         stroke-linejoin="round"
         stroke-width="4"
         id="path36903" />
      <path
         d="m 1087.8,755.38 27.89,-111.56 h 492.02 l -27.89,111.56 z"
         clip-path="url(#clipPath14680)"
         fill="#ffffff"
         id="path36905" />
      <path
         d="m 1087.8,755.38 27.89,-111.56 h 492.02 l -27.89,111.56 z"
         clip-path="url(#clipPath14674)"
         stroke="#2e79f3"
         stroke-linecap="butt"
         stroke-linejoin="round"
         stroke-width="4"
         id="path36907" />
      <path
         d="m 1213,570.47 v 73.354"
         clip-path="url(#clipPath14668)"
         fill="#000000"
         fill-opacity="0"
         id="path36909" />
      <path
         d="m 1213,570.47 v 49.354"
         clip-path="url(#clipPath14662)"
         stroke="#595959"
         stroke-linecap="butt"
         stroke-linejoin="round"
         stroke-width="4"
         id="path36911" />
      <path
         d="m 1206.4,619.82 6.6069,18.152 6.607,-18.152 z"
         clip-path="url(#clipPath14656)"
         fill="#595959"
         stroke="#595959"
         stroke-linecap="butt"
         stroke-width="4"
         id="path36913" />
      <path
         d="m 1484.2,570.07 v 73.732"
         clip-path="url(#clipPath14650)"
         fill="#000000"
         fill-opacity="0"
         id="path36915" />
      <path
         d="m 1484.2,570.07 v 49.732"
         clip-path="url(#clipPath14644)"
         stroke="#595959"
         stroke-linecap="butt"
         stroke-linejoin="round"
         stroke-width="4"
         id="path36917" />
      <path
         d="m 1477.6,619.81 6.6069,18.152 6.607,-18.152 z"
         clip-path="url(#clipPath14638)"
         fill="#595959"
         stroke="#595959"
         stroke-linecap="butt"
         stroke-width="4"
         id="path36919" />
      <path
         d="m 1122.8,344.3 h 180.41 V 546.16 H 1122.8 Z"
         clip-path="url(#clipPath14632)"
         fill="#000000"
         fill-opacity="0"
         id="path36921" />
    </g>
    <path
       transform="matrix(0.5,0,0,0.5,-480.56,-105.64)"
       d="m 1149.6,439.51 q 2.2969,0 3.5,1 1.2031,0.98437 1.6406,2.6406 0.4532,1.6406 0.4532,3.6562 v 8.1875 q 0,0.82813 -0.5469,1.3906 -0.5469,0.56247 -1.375,0.5625 -0.8281,3e-5 -1.375,-0.5625 -0.5469,-0.56253 -0.5469,-1.3906 v -8.1875 q 0,-1.0625 -0.2656,-1.9062 -0.25,-0.84375 -0.9219,-1.3594 -0.6719,-0.51563 -1.9062,-0.51563 -1.2188,0 -2.0938,0.51563 -0.8594,0.51562 -1.2969,1.3594 -0.4218,0.84375 -0.4218,1.9062 v 8.1875 q 0,0.82813 -0.5469,1.3906 -0.5469,0.56247 -1.375,0.5625 -0.8281,3e-5 -1.375,-0.5625 -0.5469,-0.56253 -0.5469,-1.3906 v -19.781 q 0,-0.82812 0.5469,-1.3906 0.5469,-0.56248 1.375,-0.5625 0.8281,-2e-5 1.375,0.5625 0.5469,0.56252 0.5469,1.3906 v 7.9375 l -0.4844,-0.0937 q 0.2969,-0.54687 0.7969,-1.1719 0.5156,-0.625 1.25,-1.1562 0.7343,-0.54688 1.625,-0.875 0.9062,-0.34375 1.9687,-0.34375 z m 23.768,0 q 0.8281,0 1.375,0.54687 0.5469,0.53125 0.5469,1.4062 v 13.531 q 0,0.82813 -0.5469,1.3906 -0.5469,0.56247 -1.375,0.5625 -0.8281,3e-5 -1.375,-0.5625 -0.5469,-0.56253 -0.5469,-1.3906 v -1.5625 l 0.7032,0.28125 q 0,0.42188 -0.4532,1.0156 -0.4375,0.59375 -1.2031,1.1719 -0.7656,0.5625 -1.8125,0.96875 -1.0312,0.39063 -2.25,0.39063 -2.2187,0 -4.0156,-1.125 -1.7813,-1.1406 -2.8281,-3.1406 -1.0313,-2 -1.0313,-4.5938 0,-2.625 1.0313,-4.625 1.0468,-2 2.7968,-3.125 1.7657,-1.1406 3.9219,-1.1406 1.375,0 2.5156,0.42187 1.1563,0.40625 2,1.0469 0.8594,0.64062 1.3125,1.2969 0.4688,0.65625 0.4688,1.1094 l -1.1563,0.40625 v -2.3281 q 0,-0.82812 0.5469,-1.3906 0.5469,-0.56248 1.375,-0.5625 z m -6.4687,14.234 q 1.4218,0 2.4687,-0.70312 1.0625,-0.70313 1.6563,-1.9219 0.5937,-1.2188 0.5937,-2.7188 0,-1.5312 -0.5937,-2.75 -0.5938,-1.2188 -1.6563,-1.9219 -1.0469,-0.70313 -2.4687,-0.70313 -1.375,0 -2.4375,0.70313 -1.0469,0.70312 -1.6407,1.9219 -0.5937,1.2188 -0.5937,2.75 0,1.5 0.5937,2.7188 0.5938,1.2188 1.6407,1.9219 1.0625,0.70312 2.4375,0.70312 z m 14.471,3.2031 q -0.8281,0 -1.375,-0.5625 -0.5469,-0.5625 -0.5469,-1.3906 v -13.219 q 0,-0.82812 0.5469,-1.3906 0.5469,-0.56248 1.375,-0.5625 0.8281,-2e-5 1.375,0.5625 0.5469,0.56252 0.5469,1.3906 v 3.0156 l -0.2188,-2.1406 q 0.3438,-0.78125 0.9063,-1.3594 0.5625,-0.59375 1.2656,-1 0.7031,-0.40625 1.5,-0.59375 0.7969,-0.1875 1.5937,-0.1875 0.9688,0 1.625,0.54687 0.6563,0.53125 0.6563,1.2812 0,1.0469 -0.5469,1.5156 -0.5469,0.4687 -1.1875,0.46875 -0.6094,0 -1.1094,-0.21875 -0.4843,-0.23438 -1.125,-0.23438 -0.5781,0 -1.1718,0.28125 -0.5938,0.26563 -1.0938,0.84375 -0.4844,0.5625 -0.7969,1.4219 -0.2968,0.84375 -0.2968,2 v 7.5781 q 0,0.82813 -0.5469,1.3906 -0.5469,0.56247 -1.375,0.5625 z m 25.278,-23.688 q 0.8282,0 1.375,0.54687 0.5469,0.54688 0.5469,1.4062 v 19.781 q 0,0.82813 -0.5469,1.3906 -0.5468,0.5625 -1.375,0.5625 -0.8281,0 -1.375,-0.5625 -0.5468,-0.5625 -0.5468,-1.3906 v -1.5625 l 0.7031,0.28125 q 0,0.42188 -0.4531,1.0156 -0.4375,0.59375 -1.2032,1.1719 -0.7656,0.5625 -1.8125,0.96875 -1.0312,0.39063 -2.25,0.39063 -2.2187,0 -4.0156,-1.125 -1.7812,-1.1406 -2.8281,-3.1406 -1.0313,-2 -1.0313,-4.5938 0,-2.625 1.0313,-4.625 1.0469,-2 2.7969,-3.125 1.7656,-1.1406 3.9218,-1.1406 1.375,0 2.5157,0.42187 1.1562,0.40625 2,1.0469 0.8593,0.64062 1.3125,1.2969 0.4687,0.65625 0.4687,1.1094 l -1.1562,0.40625 v -8.5781 q 0,-0.82812 0.5468,-1.3906 0.5469,-0.5625 1.375,-0.5625 z m -6.4687,20.484 q 1.4219,0 2.4687,-0.70312 1.0625,-0.70313 1.6563,-1.9219 0.5937,-1.2188 0.5937,-2.7188 0,-1.5312 -0.5937,-2.75 -0.5938,-1.2188 -1.6563,-1.9219 -1.0468,-0.70313 -2.4687,-0.70313 -1.375,0 -2.4375,0.70313 -1.0469,0.70312 -1.6406,1.9219 -0.5938,1.2188 -0.5938,2.75 0,1.5 0.5938,2.7188 0.5937,1.2188 1.6406,1.9219 1.0625,0.70312 2.4375,0.70312 z m 32.268,-13.922 q 0.7344,0 1.2656,0.5625 0.5469,0.5625 0.5469,1.4219 0,0.23438 -0.031,0.40625 -0.031,0.17188 -0.094,0.32813 l -4.8906,13.188 q -0.2188,0.64062 -0.7969,0.98437 -0.5781,0.32813 -1.2187,0.23438 -1.0938,-0.0625 -1.6407,-1.2188 l -3.1562,-9.125 0.8281,0.0469 -2.9844,9.0781 q -0.5312,1.1562 -1.625,1.2188 -0.6093,0.0937 -1.2031,-0.23438 -0.5937,-0.34375 -0.8125,-0.98437 l -4.8906,-13.188 q -0.1406,-0.34375 -0.1406,-0.73438 0,-0.76562 0.5156,-1.375 0.5156,-0.60937 1.4062,-0.60937 0.6094,0 1.0938,0.29687 0.4844,0.28125 0.6719,0.92188 l 3.875,10.5 -0.7969,-0.0625 2.9062,-7.9062 q 0.5157,-1.1875 1.7657,-1.1875 0.7031,0 1.0625,0.3125 0.375,0.29687 0.5937,0.875 l 2.9063,7.9062 -0.9532,0.125 3.9375,-10.562 q 0.375,-1.2188 1.8594,-1.2188 z m 19.001,-0.3125 q 0.8281,0 1.375,0.54687 0.5469,0.53125 0.5469,1.4062 v 13.531 q 0,0.82813 -0.5469,1.3906 -0.5469,0.56247 -1.375,0.5625 -0.8281,3e-5 -1.375,-0.5625 -0.5469,-0.56253 -0.5469,-1.3906 v -1.5625 l 0.7031,0.28125 q 0,0.42188 -0.4531,1.0156 -0.4375,0.59375 -1.2031,1.1719 -0.7656,0.5625 -1.8125,0.96875 -1.0313,0.39063 -2.25,0.39063 -2.2188,0 -4.0156,-1.125 -1.7813,-1.1406 -2.8282,-3.1406 -1.0312,-2 -1.0312,-4.5938 0,-2.625 1.0312,-4.625 1.0469,-2 2.7969,-3.125 1.7656,-1.1406 3.9219,-1.1406 1.375,0 2.5156,0.42187 1.1563,0.40625 2,1.0469 0.8594,0.64062 1.3125,1.2969 0.4688,0.65625 0.4688,1.1094 l -1.1563,0.40625 v -2.3281 q 0,-0.82812 0.5469,-1.3906 0.5469,-0.56248 1.375,-0.5625 z m -6.4688,14.234 q 1.4219,0 2.4688,-0.70312 1.0625,-0.70313 1.6562,-1.9219 0.5938,-1.2188 0.5938,-2.7188 0,-1.5312 -0.5938,-2.75 -0.5937,-1.2188 -1.6562,-1.9219 -1.0469,-0.70313 -2.4688,-0.70313 -1.375,0 -2.4375,0.70313 -1.0468,0.70312 -1.6406,1.9219 -0.5937,1.2188 -0.5937,2.75 0,1.5 0.5937,2.7188 0.5938,1.2188 1.6406,1.9219 1.0625,0.70312 2.4375,0.70312 z m 14.471,3.2031 q -0.8281,0 -1.375,-0.5625 -0.5469,-0.5625 -0.5469,-1.3906 v -13.219 q 0,-0.82812 0.5469,-1.3906 0.5469,-0.56248 1.375,-0.5625 0.8281,-2e-5 1.375,0.5625 0.5469,0.56252 0.5469,1.3906 v 3.0156 l -0.2188,-2.1406 q 0.3438,-0.78125 0.9063,-1.3594 0.5625,-0.59375 1.2656,-1 0.7031,-0.40625 1.5,-0.59375 0.7969,-0.1875 1.5937,-0.1875 0.9688,0 1.625,0.54687 0.6563,0.53125 0.6563,1.2812 0,1.0469 -0.5469,1.5156 -0.5469,0.4687 -1.1875,0.46875 -0.6094,0 -1.1094,-0.21875 -0.4843,-0.23438 -1.125,-0.23438 -0.5781,0 -1.1718,0.28125 -0.5938,0.26563 -1.0938,0.84375 -0.4844,0.5625 -0.7969,1.4219 -0.2968,0.84375 -0.2968,2 v 7.5781 q 0,0.82813 -0.5469,1.3906 -0.5469,0.56247 -1.375,0.5625 z m 19.325,0.3125 q -2.7187,0 -4.7187,-1.125 -2,-1.1406 -3.0782,-3.0938 -1.0625,-1.9531 -1.0625,-4.4062 0,-2.8906 1.1563,-4.9219 1.1719,-2.0312 3.0625,-3.1094 1.8906,-1.0938 4,-1.0938 1.6406,0 3.0937,0.67187 1.4532,0.67188 2.5625,1.8438 1.125,1.1562 1.7813,2.7031 0.6562,1.5312 0.6562,3.2656 -0.031,0.76563 -0.6093,1.25 -0.5625,0.46875 -1.3438,0.46875 h -12.219 l -0.9532,-3.2031 h 11.734 l -0.7031,0.64062 v -0.85937 q -0.062,-0.92188 -0.6563,-1.6562 -0.5937,-0.75 -1.4687,-1.1719 -0.875,-0.4375 -1.875,-0.4375 -0.9531,0 -1.7969,0.26563 -0.8281,0.25 -1.4375,0.85937 -0.6094,0.60938 -0.9687,1.6406 -0.3438,1.0156 -0.3438,2.5781 0,1.7344 0.7188,2.9375 0.7343,1.1875 1.8593,1.8125 1.1407,0.625 2.4219,0.625 1.1875,0 1.8906,-0.1875 0.7032,-0.1875 1.125,-0.45312 0.4375,-0.28125 0.7969,-0.46875 0.5781,-0.29688 1.0781,-0.29688 0.7032,0 1.1719,0.48438 0.4688,0.48437 0.4688,1.1094 0,0.875 -0.9063,1.5781 -0.8281,0.70312 -2.3281,1.2344 -1.5,0.51563 -3.1094,0.51563 z"
       clip-path="url(#clipPath14626)"
       fill="#595959"
       id="path36925" />
    <path
       transform="matrix(0.5,0,0,0.5,-480.56,-105.64)"
       d="m 1212.2,643.82 h 271.15 V 755.38 H 1212.2 Z"
       clip-path="url(#clipPath14620)"
       fill="#000000"
       fill-opacity="0"
       fill-rule="evenodd"
       id="path36927" />
    <path
       transform="matrix(0.5,0,0,0.5,-480.56,-105.64)"
       d="m 1241.6,693.88 q 2.3594,0 3.5938,1 1.2343,0.98437 1.6875,2.6406 0.4687,1.6406 0.4687,3.6562 v 8.1875 q 0,0.82813 -0.5469,1.3906 -0.5312,0.5625 -1.3593,0.5625 -0.8438,0 -1.3907,-0.5625 -0.5312,-0.5625 -0.5312,-1.3906 v -8.1875 q 0,-1.0625 -0.2813,-1.9062 -0.2656,-0.84375 -0.9687,-1.3594 -0.7031,-0.51563 -2.0156,-0.51563 -1.2813,0 -2.1719,0.51563 -0.875,0.51562 -1.3438,1.3594 -0.4531,0.84375 -0.4531,1.9062 v 8.1875 q 0,0.82813 -0.5469,1.3906 -0.5468,0.5625 -1.375,0.5625 -0.8281,0 -1.375,-0.5625 -0.5468,-0.5625 -0.5468,-1.3906 v -13.219 q 0,-0.82812 0.5468,-1.3906 0.5469,-0.5625 1.375,-0.5625 0.8282,0 1.375,0.5625 0.5469,0.5625 0.5469,1.3906 v 1.375 l -0.4844,-0.0937 q 0.2969,-0.54687 0.8282,-1.1719 0.5468,-0.625 1.2812,-1.1562 0.7344,-0.54688 1.6563,-0.875 0.9375,-0.34375 2.0312,-0.34375 z m 26.525,8.8906 q 0,2.625 -1.1719,4.625 -1.1563,2 -3.125,3.125 -1.9688,1.1094 -4.4063,1.1094 -2.4375,0 -4.4062,-1.1094 -1.9688,-1.125 -3.1406,-3.125 -1.1563,-2 -1.1563,-4.625 0,-2.625 1.1563,-4.625 1.1718,-2 3.1406,-3.125 1.9687,-1.1406 4.4062,-1.1406 2.4375,0 4.4063,1.1406 1.9687,1.125 3.125,3.125 1.1719,2 1.1719,4.625 z m -3.8438,0 q 0,-1.625 -0.6562,-2.8281 -0.6563,-1.2031 -1.7657,-1.875 -1.0937,-0.67188 -2.4375,-0.67188 -1.3437,0 -2.4531,0.67188 -1.0937,0.67187 -1.75,1.875 -0.6562,1.2031 -0.6562,2.8281 0,1.6094 0.6562,2.8125 0.6563,1.1875 1.75,1.8594 1.1094,0.67187 2.4531,0.67187 1.3438,0 2.4375,-0.67187 1.1094,-0.67188 1.7657,-1.8594 0.6562,-1.2031 0.6562,-2.8125 z m 21.218,-15.141 q 0.8282,0 1.375,0.54687 0.5469,0.54688 0.5469,1.4062 v 19.781 q 0,0.82813 -0.5469,1.3906 -0.5468,0.5625 -1.375,0.5625 -0.8281,0 -1.375,-0.5625 -0.5468,-0.5625 -0.5468,-1.3906 v -1.5625 l 0.7031,0.28125 q 0,0.42188 -0.4531,1.0156 -0.4375,0.59375 -1.2032,1.1719 -0.7656,0.5625 -1.8125,0.96875 -1.0312,0.39063 -2.25,0.39063 -2.2187,0 -4.0156,-1.125 -1.7812,-1.1406 -2.8281,-3.1406 -1.0313,-2 -1.0313,-4.5938 0,-2.625 1.0313,-4.625 1.0469,-2 2.7969,-3.125 1.7656,-1.1406 3.9218,-1.1406 1.375,0 2.5157,0.42187 1.1562,0.40625 2,1.0469 0.8593,0.64062 1.3125,1.2969 0.4687,0.65625 0.4687,1.1094 l -1.1562,0.40625 v -8.5781 q 0,-0.82812 0.5468,-1.3906 0.5469,-0.5625 1.375,-0.5625 z m -6.4687,20.484 q 1.4219,0 2.4687,-0.70312 1.0625,-0.70313 1.6563,-1.9219 0.5937,-1.2188 0.5937,-2.7188 0,-1.5312 -0.5937,-2.75 -0.5938,-1.2188 -1.6563,-1.9219 -1.0468,-0.70313 -2.4687,-0.70313 -1.375,0 -2.4375,0.70313 -1.0469,0.70312 -1.6406,1.9219 -0.5938,1.2188 -0.5938,2.75 0,1.5 0.5938,2.7188 0.5937,1.2188 1.6406,1.9219 1.0625,0.70312 2.4375,0.70312 z m 20.612,3.5156 q -2.7188,0 -4.7188,-1.125 -2,-1.1406 -3.0781,-3.0938 -1.0625,-1.9531 -1.0625,-4.4062 0,-2.8906 1.1563,-4.9219 1.1718,-2.0312 3.0625,-3.1094 1.8906,-1.0938 4,-1.0938 1.6406,0 3.0937,0.67187 1.4531,0.67188 2.5625,1.8438 1.125,1.1562 1.7813,2.7031 0.6562,1.5312 0.6562,3.2656 -0.031,0.76563 -0.6094,1.25 -0.5625,0.46875 -1.3437,0.46875 h -12.219 l -0.9531,-3.2031 h 11.734 l -0.7031,0.64062 v -0.85937 q -0.062,-0.92188 -0.6563,-1.6562 -0.5937,-0.75 -1.4687,-1.1719 -0.875,-0.4375 -1.875,-0.4375 -0.9532,0 -1.7969,0.26563 -0.8281,0.25 -1.4375,0.85937 -0.6094,0.60938 -0.9688,1.6406 -0.3437,1.0156 -0.3437,2.5781 0,1.7344 0.7187,2.9375 0.7344,1.1875 1.8594,1.8125 1.1406,0.625 2.4219,0.625 1.1875,0 1.8906,-0.1875 0.7031,-0.1875 1.125,-0.45312 0.4375,-0.28125 0.7969,-0.46875 0.5781,-0.29688 1.0781,-0.29688 0.7031,0 1.1719,0.48438 0.4687,0.48437 0.4687,1.1094 0,0.875 -0.9062,1.5781 -0.8281,0.70312 -2.3281,1.2344 -1.5,0.51563 -3.1094,0.51563 z m 11.88,4.8125 q -0.6719,0 -1.1094,-0.4375 -0.4375,-0.4375 -0.4375,-1.0781 0,-0.64062 0.4375,-1.0781 0.4375,-0.42188 1.1094,-0.42188 h 16.25 q 0.6719,0 1.0937,0.42188 0.4375,0.4375 0.4375,1.1094 0,0.64063 -0.4375,1.0625 -0.4218,0.42188 -1.0937,0.42188 z m 29.528,-4.8125 q -2.7188,0 -4.7188,-1.125 -2,-1.1406 -3.0781,-3.0938 -1.0625,-1.9531 -1.0625,-4.4062 0,-2.8906 1.1562,-4.9219 1.1719,-2.0312 3.0625,-3.1094 1.8907,-1.0938 4,-1.0938 1.6407,0 3.0938,0.67187 1.4531,0.67188 2.5625,1.8438 1.125,1.1562 1.7812,2.7031 0.6563,1.5312 0.6563,3.2656 -0.031,0.76563 -0.6094,1.25 -0.5625,0.46875 -1.3437,0.46875 h -12.219 l -0.9531,-3.2031 h 11.734 l -0.7032,0.64062 v -0.85937 q -0.062,-0.92188 -0.6562,-1.6562 -0.5938,-0.75 -1.4688,-1.1719 -0.875,-0.4375 -1.875,-0.4375 -0.9531,0 -1.7968,0.26563 -0.8282,0.25 -1.4375,0.85937 -0.6094,0.60938 -0.9688,1.6406 -0.3437,1.0156 -0.3437,2.5781 0,1.7344 0.7187,2.9375 0.7344,1.1875 1.8594,1.8125 1.1406,0.625 2.4219,0.625 1.1875,0 1.8906,-0.1875 0.7031,-0.1875 1.125,-0.45312 0.4375,-0.28125 0.7969,-0.46875 0.5781,-0.29688 1.0781,-0.29688 0.7031,0 1.1719,0.48438 0.4687,0.48437 0.4687,1.1094 0,0.875 -0.9062,1.5781 -0.8282,0.70312 -2.3282,1.2344 -1.5,0.51563 -3.1093,0.51563 z m 11.177,-17.438 q 0.9219,0 1.5625,0.8125 l 10.688,13.266 q 0.4219,0.51563 0.4219,1.1562 0,0.79688 -0.6094,1.375 -0.6093,0.57813 -1.3437,0.57813 -0.9375,0 -1.5781,-0.82813 l -10.688,-13.281 q -0.4063,-0.51562 -0.4063,-1.1562 0,-0.82812 0.5781,-1.375 0.5938,-0.54687 1.375,-0.54687 z m 0.031,17.156 q -0.6406,0 -1.2656,-0.48438 -0.625,-0.5 -0.625,-1.2031 0,-0.64063 0.4843,-1.2188 l 4.8907,-5.9844 1.9218,3.2031 -3.875,4.8906 q -0.6093,0.79688 -1.5312,0.79688 z m 10.656,-17.156 q 0.7657,0 1.2813,0.53125 0.5312,0.53125 0.5312,1.2031 0,0.3125 -0.094,0.64063 -0.094,0.3125 -0.3438,0.60937 l -4.8437,5.8906 -2.0156,-2.7969 3.9375,-5.2031 q 0.6406,-0.875 1.5468,-0.875 z m 13.396,-0.3125 q 2.25,0 4.0157,1.1406 1.7812,1.125 2.8125,3.1094 1.0468,1.9844 1.0468,4.6094 0,2.625 -1.0468,4.625 -1.0313,2 -2.7813,3.1406 -1.7344,1.125 -3.9062,1.125 -1.2813,0 -2.4063,-0.40625 -1.125,-0.42188 -1.9687,-1.0625 -0.8438,-0.64063 -1.3125,-1.2969 -0.4688,-0.65625 -0.4688,-1.0938 l 1,-0.42187 v 8.4219 q 0,0.82813 -0.5469,1.3906 -0.5468,0.5625 -1.375,0.5625 -0.8281,0 -1.375,-0.54688 -0.5468,-0.54687 -0.5468,-1.4062 v -19.625 q 0,-0.82812 0.5468,-1.3906 0.5469,-0.5625 1.375,-0.5625 0.8282,0 1.375,0.5625 0.5469,0.5625 0.5469,1.3906 v 1.5781 l -0.5469,-0.29688 q 0,-0.40625 0.4375,-1 0.4532,-0.59375 1.2188,-1.1875 0.7812,-0.59375 1.7812,-0.96875 1.0157,-0.39062 2.125,-0.39062 z m -0.4687,3.5156 q -1.4063,0 -2.4688,0.70313 -1.0625,0.70312 -1.6562,1.9062 -0.5781,1.2031 -0.5781,2.7344 0,1.5 0.5781,2.7344 0.5937,1.2344 1.6562,1.9375 1.0625,0.70312 2.4688,0.70312 1.4062,0 2.4375,-0.70312 1.0469,-0.70313 1.6406,-1.9375 0.5938,-1.2344 0.5938,-2.7344 0,-1.5312 -0.5938,-2.7344 -0.5937,-1.2031 -1.6406,-1.9062 -1.0313,-0.70313 -2.4375,-0.70313 z m 28.315,5.375 q 0,2.625 -1.1719,4.625 -1.1562,2 -3.125,3.125 -1.9687,1.1094 -4.4062,1.1094 -2.4375,0 -4.4063,-1.1094 -1.9687,-1.125 -3.1406,-3.125 -1.1563,-2 -1.1563,-4.625 0,-2.625 1.1563,-4.625 1.1719,-2 3.1406,-3.125 1.9688,-1.1406 4.4063,-1.1406 2.4375,0 4.4062,1.1406 1.9688,1.125 3.125,3.125 1.1719,2 1.1719,4.625 z m -3.8438,0 q 0,-1.625 -0.6562,-2.8281 -0.6563,-1.2031 -1.7656,-1.875 -1.0938,-0.67188 -2.4375,-0.67188 -1.3438,0 -2.4532,0.67188 -1.0937,0.67187 -1.75,1.875 -0.6562,1.2031 -0.6562,2.8281 0,1.6094 0.6562,2.8125 0.6563,1.1875 1.75,1.8594 1.1094,0.67187 2.4532,0.67187 1.3437,0 2.4375,-0.67187 1.1093,-0.67188 1.7656,-1.8594 0.6562,-1.2031 0.6562,-2.8125 z m 9.1243,8.5469 q -0.8281,0 -1.375,-0.5625 -0.5469,-0.5625 -0.5469,-1.3906 v -13.219 q 0,-0.82812 0.5469,-1.3906 0.5469,-0.56248 1.375,-0.5625 0.8281,-2e-5 1.375,0.5625 0.5469,0.56252 0.5469,1.3906 v 3.0156 l -0.2188,-2.1406 q 0.3438,-0.78125 0.9063,-1.3594 0.5625,-0.59375 1.2656,-1 0.7031,-0.40625 1.5,-0.59375 0.7969,-0.1875 1.5938,-0.1875 0.9687,0 1.625,0.54687 0.6562,0.53125 0.6562,1.2812 0,1.0469 -0.5469,1.5156 -0.5468,0.46875 -1.1875,0.46875 -0.6093,0 -1.1093,-0.21875 -0.4844,-0.23438 -1.125,-0.23438 -0.5782,0 -1.1719,0.28125 -0.5938,0.26563 -1.0938,0.84375 -0.4843,0.5625 -0.7968,1.4219 -0.2969,0.84375 -0.2969,2 v 7.5781 q 0,0.82813 -0.5469,1.3906 -0.5469,0.56247 -1.375,0.5625 z m 12.154,-16.797 h 7.5938 q 0.7656,0 1.2656,0.51563 0.5156,0.5 0.5156,1.2656 0,0.75 -0.5156,1.25 -0.5,0.48438 -1.2656,0.48438 h -7.5938 q -0.7656,0 -1.2812,-0.5 -0.5,-0.51563 -0.5,-1.2969 0,-0.73437 0.5,-1.2188 0.5156,-0.5 1.2812,-0.5 z m 3.4375,-4 q 0.8281,0 1.3438,0.5625 0.5312,0.54688 0.5312,1.3906 v 14.234 q 0,0.45313 0.1719,0.75 0.1875,0.28125 0.4844,0.40625 0.3125,0.125 0.6562,0.125 0.3906,0 0.7031,-0.14062 0.3282,-0.14063 0.75,-0.14063 0.4375,0 0.7969,0.42188 0.375,0.40625 0.375,1.1406 0,0.89063 -0.9844,1.4688 -0.9687,0.57813 -2.0781,0.57813 -0.6719,0 -1.5,-0.10938 -0.8125,-0.10937 -1.5312,-0.54687 -0.7188,-0.4375 -1.2032,-1.3281 -0.4687,-0.89062 -0.4687,-2.4688 v -14.391 q 0,-0.84375 0.5469,-1.3906 0.5625,-0.5625 1.4062,-0.5625 z m 17.366,21.109 q -2.7188,0 -4.7188,-1.125 -2,-1.1406 -3.0781,-3.0938 -1.0625,-1.9531 -1.0625,-4.4062 0,-2.8906 1.1563,-4.9219 1.1718,-2.0312 3.0625,-3.1094 1.8906,-1.0938 4,-1.0938 1.6406,0 3.0937,0.67187 1.4531,0.67188 2.5625,1.8438 1.125,1.1562 1.7813,2.7031 0.6562,1.5312 0.6562,3.2656 -0.031,0.76563 -0.6094,1.25 -0.5625,0.46875 -1.3437,0.46875 h -12.219 l -0.9531,-3.2031 h 11.734 l -0.7031,0.64062 v -0.85937 q -0.062,-0.92188 -0.6563,-1.6562 -0.5937,-0.75 -1.4687,-1.1719 -0.875,-0.4375 -1.875,-0.4375 -0.9532,0 -1.7969,0.26563 -0.8281,0.25 -1.4375,0.85937 -0.6094,0.60938 -0.9688,1.6406 -0.3437,1.0156 -0.3437,2.5781 0,1.7344 0.7187,2.9375 0.7344,1.1875 1.8594,1.8125 1.1406,0.625 2.4219,0.625 1.1875,0 1.8906,-0.1875 0.7031,-0.1875 1.125,-0.45312 0.4375,-0.28125 0.7969,-0.46875 0.5781,-0.29688 1.0781,-0.29688 0.7031,0 1.1719,0.48438 0.4687,0.48437 0.4687,1.1094 0,0.875 -0.9062,1.5781 -0.8281,0.70312 -2.3281,1.2344 -1.5,0.51563 -3.1094,0.51563 z m 12.74,-0.3125 q -0.8281,0 -1.375,-0.5625 -0.5469,-0.5625 -0.5469,-1.3906 v -13.219 q 0,-0.82812 0.5469,-1.3906 0.5469,-0.56248 1.375,-0.5625 0.8281,-2e-5 1.375,0.5625 0.5469,0.56252 0.5469,1.3906 v 3.0156 l -0.2188,-2.1406 q 0.3438,-0.78125 0.9063,-1.3594 0.5625,-0.59375 1.2656,-1 0.7031,-0.40625 1.5,-0.59375 0.7969,-0.1875 1.5937,-0.1875 0.9688,0 1.625,0.54687 0.6563,0.53125 0.6563,1.2812 0,1.0469 -0.5469,1.5156 -0.5469,0.4687 -1.1875,0.46875 -0.6094,0 -1.1094,-0.21875 -0.4843,-0.23438 -1.125,-0.23438 -0.5781,0 -1.1718,0.28125 -0.5938,0.26563 -1.0938,0.84375 -0.4844,0.5625 -0.7969,1.4219 -0.2968,0.84375 -0.2968,2 v 7.5781 q 0,0.82813 -0.5469,1.3906 -0.5469,0.56247 -1.375,0.5625 z"
       clip-path="url(#clipPath14614)"
       fill="#595959"
       id="path36929" />
    <path
       transform="matrix(0.5,0,0,0.5,-480.56,-105.64)"
       d="m 1394,344.3 h 180.41 V 546.16 H 1394 Z"
       clip-path="url(#clipPath14608)"
       fill="#000000"
       fill-opacity="0"
       fill-rule="evenodd"
       id="path36931" />
    <path
       transform="matrix(0.5,0,0,0.5,-480.56,-105.64)"
       d="m 1485.5,445.75 q 0,2.4062 -0.8125,4.4844 -0.7969,2.0781 -2.25,3.6719 -1.4531,1.5781 -3.4531,2.4688 -2,0.89062 -4.375,0.89062 -2.3594,0 -4.3438,-0.89062 -1.9843,-0.89063 -3.4531,-2.4688 -1.4531,-1.5938 -2.25,-3.6719 -0.7969,-2.0781 -0.7969,-4.4844 0,-2.3906 0.7969,-4.4688 0.7969,-2.0938 2.25,-3.6719 1.4688,-1.5781 3.4531,-2.4688 1.9844,-0.90625 4.3438,-0.90625 2.375,0 4.375,0.90625 2,0.89063 3.4531,2.4688 1.4531,1.5781 2.25,3.6719 0.8125,2.0781 0.8125,4.4688 z m -4.1719,0 q 0,-2.1406 -0.8593,-3.875 -0.8594,-1.75 -2.375,-2.7656 -1.5,-1.0312 -3.4844,-1.0312 -1.9844,0 -3.4844,1.0312 -1.5,1.0156 -2.3594,2.75 -0.8437,1.7188 -0.8437,3.8906 0,2.1406 0.8437,3.8906 0.8594,1.75 2.3594,2.7812 1.5,1.0156 3.4844,1.0156 1.9844,0 3.4844,-1.0156 1.5156,-1.0312 2.375,-2.7812 0.8593,-1.75 0.8593,-3.8906 z m 15.038,11.516 q -2.2344,0 -4.0313,-0.54687 -1.7812,-0.5625 -3.4218,-1.9688 -0.4063,-0.35938 -0.6407,-0.79688 -0.2187,-0.45312 -0.2187,-0.90625 0,-0.73437 0.5312,-1.2969 0.5313,-0.5625 1.3282,-0.5625 0.6093,0 1.0781,0.39062 1.2187,0.98438 2.4219,1.5 1.2031,0.51563 2.9531,0.51563 1.1875,0 2.1719,-0.35938 1,-0.375 1.6093,-1 0.6094,-0.625 0.6094,-1.4219 0,-0.96875 -0.5781,-1.6406 -0.5781,-0.67187 -1.7656,-1.125 -1.1719,-0.46875 -3,-0.71875 -1.7344,-0.26562 -3.0469,-0.78125 -1.3125,-0.53125 -2.1875,-1.3438 -0.875,-0.82812 -1.3281,-1.9219 -0.4532,-1.1094 -0.4532,-2.4844 0,-2.0781 1.0782,-3.5469 1.0781,-1.4844 2.8906,-2.25 1.8281,-0.76563 4.0312,-0.76563 2.0938,0 3.8594,0.625 1.7813,0.625 2.9063,1.5781 0.9218,0.73437 0.9218,1.7031 0,0.70313 -0.5468,1.2812 -0.5469,0.57813 -1.2813,0.57813 -0.4687,0 -0.8594,-0.29688 -0.5156,-0.45312 -1.375,-0.84375 -0.8593,-0.40625 -1.8281,-0.67187 -0.9531,-0.28125 -1.7969,-0.28125 -1.375,0 -2.3125,0.35937 -0.9375,0.34375 -1.4218,0.95313 -0.4844,0.60937 -0.4844,1.4219 0,0.95313 0.5625,1.5781 0.5625,0.62497 1.6094,1 1.0625,0.35937 2.5312,0.64062 1.9219,0.35938 3.375,0.84375 1.4531,0.46875 2.4063,1.2344 0.9687,0.75 1.4531,1.8906 0.4844,1.125 0.4844,2.75 0,2.0938 -1.1563,3.5938 -1.1562,1.5 -3.0312,2.2969 -1.8594,0.79687 -4.0469,0.79687 z"
       clip-path="url(#clipPath14602)"
       fill="#595959"
       id="path36933" />
    <path
       transform="matrix(0.5,0,0,0.5,-480.56,-105.64)"
       d="m 2047.6,343.18 h 215.43 V 547.27 H 2047.6 Z"
       clip-path="url(#clipPath14596)"
       fill="#000000"
       fill-opacity="0"
       fill-rule="evenodd"
       id="path36935" />
    <path
       transform="matrix(0.5,0,0,0.5,-480.56,-105.64)"
       d="m 2076.4,434.54 q 1.6719,0 3.125,0.96875 1.4531,0.95312 2.3438,2.5938 0.9062,1.625 0.9062,3.6406 0,1.9844 -0.9062,3.625 -0.8907,1.625 -2.3438,2.6094 -1.4531,0.96875 -3.125,0.96875 h -5.875 l 0.3125,-0.57813 v 6.625 q 0,0.82813 -0.5156,1.3906 -0.5,0.5625 -1.3438,0.5625 -0.7968,0 -1.3125,-0.5625 -0.5,-0.5625 -0.5,-1.3906 v -18.5 q 0,-0.82812 0.5469,-1.3906 0.5625,-0.5625 1.4063,-0.5625 z m 0,10.766 q 0.6094,0 1.1875,-0.51562 0.5781,-0.51563 0.9531,-1.3281 0.3907,-0.8125 0.3907,-1.7188 0,-0.92187 -0.3907,-1.7188 -0.375,-0.8125 -0.9531,-1.2969 -0.5781,-0.5 -1.1875,-0.5 h -5.9375 l 0.375,-0.57813 v 8.1562 l -0.3437,-0.5 z m 26.023,3.0938 q 0,2.625 -1.1719,4.625 -1.1563,2 -3.125,3.125 -1.9688,1.1094 -4.4063,1.1094 -2.4375,0 -4.4062,-1.1094 -1.9688,-1.125 -3.1406,-3.125 -1.1563,-2 -1.1563,-4.625 0,-2.625 1.1563,-4.625 1.1718,-2 3.1406,-3.125 1.9687,-1.1406 4.4062,-1.1406 2.4375,0 4.4063,1.1406 1.9687,1.125 3.125,3.125 1.1719,2 1.1719,4.625 z m -3.8438,0 q 0,-1.625 -0.6562,-2.8281 -0.6563,-1.2031 -1.7657,-1.875 -1.0937,-0.67188 -2.4375,-0.67188 -1.3437,0 -2.4531,0.67188 -1.0937,0.67187 -1.75,1.875 -0.6562,1.2031 -0.6562,2.8281 0,1.6094 0.6562,2.8125 0.6563,1.1875 1.75,1.8594 1.1094,0.67187 2.4531,0.67187 1.3438,0 2.4375,-0.67187 1.1094,-0.67188 1.7657,-1.8594 0.6562,-1.2031 0.6562,-2.8125 z m 6.218,5.8906 q -0.3281,-0.45313 -0.2969,-1.1562 0.031,-0.70313 0.8282,-1.2188 0.5156,-0.3125 1.0937,-0.26563 0.5781,0.0469 1.125,0.59375 0.9219,0.92188 1.9375,1.4375 1.0313,0.51563 2.5781,0.51563 0.4688,-0.0312 1.0469,-0.14063 0.5781,-0.125 1,-0.51562 0.4375,-0.40625 0.4375,-1.2344 0,-0.70312 -0.4844,-1.1094 -0.4687,-0.42188 -1.2656,-0.70313 -0.7812,-0.29687 -1.7344,-0.5625 -0.9843,-0.28125 -2.0312,-0.625 -1.0469,-0.35937 -1.9063,-0.92187 -0.8593,-0.5625 -1.4062,-1.4844 -0.5469,-0.92187 -0.5469,-2.3438 0,-1.5938 0.8906,-2.7031 0.9063,-1.125 2.3282,-1.7344 1.4218,-0.60937 3,-0.60937 0.9843,0 2.0625,0.25 1.0937,0.23437 2.0781,0.76562 1,0.51563 1.6719,1.375 0.3593,0.48438 0.4218,1.1562 0.062,0.67188 -0.6093,1.2188 -0.4844,0.39063 -1.125,0.34375 -0.6407,-0.0625 -1.0469,-0.4375 -0.5469,-0.70312 -1.4688,-1.1094 -0.9062,-0.42188 -2.0937,-0.42188 -0.4688,0 -1.0313,0.10938 -0.5625,0.10937 -0.9843,0.48437 -0.4063,0.35938 -0.4063,1.1562 0,0.73438 0.4688,1.1719 0.4843,0.4375 1.2968,0.70312 0.8282,0.26563 1.75,0.53125 0.9532,0.25 1.9375,0.60938 1,0.34375 1.8282,0.92187 0.8437,0.57813 1.3437,1.5 0.5156,0.90625 0.5156,2.3125 0,1.625 -0.9531,2.7812 -0.9531,1.1562 -2.4062,1.75 -1.4375,0.57813 -2.9375,0.57813 -1.8907,0 -3.7813,-0.64063 -1.875,-0.65625 -3.125,-2.3281 z m 16.596,-14.141 h 7.5937 q 0.7656,0 1.2656,0.51563 0.5157,0.5 0.5157,1.2656 0,0.75 -0.5157,1.25 -0.5,0.48438 -1.2656,0.48438 h -7.5937 q -0.7657,0 -1.2813,-0.5 -0.5,-0.51563 -0.5,-1.2969 0,-0.73437 0.5,-1.2188 0.5156,-0.5 1.2813,-0.5 z m 3.4375,-4 q 0.8281,0 1.3437,0.5625 0.5313,0.54688 0.5313,1.3906 v 14.234 q 0,0.45313 0.1718,0.75 0.1875,0.28125 0.4844,0.40625 0.3125,0.125 0.6563,0.125 0.3906,0 0.7031,-0.14062 0.3281,-0.14063 0.75,-0.14063 0.4375,0 0.7969,0.42188 0.375,0.40625 0.375,1.1406 0,0.89063 -0.9844,1.4688 -0.9688,0.57813 -2.0781,0.57813 -0.6719,0 -1.5,-0.10938 -0.8125,-0.10937 -1.5313,-0.54687 -0.7187,-0.4375 -1.2031,-1.3281 -0.4688,-0.89062 -0.4688,-2.4688 v -14.391 q 0,-0.84375 0.5469,-1.3906 0.5625,-0.5625 1.4063,-0.5625 z m 16.412,3.3594 q 1.3438,0 2.4531,0.42187 1.125,0.40625 1.9375,1.0469 0.8282,0.64062 1.2813,1.2969 0.4687,0.65625 0.4687,1.1094 l -0.8281,0.40625 v -2.3281 q 0,-0.82812 0.5313,-1.3906 0.5468,-0.5625 1.3906,-0.5625 0.8281,0 1.375,0.54687 0.5469,0.53125 0.5469,1.4062 v 14.234 q 0,2.7812 -1.2032,4.4531 -1.2031,1.6875 -3.1562,2.4375 -1.9531,0.76563 -4.1875,0.76563 -0.6406,0 -1.6719,-0.17188 -1.0156,-0.15625 -1.9531,-0.39062 -0.9219,-0.21875 -1.4063,-0.40625 -0.9531,-0.40625 -1.3281,-1.0312 -0.3594,-0.625 -0.1406,-1.3281 0.2812,-0.9375 0.9219,-1.2812 0.6406,-0.32812 1.3437,-0.0625 0.3281,0.0937 1.0625,0.375 0.7344,0.29688 1.6094,0.53125 0.8906,0.23438 1.5625,0.23438 2.3906,0 3.5469,-0.96875 1.1562,-0.95313 1.1562,-2.6406 v -2.7812 l 0.375,0.28125 q 0,0.42188 -0.4375,1.0156 -0.4219,0.59375 -1.1719,1.1719 -0.75,0.5625 -1.7812,0.96875 -1.0156,0.39063 -2.1719,0.39063 -2.2656,0 -4.0937,-1.125 -1.8282,-1.1406 -2.8907,-3.1406 -1.0468,-2 -1.0468,-4.5938 0,-2.625 1.0468,-4.625 1.0625,-2 2.8438,-3.125 1.7969,-1.1406 4.0156,-1.1406 z m 0.6094,3.5156 q -1.4375,0 -2.5313,0.70313 -1.0937,0.70312 -1.7031,1.9219 -0.6094,1.21878 -0.6094,2.75 0,1.5 0.6094,2.7188 0.6094,1.2188 1.7031,1.9219 1.0938,0.70312 2.5313,0.70312 1.4687,0 2.5469,-0.70312 1.0937,-0.70313 1.7031,-1.9219 0.6094,-1.21877 0.6094,-2.7188 0,-1.5312 -0.6094,-2.75 -0.6094,-1.2188 -1.7031,-1.9219 -1.0782,-0.70313 -2.5469,-0.70313 z m 14.619,13.922 q -0.8281,0 -1.375,-0.5625 -0.5468,-0.5625 -0.5468,-1.3906 v -13.219 q 0,-0.82812 0.5468,-1.3906 0.5469,-0.5625 1.375,-0.5625 0.8282,0 1.375,0.5625 0.5469,0.5625 0.5469,1.3906 v 3.0156 l -0.2187,-2.1406 q 0.3437,-0.78125 0.9062,-1.3594 0.5625,-0.59375 1.2656,-1 0.7032,-0.40625 1.5,-0.59375 0.7969,-0.1875 1.5938,-0.1875 0.9687,0 1.625,0.54687 0.6562,0.53125 0.6562,1.2812 0,1.0469 -0.5468,1.5156 -0.5469,0.46875 -1.1875,0.46875 -0.6094,0 -1.1094,-0.21875 -0.4844,-0.23438 -1.125,-0.23438 -0.5781,0 -1.1719,0.28125 -0.5937,0.26563 -1.0937,0.84375 -0.4844,0.5625 -0.7969,1.4219 -0.2969,0.84375 -0.2969,2 v 7.5781 q 0,0.82813 -0.5469,1.3906 -0.5468,0.5625 -1.375,0.5625 z m 19.325,0.3125 q -2.7187,0 -4.7187,-1.125 -2,-1.1406 -3.0781,-3.0938 -1.0625,-1.9531 -1.0625,-4.4062 0,-2.8906 1.1562,-4.9219 1.1719,-2.0312 3.0625,-3.1094 1.8906,-1.0938 4,-1.0938 1.6406,0 3.0938,0.67187 1.4531,0.67188 2.5625,1.8438 1.125,1.1562 1.7812,2.7031 0.6563,1.5312 0.6563,3.2656 -0.031,0.76563 -0.6094,1.25 -0.5625,0.46875 -1.3438,0.46875 h -12.219 l -0.9531,-3.2031 h 11.734 l -0.7031,0.64062 v -0.85937 q -0.062,-0.92188 -0.6562,-1.6562 -0.5938,-0.75 -1.4688,-1.1719 -0.875,-0.4375 -1.875,-0.4375 -0.9531,0 -1.7969,0.26563 -0.8281,0.25 -1.4375,0.85937 -0.6093,0.60938 -0.9687,1.6406 -0.3438,1.0156 -0.3438,2.5781 0,1.7344 0.7188,2.9375 0.7344,1.1875 1.8594,1.8125 1.1406,0.625 2.4218,0.625 1.1875,0 1.8907,-0.1875 0.7031,-0.1875 1.125,-0.45312 0.4375,-0.28125 0.7968,-0.46875 0.5782,-0.29688 1.0782,-0.29688 0.7031,0 1.1718,0.48438 0.4688,0.48437 0.4688,1.1094 0,0.875 -0.9063,1.5781 -0.8281,0.70312 -2.3281,1.2344 -1.5,0.51563 -3.1094,0.51563 z m 18.333,0 q -2.2344,0 -4.0313,-0.54688 -1.7812,-0.5625 -3.4218,-1.9688 -0.4063,-0.35937 -0.6407,-0.79687 -0.2187,-0.45313 -0.2187,-0.90625 0,-0.73438 0.5312,-1.2969 0.5313,-0.5625 1.3282,-0.5625 0.6093,0 1.0781,0.39063 1.2187,0.98437 2.4219,1.5 1.2031,0.51562 2.9531,0.51562 1.1875,0 2.1719,-0.35937 1,-0.375 1.6093,-1 0.6094,-0.625 0.6094,-1.4219 0,-0.96875 -0.5781,-1.6406 -0.5781,-0.67188 -1.7656,-1.125 -1.1719,-0.46875 -3,-0.71875 -1.7344,-0.26563 -3.0469,-0.78125 -1.3125,-0.53125 -2.1875,-1.3438 -0.875,-0.82813 -1.3281,-1.9219 -0.4532,-1.1094 -0.4532,-2.4844 0,-2.0781 1.0782,-3.5469 1.0781,-1.4844 2.8906,-2.25 1.8281,-0.76562 4.0312,-0.76562 2.0938,0 3.8594,0.625 1.7813,0.625 2.9063,1.5781 0.9218,0.73438 0.9218,1.7031 0,0.70312 -0.5468,1.2812 -0.5469,0.57812 -1.2813,0.57812 -0.4687,0 -0.8594,-0.29687 -0.5156,-0.45313 -1.375,-0.84375 -0.8593,-0.40625 -1.8281,-0.67188 -0.9531,-0.28125 -1.7969,-0.28125 -1.375,0 -2.3125,0.35938 -0.9375,0.34375 -1.4218,0.95312 -0.4844,0.60938 -0.4844,1.4219 0,0.95312 0.5625,1.5781 0.5625,0.62498 1.6094,1 1.0625,0.35938 2.5312,0.64063 1.9219,0.35937 3.375,0.84375 1.4531,0.46875 2.4063,1.2344 0.9687,0.75 1.4531,1.8906 0.4844,1.125 0.4844,2.75 0,2.0938 -1.1563,3.5938 -1.1562,1.5 -3.0312,2.2969 -1.8594,0.79688 -4.0469,0.79688 z m 32.651,0.57812 q 0.6718,0 1.2343,0.5625 0.5782,0.5625 0.5782,1.2969 0,0.73437 -0.6563,1.3906 -0.6562,0.65625 -1.6875,1.1719 -1.0156,0.51562 -2.125,0.79687 -1.0937,0.29688 -1.9844,0.29688 -1.9843,0 -3.1718,-0.375 -1.1875,-0.375 -1.9532,-0.84375 -0.7656,-0.45313 -1.4375,-0.82813 -0.6718,-0.35937 -1.6406,-0.35937 -0.5937,0 -0.9687,0.20312 -0.375,0.21875 -0.8125,0.42188 -0.4219,0.20312 -1.1875,0.20312 -0.7969,0 -1.3438,-0.60937 -0.5469,-0.60938 -0.5469,-1.3125 0,-1.25 1.125,-1.6562 l 6.625,-2.4688 2.875,0.70312 -6.2031,2.3125 1.8281,-1.0625 q 1.1094,0 1.9532,0.32813 0.8593,0.34375 1.625,0.75 0.7656,0.42187 1.5781,0.75 0.8125,0.34375 1.875,0.34375 0.8594,0 1.4531,-0.28125 0.5938,-0.28125 1.0469,-0.64063 0.5469,-0.42187 0.9687,-0.76562 0.4375,-0.32813 0.9532,-0.32813 z m -0.125,-12.094 q 0,2.4062 -0.8125,4.4844 -0.7969,2.0781 -2.25,3.6719 -1.4532,1.5781 -3.4532,2.4688 -2,0.89063 -4.375,0.89063 -2.3593,0 -4.3437,-0.89063 -1.9844,-0.89062 -3.4531,-2.4688 -1.4532,-1.5938 -2.25,-3.6719 -0.7969,-2.0781 -0.7969,-4.4844 0,-2.3906 0.7969,-4.4688 0.7968,-2.0938 2.25,-3.6719 1.4687,-1.5781 3.4531,-2.4688 1.9844,-0.90625 4.3437,-0.90625 2.375,0 4.375,0.90625 2,0.89062 3.4532,2.4688 1.4531,1.5781 2.25,3.6719 0.8125,2.0781 0.8125,4.4688 z m -4.1719,0 q 0,-2.1406 -0.8594,-3.875 -0.8594,-1.75 -2.375,-2.7656 -1.5,-1.0312 -3.4844,-1.0312 -1.9843,0 -3.4843,1.0312 -1.5,1.0156 -2.3594,2.75 -0.8438,1.7188 -0.8438,3.8906 0,2.1406 0.8438,3.8906 0.8594,1.75 2.3594,2.7812 1.5,1.0156 3.4843,1.0156 1.9844,0 3.4844,-1.0156 1.5156,-1.0312 2.375,-2.7812 0.8594,-1.75 0.8594,-3.8906 z m 20.066,7.4531 q 0.8281,0 1.3906,0.53125 0.5625,0.53125 0.5625,1.3594 0,0.79688 -0.5625,1.3281 -0.5625,0.53122 -1.3906,0.53125 h -10.391 q -0.8437,0 -1.4062,-0.5625 -0.5469,-0.5625 -0.5469,-1.3906 v -18.5 q 0,-0.82812 0.5625,-1.3906 0.5781,-0.5625 1.4844,-0.5625 0.7656,0 1.3594,0.5625 0.5937,0.5625 0.5937,1.3906 v 17.25 l -0.7031,-0.54687 z"
       clip-path="url(#clipPath14590)"
       fill="#595959"
       id="path36937" />
    <g
       transform="matrix(0.5,0,0,0.5,-480.56,-105.64)"
       fill-rule="evenodd"
       id="g36945">
      <path
         d="m 1760.6,755.38 27.89,-111.56 h 492.02 l -27.89,111.56 z"
         clip-path="url(#clipPath14584)"
         fill="#ffffff"
         id="path36939" />
      <path
         d="m 1760.6,755.38 27.89,-111.56 h 492.02 l -27.89,111.56 z"
         clip-path="url(#clipPath14578)"
         stroke="#2e79f3"
         stroke-linecap="butt"
         stroke-linejoin="round"
         stroke-width="4"
         id="path36941" />
      <path
         d="m 1846.1,643.82 h 348.98 V 755.38 H 1846.1 Z"
         clip-path="url(#clipPath14572)"
         fill="#000000"
         fill-opacity="0"
         id="path36943" />
    </g>
    <path
       transform="matrix(0.5,0,0,0.5,-480.56,-105.64)"
       d="m 1885,693.88 q 2.25,0 4.0156,1.1406 1.7813,1.125 2.8125,3.1094 1.0469,1.9844 1.0469,4.6094 0,2.625 -1.0469,4.625 -1.0312,2 -2.7812,3.1406 -1.7344,1.125 -3.9063,1.125 -1.2812,0 -2.4062,-0.40625 -1.125,-0.42188 -1.9688,-1.0625 -0.8437,-0.64063 -1.3125,-1.2969 -0.4687,-0.65625 -0.4687,-1.0938 l 1,-0.42187 v 8.4219 q 0,0.82813 -0.5469,1.3906 -0.5469,0.56247 -1.375,0.5625 -0.8281,3e-5 -1.375,-0.54688 -0.5469,-0.54687 -0.5469,-1.4062 v -19.625 q 0,-0.82812 0.5469,-1.3906 0.5469,-0.56248 1.375,-0.5625 0.8281,-2e-5 1.375,0.5625 0.5469,0.56252 0.5469,1.3906 v 1.5781 l -0.5469,-0.29688 q 0,-0.40625 0.4375,-1 0.4531,-0.59375 1.2188,-1.1875 0.7812,-0.59375 1.7812,-0.96875 1.0156,-0.39062 2.125,-0.39062 z m -0.4687,3.5156 q -1.4063,0 -2.4688,0.70313 -1.0625,0.70312 -1.6562,1.9062 -0.5782,1.2031 -0.5782,2.7344 0,1.5 0.5782,2.7344 0.5937,1.2344 1.6562,1.9375 1.0625,0.70312 2.4688,0.70312 1.4062,0 2.4375,-0.70312 1.0468,-0.70313 1.6406,-1.9375 0.5937,-1.2344 0.5937,-2.7344 0,-1.5312 -0.5937,-2.7344 -0.5938,-1.2031 -1.6406,-1.9062 -1.0313,-0.70313 -2.4375,-0.70313 z m 28.315,5.375 q 0,2.625 -1.1719,4.625 -1.1563,2 -3.125,3.125 -1.9688,1.1094 -4.4063,1.1094 -2.4375,0 -4.4062,-1.1094 -1.9688,-1.125 -3.1406,-3.125 -1.1563,-2 -1.1563,-4.625 0,-2.625 1.1563,-4.625 1.1718,-2 3.1406,-3.125 1.9687,-1.1406 4.4062,-1.1406 2.4375,0 4.4063,1.1406 1.9687,1.125 3.125,3.125 1.1719,2 1.1719,4.625 z m -3.8438,0 q 0,-1.625 -0.6562,-2.8281 -0.6563,-1.2031 -1.7657,-1.875 -1.0937,-0.67188 -2.4375,-0.67188 -1.3437,0 -2.4531,0.67188 -1.0937,0.67187 -1.75,1.875 -0.6562,1.2031 -0.6562,2.8281 0,1.6094 0.6562,2.8125 0.6563,1.1875 1.75,1.8594 1.1094,0.67187 2.4531,0.67187 1.3438,0 2.4375,-0.67187 1.1094,-0.67188 1.7657,-1.8594 0.6562,-1.2031 0.6562,-2.8125 z m 6.218,5.8906 q -0.3281,-0.45313 -0.2968,-1.1562 0.031,-0.70313 0.8281,-1.2188 0.5156,-0.3125 1.0937,-0.26563 0.5782,0.0469 1.125,0.59375 0.9219,0.92188 1.9375,1.4375 1.0313,0.51563 2.5782,0.51563 0.4687,-0.0312 1.0468,-0.14063 0.5782,-0.125 1,-0.51562 0.4375,-0.40625 0.4375,-1.2344 0,-0.70312 -0.4843,-1.1094 -0.4688,-0.42188 -1.2657,-0.70313 -0.7812,-0.29687 -1.7343,-0.5625 -0.9844,-0.28125 -2.0313,-0.625 -1.0469,-0.35937 -1.9062,-0.92187 -0.8594,-0.5625 -1.4063,-1.4844 -0.5469,-0.92187 -0.5469,-2.3438 0,-1.5938 0.8907,-2.7031 0.9062,-1.125 2.3281,-1.7344 1.4219,-0.60937 3,-0.60937 0.9844,0 2.0625,0.25 1.0937,0.23437 2.0781,0.76562 1,0.51563 1.6719,1.375 0.3594,0.48438 0.4219,1.1562 0.062,0.67188 -0.6094,1.2188 -0.4844,0.39063 -1.125,0.34375 -0.6406,-0.0625 -1.0469,-0.4375 -0.5469,-0.70312 -1.4687,-1.1094 -0.9063,-0.42188 -2.0938,-0.42188 -0.4687,0 -1.0312,0.10938 -0.5625,0.10937 -0.9844,0.48437 -0.4063,0.35938 -0.4063,1.1562 0,0.73438 0.4688,1.1719 0.4844,0.4375 1.2969,0.70312 0.8281,0.26563 1.75,0.53125 0.9531,0.25 1.9375,0.60938 1,0.34375 1.8281,0.92187 0.8437,0.57813 1.3437,1.5 0.5157,0.90625 0.5157,2.3125 0,1.625 -0.9532,2.7812 -0.9531,1.1562 -2.4062,1.75 -1.4375,0.57813 -2.9375,0.57813 -1.8906,0 -3.7813,-0.64063 -1.875,-0.65625 -3.125,-2.3281 z m 16.596,-14.141 h 7.5937 q 0.7657,0 1.2657,0.51563 0.5156,0.5 0.5156,1.2656 0,0.75 -0.5156,1.25 -0.5,0.48438 -1.2657,0.48438 h -7.5937 q -0.7656,0 -1.2813,-0.5 -0.5,-0.51563 -0.5,-1.2969 0,-0.73437 0.5,-1.2188 0.5157,-0.5 1.2813,-0.5 z m 3.4375,-4 q 0.8281,0 1.3437,0.5625 0.5313,0.54688 0.5313,1.3906 v 14.234 q 0,0.45313 0.1719,0.75 0.1875,0.28125 0.4843,0.40625 0.3125,0.125 0.6563,0.125 0.3906,0 0.7031,-0.14062 0.3281,-0.14063 0.75,-0.14063 0.4375,0 0.7969,0.42188 0.375,0.40625 0.375,1.1406 0,0.89063 -0.9844,1.4688 -0.9687,0.57813 -2.0781,0.57813 -0.6719,0 -1.5,-0.10938 -0.8125,-0.10937 -1.5313,-0.54687 -0.7187,-0.4375 -1.2031,-1.3281 -0.4687,-0.89062 -0.4687,-2.4688 v -14.391 q 0,-0.84375 0.5468,-1.3906 0.5625,-0.5625 1.4063,-0.5625 z m 16.412,3.3594 q 1.3438,0 2.4532,0.42187 1.125,0.40625 1.9375,1.0469 0.8281,0.64062 1.2812,1.2969 0.4688,0.65625 0.4688,1.1094 l -0.8282,0.40625 v -2.3281 q 0,-0.82812 0.5313,-1.3906 0.5469,-0.5625 1.3906,-0.5625 0.8281,0 1.375,0.54687 0.5469,0.53125 0.5469,1.4062 v 14.234 q 0,2.7812 -1.2031,4.4531 -1.2032,1.6875 -3.1563,2.4375 -1.9531,0.76563 -4.1875,0.76563 -0.6406,0 -1.6719,-0.17188 -1.0156,-0.15625 -1.9531,-0.39062 -0.9219,-0.21875 -1.4062,-0.40625 -0.9532,-0.40625 -1.3282,-1.0312 -0.3593,-0.625 -0.1406,-1.3281 0.2813,-0.9375 0.9219,-1.2812 0.6406,-0.32812 1.3437,-0.0625 0.3282,0.0937 1.0625,0.375 0.7344,0.29688 1.6094,0.53125 0.8906,0.23438 1.5625,0.23438 2.3906,0 3.5469,-0.96875 1.1562,-0.95313 1.1562,-2.6406 v -2.7812 l 0.375,0.28125 q 0,0.42188 -0.4375,1.0156 -0.4218,0.59375 -1.1718,1.1719 -0.75,0.5625 -1.7813,0.96875 -1.0156,0.39063 -2.1719,0.39063 -2.2656,0 -4.0937,-1.125 -1.8281,-1.1406 -2.8906,-3.1406 -1.0469,-2 -1.0469,-4.5938 0,-2.625 1.0469,-4.625 1.0625,-2 2.8437,-3.125 1.7969,-1.1406 4.0156,-1.1406 z m 0.6094,3.5156 q -1.4375,0 -2.5312,0.70313 -1.0938,0.70312 -1.7032,1.9219 -0.6093,1.2188 -0.6093,2.75 0,1.5 0.6093,2.7188 0.6094,1.2188 1.7032,1.9219 1.0937,0.70312 2.5312,0.70312 1.4688,0 2.5469,-0.70312 1.0937,-0.70313 1.7031,-1.9219 0.6094,-1.21877 0.6094,-2.7188 0,-1.5312 -0.6094,-2.75 -0.6094,-1.2188 -1.7031,-1.9219 -1.0781,-0.70313 -2.5469,-0.70313 z m 14.619,13.922 q -0.8282,0 -1.375,-0.5625 -0.5469,-0.5625 -0.5469,-1.3906 v -13.219 q 0,-0.82812 0.5469,-1.3906 0.5468,-0.5625 1.375,-0.5625 0.8281,0 1.375,0.5625 0.5468,0.5625 0.5468,1.3906 v 3.0156 l -0.2187,-2.1406 q 0.3437,-0.78125 0.9062,-1.3594 0.5625,-0.59375 1.2657,-1 0.7031,-0.40625 1.5,-0.59375 0.7968,-0.1875 1.5937,-0.1875 0.9688,0 1.625,0.54687 0.6563,0.53125 0.6563,1.2812 0,1.0469 -0.5469,1.5156 -0.5469,0.4687 -1.1875,0.46875 -0.6094,0 -1.1094,-0.21875 -0.4844,-0.23438 -1.125,-0.23438 -0.5781,0 -1.1719,0.28125 -0.5937,0.26563 -1.0937,0.84375 -0.4844,0.5625 -0.7969,1.4219 -0.2969,0.84375 -0.2969,2 v 7.5781 q 0,0.82813 -0.5468,1.3906 -0.5469,0.5625 -1.375,0.5625 z m 19.325,0.3125 q -2.7188,0 -4.7188,-1.125 -2,-1.1406 -3.0781,-3.0938 -1.0625,-1.9531 -1.0625,-4.4062 0,-2.8906 1.1562,-4.9219 1.1719,-2.0312 3.0625,-3.1094 1.8907,-1.0938 4,-1.0938 1.6407,0 3.0938,0.67187 1.4531,0.67188 2.5625,1.8438 1.125,1.1562 1.7812,2.7031 0.6563,1.5312 0.6563,3.2656 -0.031,0.76563 -0.6094,1.25 -0.5625,0.46875 -1.3437,0.46875 h -12.219 l -0.9531,-3.2031 h 11.734 l -0.7032,0.64062 v -0.85937 q -0.062,-0.92188 -0.6562,-1.6562 -0.5938,-0.75 -1.4688,-1.1719 -0.875,-0.4375 -1.875,-0.4375 -0.9531,0 -1.7968,0.26563 -0.8282,0.25 -1.4375,0.85937 -0.6094,0.60938 -0.9688,1.6406 -0.3437,1.0156 -0.3437,2.5781 0,1.7344 0.7187,2.9375 0.7344,1.1875 1.8594,1.8125 1.1406,0.625 2.4219,0.625 1.1875,0 1.8906,-0.1875 0.7031,-0.1875 1.125,-0.45312 0.4375,-0.28125 0.7969,-0.46875 0.5781,-0.29688 1.0781,-0.29688 0.7031,0 1.1719,0.48438 0.4687,0.48437 0.4687,1.1094 0,0.875 -0.9062,1.5781 -0.8282,0.70312 -2.3282,1.2344 -1.5,0.51563 -3.1093,0.51563 z m 9.8331,-2.9688 q -0.3281,-0.45313 -0.2969,-1.1562 0.031,-0.70313 0.8281,-1.2188 0.5157,-0.3125 1.0938,-0.26563 0.5781,0.0469 1.125,0.59375 0.9219,0.92188 1.9375,1.4375 1.0312,0.51563 2.5781,0.51563 0.4688,-0.0312 1.0469,-0.14063 0.5781,-0.125 1,-0.51562 0.4375,-0.40625 0.4375,-1.2344 0,-0.70312 -0.4844,-1.1094 -0.4687,-0.42188 -1.2656,-0.70313 -0.7813,-0.29687 -1.7344,-0.5625 -0.9844,-0.28125 -2.0312,-0.625 -1.0469,-0.35937 -1.9063,-0.92187 -0.8594,-0.5625 -1.4062,-1.4844 -0.5469,-0.92187 -0.5469,-2.3438 0,-1.5938 0.8906,-2.7031 0.9063,-1.125 2.3281,-1.7344 1.4219,-0.60937 3,-0.60937 0.9844,0 2.0625,0.25 1.0938,0.23437 2.0782,0.76562 1,0.51563 1.6718,1.375 0.3594,0.48438 0.4219,1.1562 0.062,0.67188 -0.6094,1.2188 -0.4843,0.39063 -1.125,0.34375 -0.6406,-0.0625 -1.0468,-0.4375 -0.5469,-0.70312 -1.4688,-1.1094 -0.9062,-0.42188 -2.0937,-0.42188 -0.4688,0 -1.0313,0.10938 -0.5625,0.10937 -0.9844,0.48437 -0.4062,0.35938 -0.4062,1.1562 0,0.73438 0.4687,1.1719 0.4844,0.4375 1.2969,0.70312 0.8281,0.26563 1.75,0.53125 0.9531,0.25 1.9375,0.60938 1,0.34375 1.8281,0.92187 0.8438,0.57813 1.3438,1.5 0.5156,0.90625 0.5156,2.3125 0,1.625 -0.9531,2.7812 -0.9531,1.1562 -2.4063,1.75 -1.4375,0.57813 -2.9375,0.57813 -1.8906,0 -3.7812,-0.64063 -1.875,-0.65625 -3.125,-2.3281 z m 17.471,7.7812 q -0.6718,0 -1.1093,-0.4375 -0.4375,-0.4375 -0.4375,-1.0781 0,-0.64062 0.4375,-1.0781 0.4375,-0.42188 1.1093,-0.42188 h 16.25 q 0.6719,0 1.0938,0.42188 0.4375,0.4375 0.4375,1.1094 0,0.64063 -0.4375,1.0625 -0.4219,0.42188 -1.0938,0.42188 z m 29.528,-4.8125 q -2.7187,0 -4.7187,-1.125 -2,-1.1406 -3.0782,-3.0938 -1.0625,-1.9531 -1.0625,-4.4062 0,-2.8906 1.1563,-4.9219 1.1719,-2.0312 3.0625,-3.1094 1.8906,-1.0938 4,-1.0938 1.6406,0 3.0937,0.67187 1.4532,0.67188 2.5624,1.8438 1.125,1.1562 1.7813,2.7031 0.6562,1.5312 0.6562,3.2656 -0.031,0.76563 -0.6094,1.25 -0.5625,0.46875 -1.3437,0.46875 h -12.219 l -0.9532,-3.2031 h 11.734 l -0.7031,0.64062 v -0.85937 q -0.062,-0.92188 -0.6563,-1.6562 -0.5937,-0.75 -1.4687,-1.1719 -0.875,-0.4375 -1.875,-0.4375 -0.9531,0 -1.7969,0.26563 -0.8281,0.25 -1.4375,0.85937 -0.6094,0.60938 -0.9687,1.6406 -0.3438,1.0156 -0.3438,2.5781 0,1.7344 0.7188,2.9375 0.7343,1.1875 1.8593,1.8125 1.1407,0.625 2.4219,0.625 1.1875,0 1.8906,-0.1875 0.7032,-0.1875 1.125,-0.45312 0.4375,-0.28125 0.7969,-0.46875 0.5781,-0.29688 1.0781,-0.29688 0.703,0 1.1718,0.48438 0.4687,0.48437 0.4687,1.1094 0,0.875 -0.9062,1.5781 -0.828,0.70312 -2.328,1.2344 -1.5,0.51563 -3.1094,0.51563 z m 11.177,-17.438 q 0.9219,0 1.5625,0.8125 l 10.688,13.266 q 0.4219,0.51563 0.4219,1.1562 0,0.79688 -0.6094,1.375 -0.6094,0.57813 -1.3438,0.57813 -0.9375,0 -1.5781,-0.82813 l -10.688,-13.281 q -0.4062,-0.51562 -0.4062,-1.1562 0,-0.82812 0.5781,-1.375 0.5937,-0.54687 1.375,-0.54687 z m 0.031,17.156 q -0.6406,0 -1.2656,-0.48438 -0.625,-0.5 -0.625,-1.2031 0,-0.64063 0.4844,-1.2188 l 4.8906,-5.9844 1.9219,3.2031 -3.875,4.8906 q -0.6094,0.79688 -1.5313,0.79688 z m 10.656,-17.156 q 0.7656,0 1.2812,0.53125 0.5313,0.53125 0.5313,1.2031 0,0.3125 -0.094,0.64063 -0.094,0.3125 -0.3437,0.60937 l -4.8438,5.8906 -2.0156,-2.7969 3.9375,-5.2031 q 0.6406,-0.875 1.5469,-0.875 z m 13.396,-0.3125 q 2.25,0 4.0156,1.1406 1.7813,1.125 2.8125,3.1094 1.0469,1.9844 1.0469,4.6094 0,2.625 -1.0469,4.625 -1.0312,2 -2.7812,3.1406 -1.7344,1.125 -3.9063,1.125 -1.2812,0 -2.4062,-0.40625 -1.125,-0.42188 -1.9688,-1.0625 -0.8437,-0.64063 -1.3125,-1.2969 -0.4687,-0.65625 -0.4687,-1.0938 l 1,-0.42187 v 8.4219 q 0,0.82813 -0.5469,1.3906 -0.5469,0.56247 -1.375,0.5625 -0.8281,3e-5 -1.375,-0.54688 -0.5469,-0.54687 -0.5469,-1.4062 v -19.625 q 0,-0.82812 0.5469,-1.3906 0.5469,-0.56248 1.375,-0.5625 0.8281,-2e-5 1.375,0.5625 0.5469,0.56252 0.5469,1.3906 v 1.5781 l -0.5469,-0.29688 q 0,-0.40625 0.4375,-1 0.4531,-0.59375 1.2187,-1.1875 0.7813,-0.59375 1.7813,-0.96875 1.0156,-0.39062 2.125,-0.39062 z m -0.4688,3.5156 q -1.4062,0 -2.4687,0.70313 -1.0625,0.70312 -1.6563,1.9062 -0.5781,1.2031 -0.5781,2.7344 0,1.5 0.5781,2.7344 0.5938,1.2344 1.6563,1.9375 1.0625,0.70312 2.4687,0.70312 1.4063,0 2.4375,-0.70312 1.0469,-0.70313 1.6407,-1.9375 0.5937,-1.2344 0.5937,-2.7344 0,-1.5312 -0.5937,-2.7344 -0.5938,-1.2031 -1.6407,-1.9062 -1.0312,-0.70313 -2.4375,-0.70313 z m 28.315,5.375 q 0,2.625 -1.1719,4.625 -1.1563,2 -3.125,3.125 -1.9688,1.1094 -4.4063,1.1094 -2.4375,0 -4.4062,-1.1094 -1.9688,-1.125 -3.1406,-3.125 -1.1563,-2 -1.1563,-4.625 0,-2.625 1.1563,-4.625 1.1718,-2 3.1406,-3.125 1.9687,-1.1406 4.4062,-1.1406 2.4375,0 4.4063,1.1406 1.9687,1.125 3.125,3.125 1.1719,2 1.1719,4.625 z m -3.8438,0 q 0,-1.625 -0.6562,-2.8281 -0.6563,-1.2031 -1.7657,-1.875 -1.0937,-0.67188 -2.4375,-0.67188 -1.3437,0 -2.4531,0.67188 -1.0937,0.67187 -1.75,1.875 -0.6562,1.2031 -0.6562,2.8281 0,1.6094 0.6562,2.8125 0.6563,1.1875 1.75,1.8594 1.1094,0.67187 2.4531,0.67187 1.3438,0 2.4375,-0.67187 1.1094,-0.67188 1.7657,-1.8594 0.6562,-1.2031 0.6562,-2.8125 z m 9.1243,8.5469 q -0.8281,0 -1.375,-0.5625 -0.5469,-0.5625 -0.5469,-1.3906 v -13.219 q 0,-0.82812 0.5469,-1.3906 0.5469,-0.56248 1.375,-0.5625 0.8281,-2e-5 1.375,0.5625 0.5469,0.56252 0.5469,1.3906 v 3.0156 l -0.2188,-2.1406 q 0.3438,-0.78125 0.9063,-1.3594 0.5625,-0.59375 1.2656,-1 0.7031,-0.40625 1.5,-0.59375 0.7969,-0.1875 1.5937,-0.1875 0.9688,0 1.625,0.54687 0.6563,0.53125 0.6563,1.2812 0,1.0469 -0.5469,1.5156 -0.5469,0.4687 -1.1875,0.46875 -0.6094,0 -1.1094,-0.21875 -0.4843,-0.23438 -1.125,-0.23438 -0.5781,0 -1.1718,0.28125 -0.5938,0.26563 -1.0938,0.84375 -0.4844,0.5625 -0.7969,1.4219 -0.2968,0.84375 -0.2968,2 v 7.5781 q 0,0.82813 -0.5469,1.3906 -0.5469,0.56247 -1.375,0.5625 z m 12.154,-16.797 h 7.5937 q 0.7656,0 1.2656,0.51563 0.5157,0.5 0.5157,1.2656 0,0.75 -0.5157,1.25 -0.5,0.48438 -1.2656,0.48438 h -7.5937 q -0.7657,0 -1.2813,-0.5 -0.5,-0.51563 -0.5,-1.2969 0,-0.73437 0.5,-1.2188 0.5156,-0.5 1.2813,-0.5 z m 3.4375,-4 q 0.8281,0 1.3437,0.5625 0.5313,0.54688 0.5313,1.3906 v 14.234 q 0,0.45313 0.1718,0.75 0.1875,0.28125 0.4844,0.40625 0.3125,0.125 0.6563,0.125 0.3906,0 0.7031,-0.14062 0.3281,-0.14063 0.75,-0.14063 0.4375,0 0.7969,0.42188 0.375,0.40625 0.375,1.1406 0,0.89063 -0.9844,1.4688 -0.9688,0.57813 -2.0781,0.57813 -0.6719,0 -1.5,-0.10938 -0.8125,-0.10937 -1.5313,-0.54687 -0.7187,-0.4375 -1.2031,-1.3281 -0.4688,-0.89062 -0.4688,-2.4688 v -14.391 q 0,-0.84375 0.5469,-1.3906 0.5625,-0.5625 1.4063,-0.5625 z m 17.365,21.109 q -2.7187,0 -4.7187,-1.125 -2,-1.1406 -3.0781,-3.0938 -1.0625,-1.9531 -1.0625,-4.4062 0,-2.8906 1.1562,-4.9219 1.1719,-2.0312 3.0625,-3.1094 1.8906,-1.0938 4,-1.0938 1.6406,0 3.0938,0.67187 1.4531,0.67188 2.5625,1.8438 1.125,1.1562 1.7812,2.7031 0.6563,1.5312 0.6563,3.2656 -0.031,0.76563 -0.6094,1.25 -0.5625,0.46875 -1.3438,0.46875 h -12.219 l -0.9531,-3.2031 h 11.734 l -0.7031,0.64062 v -0.85937 q -0.062,-0.92188 -0.6562,-1.6562 -0.5938,-0.75 -1.4688,-1.1719 -0.875,-0.4375 -1.875,-0.4375 -0.9531,0 -1.7969,0.26563 -0.8281,0.25 -1.4375,0.85937 -0.6093,0.60938 -0.9687,1.6406 -0.3438,1.0156 -0.3438,2.5781 0,1.7344 0.7188,2.9375 0.7344,1.1875 1.8594,1.8125 1.1406,0.625 2.4218,0.625 1.1875,0 1.8907,-0.1875 0.7031,-0.1875 1.125,-0.45312 0.4375,-0.28125 0.7968,-0.46875 0.5782,-0.29688 1.0782,-0.29688 0.7031,0 1.1718,0.48438 0.4688,0.48437 0.4688,1.1094 0,0.875 -0.9063,1.5781 -0.8281,0.70312 -2.3281,1.2344 -1.5,0.51563 -3.1094,0.51563 z m 12.74,-0.3125 q -0.8281,0 -1.375,-0.5625 -0.5468,-0.5625 -0.5468,-1.3906 v -13.219 q 0,-0.82812 0.5468,-1.3906 0.5469,-0.5625 1.375,-0.5625 0.8282,0 1.375,0.5625 0.5469,0.5625 0.5469,1.3906 v 3.0156 l -0.2187,-2.1406 q 0.3437,-0.78125 0.9062,-1.3594 0.5625,-0.59375 1.2656,-1 0.7032,-0.40625 1.5,-0.59375 0.7969,-0.1875 1.5938,-0.1875 0.9687,0 1.625,0.54687 0.6562,0.53125 0.6562,1.2812 0,1.0469 -0.5468,1.5156 -0.5469,0.46875 -1.1875,0.46875 -0.6094,0 -1.1094,-0.21875 -0.4844,-0.23438 -1.125,-0.23438 -0.5781,0 -1.1719,0.28125 -0.5937,0.26563 -1.0937,0.84375 -0.4844,0.5625 -0.7969,1.4219 -0.2969,0.84375 -0.2969,2 v 7.5781 q 0,0.82813 -0.5469,1.3906 -0.5468,0.5625 -1.375,0.5625 z"
       clip-path="url(#clipPath14566)"
       fill="#595959"
       id="path36947" />
    <g
       transform="matrix(0.5,0,0,0.5,-480.56,-105.64)"
       fill-rule="evenodd"
       id="g36961">
      <path
         d="m 2155.3,570.07 v 73.732"
         clip-path="url(#clipPath14560)"
         fill="#000000"
         fill-opacity="0"
         id="path36949" />
      <path
         d="m 2155.3,570.07 v 49.732"
         clip-path="url(#clipPath14554)"
         stroke="#595959"
         stroke-linecap="butt"
         stroke-linejoin="round"
         stroke-width="4"
         id="path36951" />
      <path
         d="m 2148.7,619.81 6.6069,18.152 6.607,-18.152 z"
         clip-path="url(#clipPath14548)"
         fill="#595959"
         stroke="#595959"
         stroke-linecap="butt"
         stroke-width="4"
         id="path36953" />
      <path
         d="m 1423.5,940.3 27.89,-111.56 h 492.02 l -27.89,111.56 z"
         clip-path="url(#clipPath14542)"
         fill="#ffffff"
         id="path36955" />
      <path
         d="m 1423.5,940.3 27.89,-111.56 h 492.02 l -27.89,111.56 z"
         clip-path="url(#clipPath14536)"
         stroke="#2e79f3"
         stroke-linecap="butt"
         stroke-linejoin="round"
         stroke-width="4"
         id="path36957" />
      <path
         d="m 1547.8,828.74 h 271.15 V 940.3 H 1547.8 Z"
         clip-path="url(#clipPath14530)"
         fill="#000000"
         fill-opacity="0"
         id="path36959" />
    </g>
    <path
       transform="matrix(0.5,0,0,0.5,-480.56,-105.64)"
       d="m 1602.2,873.83 q 1.6719,0 3.125,0.96875 1.4531,0.95312 2.3437,2.5938 0.9063,1.625 0.9063,3.6406 0,1.9844 -0.9063,3.625 -0.8906,1.625 -2.3437,2.6094 -1.4531,0.96875 -3.125,0.96875 h -5.875 l 0.3125,-0.57813 v 6.625 q 0,0.82813 -0.5156,1.3906 -0.5,0.5625 -1.3438,0.5625 -0.7969,0 -1.3125,-0.5625 -0.5,-0.5625 -0.5,-1.3906 v -18.5 q 0,-0.82812 0.5469,-1.3906 0.5625,-0.5625 1.4062,-0.5625 z m 0,10.766 q 0.6094,0 1.1875,-0.51562 0.5781,-0.51563 0.9531,-1.3281 0.3906,-0.8125 0.3906,-1.7188 0,-0.92187 -0.3906,-1.7188 -0.375,-0.8125 -0.9531,-1.2969 -0.5781,-0.5 -1.1875,-0.5 h -5.9375 l 0.375,-0.57813 v 8.1562 l -0.3438,-0.5 z m 11.655,11.641 q -0.8281,0 -1.375,-0.5625 -0.5469,-0.5625 -0.5469,-1.3906 v -13.219 q 0,-0.82812 0.5469,-1.3906 0.5469,-0.56248 1.375,-0.5625 0.8281,-2e-5 1.375,0.5625 0.5469,0.56252 0.5469,1.3906 v 3.0156 l -0.2188,-2.1406 q 0.3438,-0.78125 0.9063,-1.3594 0.5625,-0.59375 1.2656,-1 0.7031,-0.40625 1.5,-0.59375 0.7969,-0.1875 1.5937,-0.1875 0.9688,0 1.625,0.54687 0.6563,0.53125 0.6563,1.2812 0,1.0469 -0.5469,1.5156 -0.5469,0.4687 -1.1875,0.46875 -0.6094,0 -1.1094,-0.21875 -0.4843,-0.23438 -1.125,-0.23438 -0.5781,0 -1.1718,0.28125 -0.5938,0.26563 -1.0938,0.84375 -0.4844,0.5625 -0.7969,1.4219 -0.2968,0.84375 -0.2968,2 v 7.5781 q 0,0.82813 -0.5469,1.3906 -0.5469,0.56247 -1.375,0.5625 z m 27.872,-8.5469 q 0,2.625 -1.1719,4.625 -1.1562,2 -3.125,3.125 -1.9687,1.1094 -4.4062,1.1094 -2.4375,0 -4.4063,-1.1094 -1.9687,-1.125 -3.1406,-3.125 -1.1563,-2 -1.1563,-4.625 0,-2.625 1.1563,-4.625 1.1719,-2 3.1406,-3.125 1.9688,-1.1406 4.4063,-1.1406 2.4375,0 4.4062,1.1406 1.9688,1.125 3.125,3.125 1.1719,2 1.1719,4.625 z m -3.8438,0 q 0,-1.625 -0.6562,-2.8281 -0.6563,-1.2031 -1.7656,-1.875 -1.0938,-0.67188 -2.4375,-0.67188 -1.3438,0 -2.4532,0.67188 -1.0937,0.67187 -1.75,1.875 -0.6562,1.2031 -0.6562,2.8281 0,1.6094 0.6562,2.8125 0.6563,1.1875 1.75,1.8594 1.1094,0.67187 2.4532,0.67187 1.3437,0 2.4375,-0.67187 1.1093,-0.67188 1.7656,-1.8594 0.6562,-1.2031 0.6562,-2.8125 z m 16.202,-8.8906 q 2.5469,0 3.7656,1.2344 1.2188,1.2344 1.6094,3.1719 l -0.5469,-0.28125 0.25,-0.51563 q 0.3907,-0.73437 1.1875,-1.5781 0.7969,-0.84375 1.9375,-1.4375 1.1407,-0.59375 2.5469,-0.59375 2.2969,0 3.5,1 1.2031,0.98437 1.6406,2.6406 0.4532,1.6406 0.4532,3.6562 v 8.1875 q 0,0.82813 -0.5469,1.3906 -0.5313,0.5625 -1.375,0.5625 -0.8281,0 -1.375,-0.5625 -0.5469,-0.5625 -0.5469,-1.3906 v -8.1875 q 0,-1.0625 -0.25,-1.9062 -0.25,-0.8437 -0.9219,-1.3594 -0.6718,-0.51563 -1.9218,-0.51563 -1.2188,0 -2.0938,0.51563 -0.8594,0.51562 -1.2969,1.3594 -0.4218,0.84375 -0.4218,1.9062 v 8.1875 q 0,0.82813 -0.5469,1.3906 -0.5469,0.56247 -1.375,0.5625 -0.8281,3e-5 -1.375,-0.5625 -0.5469,-0.56253 -0.5469,-1.3906 v -8.1875 q 0,-1.0625 -0.2656,-1.9062 -0.25,-0.84375 -0.9219,-1.3594 -0.6719,-0.51563 -1.9062,-0.51563 -1.2188,0 -2.0938,0.51563 -0.8594,0.51562 -1.2969,1.3594 -0.4218,0.84375 -0.4218,1.9062 v 8.1875 q 0,0.82813 -0.5469,1.3906 -0.5469,0.56247 -1.375,0.5625 -0.8281,3e-5 -1.375,-0.5625 -0.5469,-0.56253 -0.5469,-1.3906 v -13.219 q 0,-0.82812 0.5469,-1.3906 0.5469,-0.56248 1.375,-0.5625 0.8281,-2e-5 1.375,0.5625 0.5469,0.56252 0.5469,1.3906 v 1.375 l -0.4844,-0.0937 q 0.2969,-0.54687 0.7969,-1.1719 0.5156,-0.625 1.25,-1.1562 0.7343,-0.54688 1.625,-0.875 0.9062,-0.34375 1.9687,-0.34375 z m 28.567,17.75 q -2.7188,0 -4.7188,-1.125 -2,-1.1406 -3.0781,-3.0938 -1.0625,-1.9531 -1.0625,-4.4062 0,-2.8906 1.1562,-4.9219 1.1719,-2.0312 3.0625,-3.1094 1.8907,-1.0938 4,-1.0938 1.6407,0 3.0938,0.67187 1.4531,0.67188 2.5625,1.8438 1.125,1.1562 1.7812,2.7031 0.6563,1.5312 0.6563,3.2656 -0.031,0.76563 -0.6094,1.25 -0.5625,0.46875 -1.3437,0.46875 h -12.219 l -0.9531,-3.2031 h 11.734 l -0.7032,0.64062 v -0.85937 q -0.062,-0.92188 -0.6562,-1.6562 -0.5938,-0.75 -1.4688,-1.1719 -0.875,-0.4375 -1.875,-0.4375 -0.9531,0 -1.7968,0.26563 -0.8282,0.25 -1.4375,0.85937 -0.6094,0.60938 -0.9688,1.6406 -0.3437,1.0156 -0.3437,2.5781 0,1.7344 0.7187,2.9375 0.7344,1.1875 1.8594,1.8125 1.1406,0.625 2.4219,0.625 1.1875,0 1.8906,-0.1875 0.7031,-0.1875 1.125,-0.45312 0.4375,-0.28125 0.7969,-0.46875 0.5781,-0.29688 1.0781,-0.29688 0.7031,0 1.1719,0.48438 0.4687,0.48437 0.4687,1.1094 0,0.875 -0.9062,1.5781 -0.8282,0.70312 -2.3282,1.2344 -1.5,0.51563 -3.1093,0.51563 z m 11.005,-17.109 h 7.5937 q 0.7657,0 1.2657,0.51563 0.5156,0.5 0.5156,1.2656 0,0.75 -0.5156,1.25 -0.5,0.48438 -1.2657,0.48438 h -7.5937 q -0.7656,0 -1.2813,-0.5 -0.5,-0.51563 -0.5,-1.2969 0,-0.73437 0.5,-1.2188 0.5157,-0.5 1.2813,-0.5 z m 3.4375,-4 q 0.8281,0 1.3437,0.5625 0.5313,0.54688 0.5313,1.3906 v 14.234 q 0,0.45313 0.1719,0.75 0.1875,0.28125 0.4843,0.40625 0.3125,0.125 0.6563,0.125 0.3906,0 0.7031,-0.14062 0.3281,-0.14063 0.75,-0.14063 0.4375,0 0.7969,0.42188 0.375,0.40625 0.375,1.1406 0,0.89063 -0.9844,1.4688 -0.9687,0.57813 -2.0781,0.57813 -0.6719,0 -1.5,-0.10938 -0.8125,-0.10937 -1.5313,-0.54687 -0.7187,-0.4375 -1.2031,-1.3281 -0.4687,-0.89062 -0.4687,-2.4688 v -14.391 q 0,-0.84375 0.5468,-1.3906 0.5625,-0.5625 1.4063,-0.5625 z m 18.463,3.3594 q 2.2969,0 3.5,1 1.2031,0.98437 1.6406,2.6406 0.4531,1.6406 0.4531,3.6562 v 8.1875 q 0,0.82813 -0.5468,1.3906 -0.5469,0.5625 -1.375,0.5625 -0.8282,0 -1.375,-0.5625 -0.5469,-0.5625 -0.5469,-1.3906 v -8.1875 q 0,-1.0625 -0.2656,-1.9062 -0.25,-0.84375 -0.9219,-1.3594 -0.6719,-0.51563 -1.9063,-0.51563 -1.2187,0 -2.0937,0.51563 -0.8594,0.51562 -1.2969,1.3594 -0.4219,0.84375 -0.4219,1.9062 v 8.1875 q 0,0.82813 -0.5468,1.3906 -0.5469,0.5625 -1.375,0.5625 -0.8282,0 -1.375,-0.5625 -0.5469,-0.5625 -0.5469,-1.3906 v -19.781 q 0,-0.82812 0.5469,-1.3906 0.5468,-0.5625 1.375,-0.5625 0.8281,0 1.375,0.5625 0.5468,0.5625 0.5468,1.3906 v 7.9375 l -0.4843,-0.0937 q 0.2968,-0.54687 0.7968,-1.1719 0.5157,-0.625 1.25,-1.1562 0.7344,-0.54688 1.625,-0.875 0.9063,-0.34375 1.9688,-0.34375 z m 17.815,17.75 q -2.7188,0 -4.7188,-1.125 -2,-1.1406 -3.0781,-3.0938 -1.0625,-1.9531 -1.0625,-4.4062 0,-2.8906 1.1562,-4.9219 1.1719,-2.0312 3.0625,-3.1094 1.8907,-1.0938 4,-1.0938 1.6407,0 3.0938,0.67187 1.4531,0.67188 2.5625,1.8438 1.125,1.1562 1.7812,2.7031 0.6563,1.5312 0.6563,3.2656 -0.031,0.76563 -0.6094,1.25 -0.5625,0.46875 -1.3437,0.46875 h -12.219 l -0.9531,-3.2031 h 11.734 l -0.7032,0.64062 v -0.85937 q -0.062,-0.92188 -0.6562,-1.6562 -0.5938,-0.75 -1.4688,-1.1719 -0.875,-0.4375 -1.875,-0.4375 -0.9531,0 -1.7968,0.26563 -0.8282,0.25 -1.4375,0.85937 -0.6094,0.60938 -0.9688,1.6406 -0.3437,1.0156 -0.3437,2.5781 0,1.7344 0.7187,2.9375 0.7344,1.1875 1.8594,1.8125 1.1406,0.625 2.4219,0.625 1.1875,0 1.8906,-0.1875 0.7031,-0.1875 1.125,-0.45312 0.4375,-0.28125 0.7969,-0.46875 0.5781,-0.29688 1.0781,-0.29688 0.7031,0 1.1719,0.48438 0.4687,0.48437 0.4687,1.1094 0,0.875 -0.9062,1.5781 -0.8282,0.70312 -2.3282,1.2344 -1.5,0.51563 -3.1093,0.51563 z m 23.521,-17.438 q 0.8281,0 1.375,0.5625 0.5469,0.5625 0.5469,1.3906 v 8.125 q 0,3.4062 -1.8907,5.3906 -1.8906,1.9688 -5.4375,1.9688 -3.5468,0 -5.4218,-1.9688 -1.875,-1.9844 -1.875,-5.3906 v -8.125 q 0,-0.82812 0.5468,-1.3906 0.5469,-0.5625 1.375,-0.5625 0.8282,0 1.375,0.5625 0.5469,0.5625 0.5469,1.3906 v 8.125 q 0,1.9531 0.8594,2.9062 0.8594,0.9375 2.5937,0.9375 1.7657,0 2.625,-0.9375 0.8594,-0.95312 0.8594,-2.9062 v -8.125 q 0,-0.82812 0.5469,-1.3906 0.5469,-0.56248 1.375,-0.5625 z m 5.0966,14.469 q -0.3282,-0.45313 -0.2969,-1.1562 0.031,-0.70313 0.8281,-1.2188 0.5156,-0.3125 1.0938,-0.26563 0.5781,0.0469 1.125,0.59375 0.9218,0.92188 1.9375,1.4375 1.0312,0.51563 2.5781,0.51563 0.4687,-0.0312 1.0469,-0.14063 0.5781,-0.125 1,-0.51562 0.4375,-0.40625 0.4375,-1.2344 0,-0.70312 -0.4844,-1.1094 -0.4688,-0.42188 -1.2656,-0.70313 -0.7813,-0.29687 -1.7344,-0.5625 -0.9844,-0.28125 -2.0313,-0.625 -1.0468,-0.35937 -1.9062,-0.92187 -0.8594,-0.5625 -1.4063,-1.4844 -0.5468,-0.92187 -0.5468,-2.3438 0,-1.5938 0.8906,-2.7031 0.9062,-1.125 2.3281,-1.7344 1.4219,-0.60937 3,-0.60937 0.9844,0 2.0625,0.25 1.0938,0.23437 2.0781,0.76562 1,0.51563 1.6719,1.375 0.3594,0.48438 0.4219,1.1562 0.062,0.67188 -0.6094,1.2188 -0.4844,0.39063 -1.125,0.34375 -0.6406,-0.0625 -1.0469,-0.4375 -0.5468,-0.70312 -1.4687,-1.1094 -0.9063,-0.42188 -2.0938,-0.42188 -0.4687,0 -1.0312,0.10938 -0.5625,0.10937 -0.9844,0.48437 -0.4062,0.35938 -0.4062,1.1562 0,0.73438 0.4687,1.1719 0.4844,0.4375 1.2969,0.70312 0.8281,0.26563 1.75,0.53125 0.9531,0.25 1.9375,0.60938 1,0.34375 1.8281,0.92187 0.8438,0.57813 1.3438,1.5 0.5156,0.90625 0.5156,2.3125 0,1.625 -0.9531,2.7812 -0.9532,1.1562 -2.4063,1.75 -1.4375,0.57813 -2.9375,0.57813 -1.8906,0 -3.7812,-0.64063 -1.875,-0.65625 -3.125,-2.3281 z"
       clip-path="url(#clipPath14524)"
       fill="#595959"
       id="path36963" />
    <g
       transform="matrix(0.5,0,0,0.5,-480.56,-105.64)"
       fill-rule="evenodd"
       id="g36971">
      <path
         d="m 1423.5,1125.2 27.89,-111.56 h 492.02 l -27.89,111.56 z"
         clip-path="url(#clipPath14518)"
         fill="#ffffff"
         id="path36965" />
      <path
         d="m 1423.5,1125.2 27.89,-111.56 h 492.02 l -27.89,111.56 z"
         clip-path="url(#clipPath14512)"
         stroke="#2e79f3"
         stroke-linecap="butt"
         stroke-linejoin="round"
         stroke-width="4"
         id="path36967" />
      <path
         d="m 1547.8,1013.7 h 271.15 v 111.56 H 1547.8 Z"
         clip-path="url(#clipPath14506)"
         fill="#000000"
         fill-opacity="0"
         id="path36969" />
    </g>
    <path
       transform="matrix(0.5,0,0,0.5,-480.56,-105.64)"
       d="m 1653.8,1063.7 q 2.3594,0 3.5937,1 1.2344,0.9844 1.6875,2.6406 0.4688,1.6407 0.4688,3.6563 v 8.1875 q 0,0.8281 -0.5469,1.3906 -0.5312,0.5625 -1.3594,0.5625 -0.8437,0 -1.3906,-0.5625 -0.5312,-0.5625 -0.5312,-1.3906 v -8.1875 q 0,-1.0625 -0.2813,-1.9063 -0.2656,-0.8437 -0.9687,-1.3593 -0.7032,-0.5157 -2.0157,-0.5157 -1.2812,0 -2.1718,0.5157 -0.875,0.5156 -1.3438,1.3593 -0.4531,0.8438 -0.4531,1.9063 v 8.1875 q 0,0.8281 -0.5469,1.3906 -0.5469,0.5625 -1.375,0.5625 -0.8281,0 -1.375,-0.5625 -0.5469,-0.5625 -0.5469,-1.3906 v -13.219 q 0,-0.8281 0.5469,-1.3906 0.5469,-0.5625 1.375,-0.5625 0.8281,0 1.375,0.5625 0.5469,0.5625 0.5469,1.3906 v 1.375 l -0.4844,-0.094 q 0.2969,-0.5469 0.8281,-1.1719 0.5469,-0.625 1.2813,-1.1562 0.7344,-0.5469 1.6562,-0.875 0.9375,-0.3438 2.0313,-0.3438 z m 17.025,0 q 1.3437,0 2.4531,0.4219 1.125,0.4062 1.9375,1.0469 0.8281,0.6406 1.2812,1.2968 0.4688,0.6563 0.4688,1.1094 l -0.8281,0.4063 v -2.3282 q 0,-0.8281 0.5312,-1.3906 0.5469,-0.5625 1.3906,-0.5625 0.8282,0 1.375,0.5469 0.5469,0.5312 0.5469,1.4062 v 14.234 q 0,2.7813 -1.2031,4.4531 -1.2031,1.6875 -3.1563,2.4375 -1.9531,0.7657 -4.1875,0.7657 -0.6406,0 -1.6718,-0.1719 -1.0157,-0.1563 -1.9532,-0.3906 -0.9218,-0.2188 -1.4062,-0.4063 -0.9531,-0.4062 -1.3281,-1.0312 -0.3594,-0.625 -0.1407,-1.3282 0.2813,-0.9375 0.9219,-1.2812 0.6406,-0.3281 1.3438,-0.062 0.3281,0.094 1.0625,0.375 0.7343,0.2969 1.6093,0.5312 0.8907,0.2344 1.5625,0.2344 2.3907,0 3.5469,-0.9687 1.1563,-0.9532 1.1563,-2.6407 v -2.7812 l 0.375,0.2812 q 0,0.4219 -0.4375,1.0157 -0.4219,0.5937 -1.1719,1.1718 -0.75,0.5625 -1.7813,0.9688 -1.0156,0.3906 -2.1718,0.3906 -2.2657,0 -4.0938,-1.125 -1.8281,-1.1406 -2.8906,-3.1406 -1.0469,-2 -1.0469,-4.5938 0,-2.625 1.0469,-4.625 1.0625,-2 2.8437,-3.125 1.7969,-1.1406 4.0157,-1.1406 z m 0.6093,3.5156 q -1.4375,0 -2.5312,0.7032 -1.0938,0.7031 -1.7031,1.9218 -0.6094,1.2188 -0.6094,2.75 0,1.5 0.6094,2.7188 0.6093,1.2187 1.7031,1.9219 1.0937,0.7031 2.5312,0.7031 1.4688,0 2.5469,-0.7031 1.0938,-0.7032 1.7031,-1.9219 0.6094,-1.2188 0.6094,-2.7188 0,-1.5312 -0.6094,-2.75 -0.6093,-1.2187 -1.7031,-1.9218 -1.0781,-0.7032 -2.5469,-0.7032 z m 16.322,11.969 q 0,0.8281 -0.5469,1.3906 -0.5468,0.5625 -1.375,0.5625 -0.8437,0 -1.3906,-0.5625 -0.5312,-0.5625 -0.5312,-1.3906 v -13.219 q 0,-0.8281 0.5312,-1.3906 0.5469,-0.5625 1.3906,-0.5625 0.8282,0 1.375,0.5625 0.5469,0.5625 0.5469,1.3906 z m -1.9687,-17.25 q -1.0782,0 -1.5313,-0.3438 -0.4531,-0.3593 -0.4531,-1.25 v -0.6093 q 0,-0.9375 0.5,-1.2657 0.5,-0.3437 1.5156,-0.3437 1.125,0 1.5625,0.3594 0.4531,0.3593 0.4531,1.25 v 0.6093 q 0,0.9219 -0.4843,1.2657 -0.4688,0.3281 -1.5625,0.3281 z m 15.052,1.7656 q 2.3593,0 3.5937,1 1.2344,0.9844 1.6875,2.6406 0.4688,1.6407 0.4688,3.6563 v 8.1875 q 0,0.8281 -0.5469,1.3906 -0.5313,0.5625 -1.3594,0.5625 -0.8437,0 -1.3906,-0.5625 -0.5313,-0.5625 -0.5313,-1.3906 v -8.1875 q 0,-1.0625 -0.2812,-1.9063 -0.2656,-0.8437 -0.9688,-1.3593 -0.7031,-0.5157 -2.0156,-0.5157 -1.2812,0 -2.1719,0.5157 -0.875,0.5156 -1.3437,1.3593 -0.4531,0.8438 -0.4531,1.9063 v 8.1875 q 0,0.8281 -0.5469,1.3906 -0.5469,0.5625 -1.375,0.5625 -0.8281,0 -1.375,-0.5625 -0.5469,-0.5625 -0.5469,-1.3906 v -13.219 q 0,-0.8281 0.5469,-1.3906 0.5469,-0.5625 1.375,-0.5625 0.8281,0 1.375,0.5625 0.5469,0.5625 0.5469,1.3906 v 1.375 l -0.4844,-0.094 q 0.2969,-0.5469 0.8281,-1.1719 0.5469,-0.625 1.2813,-1.1562 0.7343,-0.5469 1.6562,-0.875 0.9375,-0.3438 2.0313,-0.3438 z m 10.275,0.3125 q 0.9219,0 1.5625,0.8125 l 10.688,13.266 q 0.4219,0.5157 0.4219,1.1563 0,0.7969 -0.6094,1.375 -0.6094,0.5781 -1.3437,0.5781 -0.9375,0 -1.5782,-0.8281 l -10.688,-13.281 q -0.4062,-0.5156 -0.4062,-1.1562 0,-0.8281 0.5781,-1.375 0.5938,-0.5469 1.375,-0.5469 z m 0.031,17.156 q -0.6407,0 -1.2657,-0.4844 -0.625,-0.5 -0.625,-1.2031 0,-0.6407 0.4844,-1.2188 l 4.8906,-5.9844 1.9219,3.2032 -3.875,4.8906 q -0.6094,0.7969 -1.5312,0.7969 z m 10.656,-17.156 q 0.7656,0 1.2813,0.5313 0.5312,0.5312 0.5312,1.2031 0,0.3125 -0.094,0.6406 -0.094,0.3125 -0.3438,0.6094 l -4.8437,5.8906 -2.0157,-2.7969 3.9375,-5.2031 q 0.6407,-0.875 1.5469,-0.875 z"
       clip-path="url(#clipPath14500)"
       fill="#595959"
       id="path36973" />
    <path
       transform="matrix(0.5,0,0,0.5,-480.56,-105.64)"
       d="m 1547.8,755.19 v 73.732"
       clip-path="url(#clipPath14494)"
       fill="#000000"
       fill-opacity="0"
       fill-rule="evenodd"
       id="path36975" />
    <g
       transform="translate(0,2.5902434e-4)"
       fill-rule="evenodd"
       stroke="#595959"
       stroke-linecap="butt"
       stroke-width="4"
       id="g36981">
      <path
         transform="matrix(0.5,0,0,0.5,-480.56,-105.64)"
         d="m 1547.8,755.19 v 49.732"
         clip-path="url(#clipPath14488)"
         stroke-linejoin="round"
         id="path36977" />
      <path
         transform="matrix(0.5,0,0,0.5,-480.56,-105.64)"
         d="m 1541.2,804.93 6.6069,18.152 6.607,-18.152 z"
         clip-path="url(#clipPath14482)"
         fill="#595959"
         id="path36979" />
    </g>
    <path
       transform="matrix(0.5,0,0,0.5,-480.56,-105.64)"
       d="m 1819,755.19 v 73.732"
       clip-path="url(#clipPath14476)"
       fill="#000000"
       fill-opacity="0"
       id="path36983"
       style="fill-rule:evenodd" />
    <path
       transform="matrix(0.5,0,0,0.5,-480.56,-105.64)"
       d="m 1819,755.19 v 49.732"
       clip-path="url(#clipPath14470)"
       stroke="#595959"
       stroke-linecap="butt"
       stroke-linejoin="round"
       stroke-width="4"
       id="path36985"
       style="fill-rule:evenodd" />
    <path
       transform="matrix(0.5,0,0,0.5,-480.56,-105.64)"
       d="m 1812.4,804.93 6.6069,18.152 6.607,-18.152 z"
       clip-path="url(#clipPath14464)"
       fill="#595959"
       stroke="#595959"
       stroke-linecap="butt"
       stroke-width="4"
       id="path36987"
       style="fill-rule:evenodd" />
    <path
       transform="matrix(0.5,0,0,0.5,-480.56,-105.64)"
       d="m 1547.8,940.3 v 73.732"
       clip-path="url(#clipPath14458)"
       fill="#000000"
       fill-opacity="0"
       id="path36989"
       style="fill-rule:evenodd" />
    <g
       id="g45386"
       transform="translate(50)">
      <path
         transform="matrix(0.5,0,0,0.5,-480.56,-105.64)"
         d="m 1547.8,964.3 v 49.732"
         clip-path="url(#clipPath14452)"
         stroke="#595959"
         stroke-linecap="butt"
         stroke-linejoin="round"
         stroke-width="4"
         id="path36991"
         style="fill-rule:evenodd" />
      <path
         transform="matrix(0.5,0,0,0.5,-480.56,-105.64)"
         d="m 1554.5,964.3 -6.6069,-18.152 -6.607,18.152 z"
         clip-path="url(#clipPath14446)"
         fill="#595959"
         stroke="#595959"
         stroke-linecap="butt"
         stroke-width="4"
         id="path36993"
         style="fill-rule:evenodd" />
    </g>
    <path
       transform="matrix(0.5,0,0,0.5,-480.56,-105.64)"
       d="m 1819,940.3 v 73.732"
       clip-path="url(#clipPath14440)"
       fill="#000000"
       fill-opacity="0"
       id="path36995"
       style="fill-rule:evenodd" />
    <g
       id="g45398"
       transform="translate(-50)">
      <path
         transform="matrix(0.5,0,0,0.5,-480.56,-105.64)"
         d="m 1819,940.3 v 49.732"
         clip-path="url(#clipPath14434)"
         stroke="#595959"
         stroke-linecap="butt"
         stroke-linejoin="round"
         stroke-width="4"
         id="path36997"
         style="fill-rule:evenodd" />
      <path
         transform="matrix(0.5,0,0,0.5,-480.56,-105.64)"
         d="m 1812.4,990.03 6.6069,18.152 6.607,-18.152 z"
         clip-path="url(#clipPath14428)"
         fill="#595959"
         stroke="#595959"
         stroke-linecap="butt"
         stroke-width="4"
         id="path36999"
         style="fill-rule:evenodd" />
    </g>
    <path
       transform="matrix(0.5,0,0,0.5,-480.56,-105.64)"
       d="m 1547.8,1125.2 v 73.732"
       clip-path="url(#clipPath14422)"
       fill="#000000"
       fill-opacity="0"
       id="path37001"
       style="fill-rule:evenodd" />
    <g
       id="g45390"
       transform="translate(50)">
      <path
         transform="matrix(0.5,0,0,0.5,-480.56,-105.64)"
         d="m 1547.8,1149.2 v 49.732"
         clip-path="url(#clipPath14416)"
         stroke="#595959"
         stroke-linecap="butt"
         stroke-linejoin="round"
         stroke-width="4"
         id="path37003"
         style="fill-rule:evenodd" />
      <path
         transform="matrix(0.5,0,0,0.5,-480.56,-105.64)"
         d="m 1554.5,1149.2 -6.6069,-18.152 -6.607,18.152 z"
         clip-path="url(#clipPath14410)"
         fill="#595959"
         stroke="#595959"
         stroke-linecap="butt"
         stroke-width="4"
         id="path37005"
         style="fill-rule:evenodd" />
    </g>
    <path
       transform="matrix(0.5,0,0,0.5,-480.56,-105.64)"
       d="m 1819,1125.2 v 73.732"
       clip-path="url(#clipPath14404)"
       fill="#000000"
       fill-opacity="0"
       id="path37007"
       style="fill-rule:evenodd" />
    <g
       id="g45394"
       transform="translate(-50)">
      <path
         transform="matrix(0.5,0,0,0.5,-480.56,-105.64)"
         d="m 1819,1125.2 v 49.732"
         clip-path="url(#clipPath14398)"
         stroke="#595959"
         stroke-linecap="butt"
         stroke-linejoin="round"
         stroke-width="4"
         id="path37009"
         style="fill-rule:evenodd" />
      <path
         transform="matrix(0.5,0,0,0.5,-480.56,-105.64)"
         d="m 1812.4,1175 6.6069,18.152 6.607,-18.152 z"
         clip-path="url(#clipPath14392)"
         fill="#595959"
         stroke="#595959"
         stroke-linecap="butt"
         stroke-width="4"
         id="path37011"
         style="fill-rule:evenodd" />
    </g>
    <path
       transform="matrix(0.5,0,0,0.5,-480.56,-105.64)"
       d="M 1046.4,317.75 V 568.21"
       clip-path="url(#clipPath14386)"
       fill="#000000"
       fill-opacity="0"
       id="path37013"
       style="fill-rule:evenodd" />
    <path
       transform="matrix(0.5,0,0,0.5,-480.56,-105.64)"
       d="M 1046.4,317.75 V 568.21"
       clip-path="url(#clipPath14380)"
       stroke="#232c34"
       stroke-dasharray="8, 6"
       stroke-linecap="butt"
       stroke-linejoin="round"
       stroke-width="2"
       id="path37015"
       style="fill-rule:evenodd" />
    <path
       transform="matrix(0.5,0,0,0.5,-480.56,-105.64)"
       d="m 1046.4,643.8 v 480.66"
       clip-path="url(#clipPath14374)"
       fill="#000000"
       fill-opacity="0"
       id="path37017"
       style="fill-rule:evenodd" />
    <path
       transform="matrix(0.5,0,0,0.5,-480.56,-105.64)"
       d="m 1046.4,643.8 v 480.66"
       clip-path="url(#clipPath14368)"
       stroke="#232c34"
       stroke-dasharray="8, 6"
       stroke-linecap="butt"
       stroke-linejoin="round"
       stroke-width="2"
       id="path37019"
       style="fill-rule:evenodd" />
    <g
       transform="matrix(0.5,0,0,0.5,-480.56,-105.64)"
       fill="#000000"
       id="g37031">
      <path
         d="M 981.12,1124.5 V 643.84 h 65.323 v 480.66 z"
         clip-path="url(#clipPath14362)"
         fill-opacity="0"
         fill-rule="evenodd"
         id="path37023" />
      <path
         d="m 1016.5,975.21 q -1.3906,0 -2.2343,1.125 -0.8438,1.1094 -1.3125,3.3594 -0.4844,2.25 -1.0938,3.5 -0.625,1.2344 -1.5156,1.8438 -0.8906,0.59375 -2.1563,0.59375 -2,0 -3.2968,-1.6719 -1.3125,-1.6719 -1.3125,-4.2812 0,-2.8281 1.4062,-4.5312 1.3906,-1.7188 3.6406,-1.7188 v 1.875 q -1.4843,0 -2.4687,1.25 -0.9844,1.2344 -0.9844,3.125 0,1.8438 0.8281,2.9688 0.8125,1.1094 2.125,1.1094 1.2657,0 1.9688,-0.92188 0.6875,-0.9375 1.2656,-3.3906 0.5781,-2.4688 1.2344,-3.6875 0.6562,-1.2344 1.5781,-1.8281 0.9219,-0.5937 2.2344,-0.59375 2.1406,0 3.4219,1.7344 1.2812,1.7188 1.2812,4.5 0,2.9531 -1.4219,4.7969 -1.4375,1.8281 -3.625,1.8281 v -1.875 q 1.6407,-0.10938 2.5625,-1.375 0.9063,-1.2812 0.9063,-3.375 0,-1.9531 -0.8594,-3.1562 -0.8594,-1.2031 -2.1719,-1.2031 z m -16.937,-8.9844 h 4.3282 v -3.5 h 1.5312 v 3.5 h 11.266 q 1.4063,0 2.0938,-0.5 0.6875,-0.51563 0.6875,-1.7031 0,-0.46875 -0.1563,-1.5156 l 1.5313,-0.0781 q 0.2656,0.73438 0.2656,2 0,1.9219 -1.1094,2.7969 -1.125,0.875 -3.2968,0.875 h -11.281 v 3.1094 h -1.5312 v -3.1094 h -4.3282 z m 21.234,-18.047 q -0.7969,0.28125 -2.3594,0.35938 1.2813,0.98437 1.9844,2.5156 0.6875,1.5156 0.6875,3.2188 0,2.4375 -1.3594,3.9531 -1.3593,1.5 -3.4375,1.5 -2.4687,0 -3.9062,-2.0469 -1.4375,-2.0625 -1.4375,-5.7344 v -3.3906 h -1.9219 q -1.8125,0 -2.8437,1.125 -1.0469,1.1094 -1.0469,3.25 0,1.9531 1,3.2344 1,1.2813 2.4062,1.2812 l -0.016,1.875 q -2.0156,0 -3.4844,-1.875 -1.4843,-1.875 -1.4843,-4.6094 0,-2.8281 1.4218,-4.4531 1.4063,-1.6406 3.9375,-1.6875 h 8 q 2.4532,0 3.6719,-0.51563 h 0.1875 z m -1.3437,5.875 q 0,-1.875 -0.9063,-3.3438 -0.9062,-1.4844 -2.4219,-2.1562 h -3.7187 v 3.3438 q 0.031,2.7969 1.0312,4.375 0.9844,1.5781 2.7188,1.5781 1.4219,0 2.3594,-1.0469 0.9375,-1.0625 0.9375,-2.75 z m -19.891,-15.25 h 4.3282 v -3.5 h 1.5312 v 3.5 h 11.266 q 1.4063,0 2.0938,-0.5 0.6875,-0.51562 0.6875,-1.7031 0,-0.46875 -0.1563,-1.5156 l 1.5313,-0.0781 q 0.2656,0.73437 0.2656,2 0,1.9219 -1.1094,2.7969 -1.125,0.875 -3.2968,0.875 h -11.281 v 3.1094 h -1.5312 v -3.1094 h -4.3282 z m 19.094,-18.25 q 2.4531,1.6875 2.4531,5.3906 0,2.7031 -1.5625,4.1094 -1.5781,1.4062 -4.6562,1.4375 h -11 v -1.8594 h 10.766 q 4.8281,0 4.8281,-3.9062 0,-4.0625 -3.3594,-5.1406 h -12.234 v -1.875 h 16.906 v 1.8125 z m -2.1563,-16.828 q -1.3906,0 -2.2343,1.125 -0.8438,1.1094 -1.3125,3.3594 -0.4844,2.25 -1.0938,3.5 -0.625,1.2344 -1.5156,1.8438 -0.8906,0.59375 -2.1563,0.59375 -2,0 -3.2968,-1.6719 -1.3125,-1.6719 -1.3125,-4.2812 0,-2.8281 1.4062,-4.5312 1.3906,-1.7188 3.6406,-1.7188 v 1.875 q -1.4843,0 -2.4687,1.25 -0.9844,1.2344 -0.9844,3.125 0,1.8438 0.8281,2.9688 0.8125,1.1094 2.125,1.1094 1.2657,0 1.9688,-0.92187 0.6875,-0.9375 1.2656,-3.3906 0.5781,-2.4688 1.2344,-3.6875 0.6562,-1.2344 1.5781,-1.8281 0.9219,-0.5937 2.2344,-0.59375 2.1406,0 3.4219,1.7344 1.2812,1.7188 1.2812,4.5 0,2.9531 -1.4219,4.7969 -1.4375,1.8281 -3.625,1.8281 v -1.875 q 1.6407,-0.10937 2.5625,-1.375 0.9063,-1.2812 0.9063,-3.375 0,-1.9531 -0.8594,-3.1562 -0.8594,-1.2031 -2.1719,-1.2031 z m -11.016,-21.672 q -0.1094,0.59375 -0.1094,1.2656 0,1.75 0.9844,2.9688 0.9688,1.2031 2.8281,1.7188 h 11.609 v 1.8594 h -16.906 v -1.8281 l 2.6875,-0.0312 q -3,-1.4844 -3,-4.7656 0,-0.78125 0.2031,-1.2344 z m 15.625,-9.2031 q 0,2.1562 -1.0625,3.9062 -1.0625,1.7344 -2.9531,2.7031 -1.9063,0.96875 -4.2656,0.96875 h -0.6719 q -2.4375,0 -4.3906,-0.9375 -1.9532,-0.95312 -3.0625,-2.6406 -1.125,-1.6875 -1.125,-3.6562 0,-3.0781 2.1093,-4.875 2.0938,-1.8125 5.7344,-1.8125 h 1.0469 v 12.062 h 0.3594 q 2.875,0 4.7968,-1.6406 1.9063,-1.6562 1.9063,-4.1562 0,-1.5 -0.5469,-2.6406 -0.5469,-1.1562 -1.75,-2.0938 l 0.8906,-1.1719 q 2.9844,2.0625 2.9844,5.9844 z m -15.938,0.34375 q 0,2.1094 1.5469,3.5625 1.5469,1.4375 4.1562,1.75 v -10.141 h -0.2031 q -2.4375,0.0781 -3.9687,1.3906 -1.5313,1.3125 -1.5313,3.4375 z m 7.3438,-23.922 q 3.9531,0 6.2812,1.75 2.3125,1.75 2.3125,4.6875 0,3.4688 -2.4375,5.3125 h 8.625 v 1.8594 h -23.406 v -1.7344 l 2.3906,-0.0937 q -2.7031,-1.8281 -2.7031,-5.2969 0,-3.0312 2.2968,-4.75 2.2969,-1.7344 6.375,-1.7344 z m -0.3282,1.875 q -3.2343,0 -5.1093,1.3281 -1.875,1.3281 -1.875,3.7031 0,1.7188 0.8281,2.9531 0.8281,1.2344 2.4062,1.8906 h 8.1094 q 1.4531,-0.67187 2.2188,-1.9219 0.7656,-1.25 0.7656,-2.9531 0,-2.3594 -1.875,-3.6719 -1.8906,-1.3281 -5.4688,-1.3281 z m -0.094,-4.9844 q -2.4375,0 -4.3906,-0.9375 -1.9532,-0.95313 -3.0313,-2.6719 -1.0937,-1.7344 -1.0937,-3.9219 0,-3.375 2.375,-5.4688 2.3593,-2.0938 6.2656,-2.0938 h 0.3906 q 2.4531,0 4.4219,0.95312 1.9531,0.9375 3.0156,2.6562 1.0625,1.7187 1.0625,3.9219 0,3.3594 -2.3594,5.4688 -2.375,2.0938 -6.2812,2.0938 z m 0.5156,-1.875 q 3.0313,0 4.9844,-1.5625 1.9375,-1.5781 1.9375,-4.125 0,-2.5312 -1.9375,-4.0938 -1.9531,-1.5781 -5.1406,-1.5781 h -0.3594 q -1.9375,0 -3.5469,0.71875 -1.6094,0.71875 -2.4844,2.0156 -0.8906,1.2969 -0.8906,2.9688 0,2.5 1.9688,4.0781 1.9531,1.5781 5.125,1.5781 z m -7.125,-24.891 q -0.1094,0.59375 -0.1094,1.2656 0,1.75 0.9844,2.9688 0.9688,1.2031 2.8281,1.7188 h 11.609 v 1.8594 h -16.906 v -1.8281 l 2.6875,-0.0312 q -3,-1.4844 -3,-4.7656 0,-0.78125 0.2031,-1.2344 z m -5.9218,-6.6406 h 4.3282 v -3.5 h 1.5312 v 3.5 h 11.266 q 1.4063,0 2.0938,-0.5 0.6875,-0.51563 0.6875,-1.7031 0,-0.46875 -0.1563,-1.5156 l 1.5313,-0.0781 q 0.2656,0.73438 0.2656,2 0,1.9219 -1.1094,2.7969 -1.125,0.875 -3.2968,0.875 h -11.281 v 3.1094 h -1.5312 v -3.1094 h -4.3282 z m 21.547,-13.922 q 0,2.1562 -1.0625,3.9062 -1.0625,1.7344 -2.9531,2.7031 -1.9063,0.96875 -4.2656,0.96875 h -0.6719 q -2.4375,0 -4.3906,-0.9375 -1.9532,-0.95313 -3.0625,-2.6406 -1.125,-1.6875 -1.125,-3.6562 0,-3.0781 2.1093,-4.875 2.0938,-1.8125 5.7344,-1.8125 h 1.0469 v 12.062 h 0.3594 q 2.875,0 4.7968,-1.6406 1.9063,-1.6562 1.9063,-4.1562 0,-1.5 -0.5469,-2.6406 -0.5469,-1.1562 -1.75,-2.0938 l 0.8906,-1.1719 q 2.9844,2.0625 2.9844,5.9844 z m -15.938,0.34375 q 0,2.1094 1.5469,3.5625 1.5469,1.4375 4.1562,1.75 v -10.141 h -0.2031 q -2.4375,0.0781 -3.9687,1.3906 -1.5313,1.3125 -1.5313,3.4375 z m 0.3125,-18.141 q -0.1094,0.59375 -0.1094,1.2656 0,1.75 0.9844,2.9688 0.9688,1.2031 2.8281,1.7188 h 11.609 v 1.8594 h -16.906 v -1.8281 l 2.6875,-0.0312 q -3,-1.4844 -3,-4.7656 0,-0.78125 0.2031,-1.2344 z"
         clip-path="url(#clipPath14356)"
         id="path37025" />
      <path
         d="M 981.12,564.81 V 311.55 h 65.323 v 253.26 z"
         clip-path="url(#clipPath14350)"
         fill-opacity="0"
         fill-rule="evenodd"
         id="path37027" />
      <path
         d="m 1012.2,501.46 q -3.9375,0 -6.2656,-1.75 -2.3437,-1.7656 -2.3437,-4.7812 0,-3.4219 2.7031,-5.2188 h -9.4844 v -1.8594 h 24 v 1.75 l -2.25,0.0781 q 2.5625,1.7969 2.5625,5.2812 0,2.9219 -2.3437,4.7188 -2.3594,1.7812 -6.3594,1.7812 z m 0.3282,-1.8906 q 3.2343,0 5.1093,-1.2969 1.8594,-1.2969 1.8594,-3.6562 0,-3.4531 -3.0469,-4.9062 h -7.9375 q -3.2968,1.4531 -3.2968,4.875 0,2.3594 1.8593,3.6719 1.8438,1.3125 5.4532,1.3125 z m 8.2812,-27.312 q -0.7969,0.28125 -2.3594,0.35938 1.2813,0.98437 1.9844,2.5156 0.6875,1.5156 0.6875,3.2188 0,2.4375 -1.3594,3.9531 -1.3593,1.5 -3.4375,1.5 -2.4687,0 -3.9062,-2.0469 -1.4375,-2.0625 -1.4375,-5.7344 v -3.3906 h -1.9219 q -1.8125,0 -2.8437,1.125 -1.0469,1.1094 -1.0469,3.25 0,1.9531 1,3.2344 1,1.2813 2.4062,1.2812 l -0.016,1.875 q -2.0156,0 -3.4844,-1.875 -1.4843,-1.875 -1.4843,-4.6094 0,-2.8281 1.4218,-4.4531 1.4063,-1.6406 3.9375,-1.6875 h 8 q 2.4532,0 3.6719,-0.51563 h 0.1875 z m -1.3437,5.875 q 0,-1.875 -0.9063,-3.3438 -0.9062,-1.4844 -2.4219,-2.1562 h -3.7187 v 3.3438 q 0.031,2.7969 1.0312,4.375 0.9844,1.5781 2.7188,1.5781 1.4219,0 2.3594,-1.0469 0.9375,-1.0625 0.9375,-2.75 z m -19.891,-15.25 h 4.3282 v -3.5 h 1.5312 v 3.5 h 11.266 q 1.4063,0 2.0938,-0.5 0.6875,-0.51562 0.6875,-1.7031 0,-0.46875 -0.1563,-1.5156 l 1.5313,-0.0781 q 0.2656,0.73437 0.2656,2 0,1.9219 -1.1094,2.7969 -1.125,0.875 -3.2968,0.875 h -11.281 v 3.1094 h -1.5312 v -3.1094 h -4.3282 z m 21.234,-18.047 q -0.7969,0.28125 -2.3594,0.35937 1.2813,0.98438 1.9844,2.5156 0.6875,1.5156 0.6875,3.2188 0,2.4375 -1.3594,3.9531 -1.3593,1.5 -3.4375,1.5 -2.4687,0 -3.9062,-2.0469 -1.4375,-2.0625 -1.4375,-5.7344 v -3.3906 h -1.9219 q -1.8125,0 -2.8437,1.125 -1.0469,1.1094 -1.0469,3.25 0,1.9531 1,3.2344 1,1.2813 2.4062,1.2812 l -0.016,1.875 q -2.0156,0 -3.4844,-1.875 -1.4843,-1.875 -1.4843,-4.6094 0,-2.8281 1.4218,-4.4531 1.4063,-1.6406 3.9375,-1.6875 h 8 q 2.4532,0 3.6719,-0.51562 h 0.1875 z m -1.3437,5.875 q 0,-1.875 -0.9063,-3.3438 -0.9062,-1.4844 -2.4219,-2.1562 h -3.7187 v 3.3438 q 0.031,2.7969 1.0312,4.375 0.9844,1.5781 2.7188,1.5781 1.4219,0 2.3594,-1.0469 0.9375,-1.0625 0.9375,-2.75 z m -6.9375,-25.953 q 3.9531,0 6.2812,1.75 2.3125,1.75 2.3125,4.7031 0,3.5312 -2.625,5.3438 l 2.3125,0.0781 v 1.75 h -24 v -1.8594 h 9.5469 q -2.7656,-1.7812 -2.7656,-5.2812 0,-3 2.2968,-4.7344 2.2813,-1.75 6.3594,-1.75 z m -0.3282,1.875 q -3.3437,0 -5.1562,1.2969 -1.8281,1.2969 -1.8281,3.6562 0,1.7969 0.8906,3.0469 0.875,1.25 2.5781,1.8906 h 7.625 q 3.1875,-1.4062 3.1875,-4.9688 0,-2.3125 -1.8281,-3.6094 -1.8281,-1.3125 -5.4688,-1.3125 z m 8.6094,-16.672 q -0.7969,0.28125 -2.3594,0.35938 1.2813,0.98437 1.9844,2.5156 0.6875,1.5156 0.6875,3.2188 0,2.4375 -1.3594,3.9531 -1.3593,1.5 -3.4375,1.5 -2.4687,0 -3.9062,-2.0469 -1.4375,-2.0625 -1.4375,-5.7344 v -3.3906 h -1.9219 q -1.8125,0 -2.8437,1.125 -1.0469,1.1094 -1.0469,3.25 0,1.9531 1,3.2344 1,1.2813 2.4062,1.2812 l -0.016,1.875 q -2.0156,0 -3.4844,-1.875 -1.4843,-1.875 -1.4843,-4.6094 0,-2.8281 1.4218,-4.4531 1.4063,-1.6406 3.9375,-1.6875 h 8 q 2.4532,0 3.6719,-0.51563 h 0.1875 z m -1.3437,5.875 q 0,-1.875 -0.9063,-3.3438 -0.9062,-1.4844 -2.4219,-2.1562 h -3.7187 v 3.3438 q 0.031,2.7969 1.0312,4.375 0.9844,1.5781 2.7188,1.5781 1.4219,0 2.3594,-1.0469 0.9375,-1.0625 0.9375,-2.75 z m -2.9532,-22.469 q -1.3906,0 -2.2343,1.125 -0.8438,1.1094 -1.3125,3.3594 -0.4844,2.25 -1.0938,3.5 -0.625,1.2344 -1.5156,1.8438 -0.8906,0.59375 -2.1563,0.59375 -2,0 -3.2968,-1.6719 -1.3125,-1.6719 -1.3125,-4.2812 0,-2.8281 1.4062,-4.5312 1.3906,-1.7188 3.6406,-1.7188 v 1.875 q -1.4843,0 -2.4687,1.25 -0.9844,1.2344 -0.9844,3.125 0,1.8438 0.8281,2.9688 0.8125,1.1094 2.125,1.1094 1.2657,0 1.9688,-0.92188 0.6875,-0.9375 1.2656,-3.3906 0.5781,-2.4688 1.2344,-3.6875 0.6562,-1.2344 1.5781,-1.8281 0.9219,-0.5937 2.2344,-0.59375 2.1406,0 3.4219,1.7344 1.2812,1.7188 1.2812,4.5 0,2.9531 -1.4219,4.7969 -1.4375,1.8281 -3.625,1.8281 v -1.875 q 1.6407,-0.10938 2.5625,-1.375 0.9063,-1.2812 0.9063,-3.375 0,-1.9531 -0.8594,-3.1562 -0.8594,-1.2031 -2.1719,-1.2031 z m 4.6094,-12.625 q 0,2.1562 -1.0625,3.9062 -1.0625,1.7344 -2.9531,2.7031 -1.9063,0.96875 -4.2656,0.96875 h -0.6719 q -2.4375,0 -4.3906,-0.9375 -1.9532,-0.95313 -3.0625,-2.6406 -1.125,-1.6875 -1.125,-3.6562 0,-3.0781 2.1093,-4.875 2.0938,-1.8125 5.7344,-1.8125 h 1.0469 v 12.062 h 0.3594 q 2.875,0 4.7968,-1.6406 1.9063,-1.6562 1.9063,-4.1562 0,-1.5 -0.5469,-2.6406 -0.5469,-1.1562 -1.75,-2.0938 l 0.8906,-1.1719 q 2.9844,2.0625 2.9844,5.9844 z m -15.938,0.34375 q 0,2.1094 1.5469,3.5625 1.5469,1.4375 4.1562,1.75 v -10.141 h -0.2031 q -2.4375,0.0781 -3.9687,1.3906 -1.5313,1.3125 -1.5313,3.4375 z"
         clip-path="url(#clipPath14344)"
         id="path37029" />
    </g>
  </g>
</svg>
