<svg width="660" height="380" fill="none" stroke-linecap="square" stroke-miterlimit="10" version="1.1" viewBox="0 0 660 380" xmlns="http://www.w3.org/2000/svg">
 <defs>
  <clipPath id="clipPath65333-6-8">
   <path d="m0 0h2560v1440h-2560z"/>
  </clipPath>
  <clipPath id="clipPath65327-1-2">
   <path d="m0 0h2560v1440h-2560z"/>
  </clipPath>
  <clipPath id="clipPath65321-0-3">
   <path d="m0 0h2560v1440h-2560z"/>
  </clipPath>
  <clipPath id="clipPath65315-6-9">
   <path d="m0 0h2560v1440h-2560z"/>
  </clipPath>
  <clipPath id="clipPath65309-2-8">
   <path d="m0 0h2560v1440h-2560z"/>
  </clipPath>
  <clipPath id="clipPath65483-3-3">
   <path d="m0 0h2560v1440h-2560z"/>
  </clipPath>
 </defs>
 <g transform="matrix(.5 0 0 .5 -99.117 -165.59)">
  <path transform="matrix(.99999 0 0 .5 -1061.7 351.19)" d="m1280 0h1280v1440h-1280z" clip-path="url(#clipPath65483-3-3)" fill="#0077fc" fill-rule="evenodd"/>
  <g transform="translate(-487.44 -3.9372)" fill="#fff">
   <path transform="translate(-524.53 11.663)" d="m1501.3 494.13q0 2.8125-1.1719 4.8281-1.1718 2.0156-3.0781 3.2969-1.875 1.2969-4.2969 1.9219-2.4218 0.625-4.9218 0.625-3.0157 0-5.6094-0.79687-2.5938-0.8125-4.5938-2.4062-1.9843-1.5625-3.2812-3.8906-1.2813-2.3281-1.6406-5.4062h-4.7188q0.1563 3.6719 1.5938 6.5781 1.4531 2.9062 3.9531 5.0156 2.7656 2.5 6.5312 3.7812 3.7813 1.2656 7.7657 1.2656 3.3593 0 6.6406-0.9375 3.2812-0.9375 5.8906-2.7812 2.5781-1.8281 4.1719-4.625 1.6094-2.7969 1.6094-6.5469t-1.5782-6.5312q-1.5781-2.7969-4.0781-4.7188-2.625-2.0312-5.75-3.3594-3.125-1.3281-6.25-2.2969-2.2656-0.67187-4.75-1.5781-2.4687-0.92188-4.5469-2.3281-2.0625-1.375-3.375-3.3281-1.3125-1.9531-1.3437-4.7969 0-2.6562 1.1406-4.6094 1.1563-1.9531 3.0313-3.2812 1.875-1.2969 4.2031-1.9375 2.3281-0.64063 4.7031-0.64063 2.8594 0 5.2188 0.90625 2.3593 0.89063 4.0781 2.5312 1.7656 1.6406 2.8125 3.9219 1.0625 2.2812 1.375 5.0625h4.7656q-0.125-3.75-1.625-6.8125-1.5-3.0781-3.9687-5.2188-2.5-2.1562-5.7657-3.3438-3.25-1.1875-6.8906-1.1875-3.2344 0-6.4375 0.95312-3.2031 0.95313-5.75 2.7969-2.5312 1.875-4.125 4.625-1.5781 2.75-1.5781 6.3125 0.047 3.8594 1.7187 6.5156 1.6875 2.6562 4.3438 4.5781 2.4219 1.75 5.4219 3 3.0156 1.25 5.8593 2.1562 2.3907 0.73437 4.9219 1.7188 2.5469 0.96875 4.6563 2.375 2.0625 1.4531 3.4062 3.5469 1.3594 2.0781 1.3125 5.0469zm32.508-39.062h-4.7656v10.828h-11.766v3.8594h11.766v26.484q0.031 3.4844 1.0312 5.8906 1 2.3906 2.75 3.9219 1.7657 1.5156 4.1563 2.2031 2.4062 0.6875 5.2187 0.6875 1.375 0 2.75-0.0937 1.3907-0.0937 2.6875-0.29688 1.0157-0.15625 1.9219-0.40625 0.9219-0.26562 1.6719-0.57812l-0.75-3.5469q-0.5781 0.0781-1.3594 0.21875-0.7812 0.125-1.6406 0.25-1.0938 0.15625-2.2344 0.23438-1.125 0.0781-2.2656 0.0781-1.9063 0-3.5781-0.42187-1.6563-0.4375-2.9063-1.4531-1.25-0.98437-1.9687-2.5938-0.7188-1.625-0.7657-4.0938v-26.484h15.672v-3.8594h-15.672zm61.445 53.094h5v-0.51563q-0.5469-1.9062-0.9219-4.0781-0.375-2.1719-0.4062-4.2812v-20.422q-0.047-3.4375-1.2969-6.0156-1.25-2.5781-3.4375-4.3438-2.1875-1.6719-5.125-2.5312-2.9219-0.85938-6.2812-0.85938-3.3594 0-6.3125 0.9375-2.9375 0.9375-5.1719 2.5781-2.2188 1.6719-3.5469 3.9375-1.3281 2.2656-1.4531 4.9688l4.6875 0.0312q0.078-1.9844 1.0469-3.5625 0.9843-1.5938 2.5937-2.6875 1.5625-1.0938 3.625-1.6719 2.0781-0.59375 4.3438-0.59375 2.4531 0 4.5781 0.65625 2.1406 0.64063 3.7031 1.8438 1.5625 1.2188 2.4531 3.0312 0.9063 1.8125 0.9375 4.2031v4.7656h-9.1718q-3.9532 0-7.5469 0.71875-3.5938 0.71875-6.2813 2.3281-2.7343 1.5938-4.3593 4.1562t-1.625 6.1875q0 2.7031 1.0937 4.9375 1.0938 2.2188 2.9688 3.7344 1.875 1.5625 4.4531 2.4531 2.5781 0.875 5.5156 0.875 2.3438 0 4.5-0.5 2.1719-0.48438 4.125-1.4219 1.9219-0.89062 3.5313-2.2031 1.625-1.3125 2.8437-2.9062 0.078 1.6406 0.2813 3.25 0.2187 1.5938 0.6562 3zm-15.391-3.4062q-2.0781 0-3.875-0.57813-1.7969-0.59375-3.125-1.6406-1.3594-1.0625-2.125-2.5938-0.7656-1.5469-0.7656-3.4219-0.031-2.3906 1.0156-4.0312 1.0625-1.6406 2.8594-2.7656 2.1875-1.4062 5.3125-1.9531 3.125-0.54687 6.5937-0.59375h8.5156v9.2656q-0.8906 1.875-2.3437 3.4219-1.4375 1.5312-3.3125 2.625t-4.1094 1.6875q-2.2187 0.57813-4.6406 0.57813zm49.961-49.688h-4.7656v10.828h-11.766v3.8594h11.766v26.484q0.031 3.4844 1.0313 5.8906 1 2.3906 2.75 3.9219 1.7656 1.5156 4.1562 2.2031 2.4063 0.6875 5.2188 0.6875 1.375 0 2.75-0.0937 1.3906-0.0937 2.6875-0.29688 1.0156-0.15625 1.9218-0.40625 0.9219-0.26562 1.6719-0.57812l-0.75-3.5469q-0.5781 0.0781-1.3594 0.21875-0.7812 0.125-1.6406 0.25-1.0937 0.15625-2.2344 0.23438-1.125 0.0781-2.2656 0.0781-1.9062 0-3.5781-0.42187-1.6563-0.4375-2.9063-1.4531-1.25-0.98437-1.9687-2.5938-0.7188-1.625-0.7656-4.0938v-26.484h15.672v-3.8594h-15.672zm61.008 53.094h4.375v-42.266h-4.7187v29.766q-0.5469 2.0625-1.625 3.7344-1.0781 1.6562-2.6406 2.7812-1.6719 1.2969-3.9063 1.9844-2.2187 0.67187-4.9531 0.67187-2.625 0-4.5469-0.8125-1.9062-0.82812-3.1875-2.4688-1.2969-1.6406-1.9219-4.0312-0.625-2.4062-0.625-5.5781v-26.047h-4.6875v25.969q0.047 4.0625 0.9844 7.25 0.9375 3.1875 2.7656 5.3281 1.8438 2.1875 4.5157 3.3438 2.6718 1.1562 6.1875 1.1562 4.7656 0 8.2343-1.9688 3.4844-1.9844 5.5625-5.5zm48.867-10.781q0 1.4844-0.6406 2.7031-0.6406 1.2031-1.8125 2.1406-1.7969 1.3594-4.2656 2.0469-2.4531 0.6875-5.2344 0.6875-2.1094 0-4.3125-0.40625-2.2031-0.42187-4.0469-1.4375-1.8281-1.0156-3.1093-2.6719-1.2657-1.6562-1.5-4.1562h-4.6875q0.125 2.8906 1.5 5.2344 1.3906 2.3438 3.8125 3.9844 2.3437 1.5938 5.5468 2.5156 3.2032 0.92188 6.7969 0.92188 3.3281 0 6.5313-0.8125 3.2031-0.82813 5.625-2.5469 1.9843-1.4531 3.2343-3.5781t1.25-4.8594q0-2.8906-1.3125-4.9375-1.2968-2.0625-3.4843-3.5-2.2344-1.4531-5.1719-2.3906-2.9219-0.9375-6.125-1.6406-2.5-0.5-4.7813-1.1406-2.2812-0.65625-3.9218-1.625-1.6407-0.90625-2.5-2.25-0.8594-1.3438-0.8594-3.1875 0-1.8281 0.9687-3.2188 0.9844-1.3906 2.5469-2.2812 1.5625-0.9375 3.5625-1.3906 2.0156-0.45312 4.1719-0.45312 2.2656 0 4.3906 0.59375 2.125 0.57812 3.8125 1.6719 1.6406 1.0938 2.6719 2.7031 1.0312 1.5938 1.0781 3.625h4.7188q-0.1094-3-1.4688-5.3438-1.3437-2.3438-3.5625-3.9844-2.2344-1.6094-5.2187-2.4375-2.9844-0.84375-6.4219-0.84375-3.0469 0-5.9219 0.78125t-5.0156 2.1875q-2.2656 1.5156-3.625 3.6719-1.3438 2.1406-1.3438 4.875 0 2.8906 1.3438 4.9062 1.3594 2.0156 3.5469 3.2969 2.3437 1.375 5.0312 2.2344 2.7031 0.85937 5.9375 1.5156 2.5781 0.54688 4.9531 1.3281 2.3907 0.78125 4.0782 1.875 1.5156 0.98437 2.375 2.375 0.8593 1.375 0.8593 3.2188zm85.625-13.016 12.469 23.797h4.875l0.047-0.51563-13.016-24.375q2.4688-1.0156 4.5157-2.4531 2.0468-1.4531 3.5312-3.3281 1.4844-1.9062 2.3281-4.25 0.8438-2.3438 0.8438-5.2344 0-3.9844-1.4375-7.0625-1.4219-3.0938-3.875-5.2031-2.5-2.1562-5.8281-3.2656-3.3125-1.1094-7.0625-1.1875h-16.062v56.875h4.6093v-23.797zm-14.062-4.0156v-25.047h11.453q2.8437 0.0469 5.3281 0.90625 2.4844 0.85938 4.2812 2.4531 1.8282 1.6406 2.8594 3.9844 1.0469 2.3438 1.0469 5.3125 0 2.7344-0.9688 4.9844-0.9531 2.25-2.625 3.8438-1.7187 1.6406-4.0156 2.5781-2.2812 0.9375-4.9375 0.98438zm61.024 28.594q5.2656 0 9.25-2.0625 3.9844-2.0781 6.4062-5.4375l-2.9687-2.2656q-2.2656 2.8125-5.4375 4.2969-3.1563 1.4844-7.0625 1.4844-3.3906-0.0469-6.1719-1.375-2.7656-1.3281-4.7656-3.625-1.9531-2.1875-3.0625-5.0781-1.1094-2.8906-1.2656-6.25v-1.2969h31.641v-2.8438q0-4.0312-1.1563-7.5625-1.1562-3.5312-3.3437-6.1875-2.2188-2.625-5.4844-4.125t-7.4375-1.5q-3.9844 0-7.4062 1.6406-3.4219 1.6406-5.9532 4.5312-2.5781 2.8906-4.0468 6.7969-1.4688 3.9062-1.4688 8.4375v1.6719q0 4.2656 1.4375 8.0312 1.4531 3.7656 4.0781 6.625 2.5782 2.8125 6.2032 4.4531 3.6406 1.6406 8.0156 1.6406zm-0.8594-39.812q3 0 5.3438 1.1562 2.3437 1.1562 3.9843 3.0625 1.6094 1.9219 2.5157 4.4688 0.9218 2.5312 0.9218 5.0625v0.4375h-26.75q0.3907-3.0469 1.5625-5.6406 1.1719-2.6094 3-4.5156 1.7969-1.875 4.1719-2.9531 2.3906-1.0781 5.25-1.0781zm30.977 55.281h4.6406v-21.375q0.9375 1.25 2.1719 2.2656 1.2343 1.0156 2.6406 1.7188 1.75 0.9375 3.7656 1.4219 2.0156 0.5 4.2031 0.5 4.25 0 7.375-1.7969 3.125-1.7969 5.1563-4.7656 2-2.9688 3.0312-6.875 1.0313-3.9062 1.0313-8.0469v-0.82812q-0.031-4.4531-1.1094-8.5156-1.0781-4.0625-3.2969-7.0625-2.1093-2.7812-5.1406-4.3594-3.0312-1.5781-7.1719-1.5781-2.1406 0-4.1406 0.51563-1.9844 0.5-3.7031 1.4688-1.4531 0.82812-2.7188 2-1.2656 1.1719-2.2031 2.6094l-0.2031-5.8125h-4.3281zm29.328-37.781v0.82812q-0.031 3.2344-0.7656 6.4375-0.7188 3.2031-2.3125 5.7031-1.5625 2.3438-4.0157 3.8281-2.4375 1.4844-5.9062 1.4844-1.9531 0-3.7969-0.5-1.8281-0.51563-3.3594-1.4844-1.4843-0.90625-2.6406-2.2031-1.1406-1.3125-1.8906-2.9531v-20.625q0.75-1.7969 1.9219-3.2656 1.1718-1.4688 2.6875-2.5156 1.4531-1.0156 3.2187-1.5781 1.7813-0.57813 3.7813-0.57813 3.3906 0 5.7656 1.375 2.3906 1.3594 4 3.5469 1.7187 2.5781 2.5156 5.8594t0.7969 6.6406zm16.133-0.23438v1.25q0 4.3438 1.2812 8.2188 1.2969 3.8594 3.7657 6.75 2.375 2.9219 5.8906 4.625 3.5156 1.7031 7.9687 1.7031 4.4219 0 7.9063-1.7188 3.5-1.7188 5.9219-4.6094 2.3906-2.9375 3.6718-6.7812 1.2969-3.8438 1.2969-8.1875v-1.25q0-4.3281-1.2969-8.1875-1.2812-3.875-3.7031-6.7656-2.4219-2.9375-5.9219-4.625-3.5-1.7031-7.9531-1.7031t-7.9375 1.7188q-3.4687 1.7188-5.8906 4.6094-2.4219 2.9219-3.7188 6.7969-1.2812 3.8594-1.2812 8.1562zm4.6562 1.25v-1.25q0.031-3.3125 0.9532-6.4375 0.9218-3.125 2.75-5.5156 1.7656-2.4219 4.3906-3.8594 2.6406-1.4531 6.0781-1.4531t6.0781 1.4531q2.6407 1.4375 4.4688 3.8594 1.7656 2.3906 2.7031 5.5156t0.9688 6.4375v1.25q-0.031 3.3594-0.9532 6.4844-0.9218 3.125-2.6718 5.5156-1.8438 2.4219-4.4688 3.875-2.6094 1.4375-6.0469 1.4375-3.4687 0-6.125-1.4375-2.6562-1.4531-4.4218-3.8438-1.8282-2.4219-2.75-5.5469-0.9219-3.125-0.9532-6.4844zm73.711-22.531q-5.75-0.0469-9.9844 2.375-4.2344 2.4219-6.7031 6.7656l-0.031-1.875-0.2812-6.4844h-4.4531v42.266h4.8437l-0.078-27.078q0.7812-2.8906 2.25-5.0156 1.4687-2.125 3.4531-3.5312 2.0781-1.4531 4.6719-2.125 2.5937-0.6875 5.5625-0.6875 1.7187 0 3.3594 0.20312 1.6406 0.1875 3.25 0.53125l0.625-4.5312q-1.2188-0.39062-3-0.59375-1.7657-0.21875-3.4844-0.21875zm35.664-10.047h-4.7656v10.828h-11.766v3.8594h11.766v26.484q0.031 3.4844 1.0313 5.8906 1 2.3906 2.75 3.9219 1.7656 1.5156 4.1562 2.2031 2.4063 0.6875 5.2188 0.6875 1.375 0 2.75-0.0937 1.3906-0.0937 2.6875-0.29688 1.0156-0.15625 1.9218-0.40625 0.9219-0.26562 1.6719-0.57812l-0.75-3.5469q-0.5781 0.0781-1.3594 0.21875-0.7812 0.125-1.6406 0.25-1.0937 0.15625-2.2344 0.23438-1.125 0.0781-2.2656 0.0781-1.9062 0-3.5781-0.42187-1.6563-0.4375-2.9063-1.4531-1.25-0.98437-1.9687-2.5938-0.7188-1.625-0.7656-4.0938v-26.484h15.672v-3.8594h-15.672zm50.43 53.875q5.2656 0 9.25-2.0625 3.9844-2.0781 6.4063-5.4375l-2.9688-2.2656q-2.2656 2.8125-5.4375 4.2969-3.1562 1.4844-7.0625 1.4844-3.3906-0.0469-6.1719-1.375-2.7656-1.3281-4.7656-3.625-1.9531-2.1875-3.0625-5.0781-1.1094-2.8906-1.2656-6.25v-1.2969h31.641v-2.8438q0-4.0312-1.1562-7.5625-1.1563-3.5312-3.3438-6.1875-2.2187-2.625-5.4844-4.125-3.2656-1.5-7.4375-1.5-3.9843 0-7.4062 1.6406-3.4219 1.6406-5.9531 4.5312-2.5782 2.8906-4.0469 6.7969-1.4688 3.9062-1.4688 8.4375v1.6719q0 4.2656 1.4375 8.0312 1.4532 3.7656 4.0782 6.625 2.5781 2.8125 6.2031 4.4531 3.6406 1.6406 8.0156 1.6406zm-0.8594-39.812q3 0 5.3438 1.1562 2.3437 1.1562 3.9844 3.0625 1.6093 1.9219 2.5156 4.4688 0.9219 2.5312 0.9219 5.0625v0.4375h-26.75q0.3906-3.0469 1.5625-5.6406 1.1718-2.6094 3-4.5156 1.7968-1.875 4.1718-2.9531 2.3907-1.0781 5.25-1.0781zm58.789-4.0156q-5.75-0.0469-9.9844 2.375-4.2343 2.4219-6.7031 6.7656l-0.031-1.875-0.2813-6.4844h-4.4531v42.266h4.8437l-0.078-27.078q0.7813-2.8906 2.25-5.0156 1.4688-2.125 3.4531-3.5312 2.0782-1.4531 4.6719-2.125 2.5938-0.6875 5.5625-0.6875 1.7188 0 3.3594 0.20312 1.6406 0.1875 3.25 0.53125l0.625-4.5312q-1.2188-0.39062-3-0.59375-1.7656-0.21875-3.4844-0.21875zm102.14 11.328v-4.1875h-34.844v4.1875zm0 16.047v-4.1719h-34.844v4.1719z" clip-path="url(#clipPath65333-6-8)"/>
   <path transform="translate(-524.53 11.663)" d="m1566.2 652.16h4.6875v-28.875q0.6563-2.0625 1.8906-3.8594 1.2344-1.7969 2.8282-3.125 1.7656-1.4062 3.9062-2.25 2.1563-0.84375 4.5781-0.84375 2.7657-0.0312 4.7813 0.75 2.0156 0.78125 3.375 2.2969 1.3281 1.5312 1.9687 3.7656 0.6563 2.2188 0.6875 5.1094v27.031h4.6875l-0.031-27.109q0-3.7969-0.9375-6.7812-0.9375-2.9844-2.7344-5.0156-1.8437-2.0312-4.5156-3.0781-2.6719-1.0625-6.1563-1.0625-2.6093 0-4.9218 0.76563-2.2969 0.75-4.25 2.125-1.6407 1.125-2.9688 2.6875t-2.3125 3.4062l-0.2344-8.2031h-4.3281zm46.68-21.531v0.82812q0 4.1406 1.0469 8.1094 1.0625 3.9531 3.25 6.9219 2.0625 2.9375 5.1406 4.7031 3.0937 1.75 7.2812 1.75 2.1094 0 4.0782-0.5 1.9687-0.48438 3.6875-1.375 1.4531-0.75 2.6718-1.7812 1.2344-1.0312 2.1719-2.3594v4.6406q0 3.0156-0.8437 5.4688-0.8282 2.4688-2.3907 4.2344-1.6406 1.7969-3.9687 2.7656-2.3281 0.98437-5.3281 0.98437-1.9219 0-3.6563-0.5-1.7344-0.48437-3.2969-1.4219-1.2968-0.70313-2.5312-1.7656-1.2188-1.0469-2.3594-2.4062l-2.6094 2.8438q1.25 1.7188 2.8594 2.9844 1.625 1.2812 3.3906 2.1406 2.0625 1.0469 4.25 1.5781t4.2657 0.53125q3.9062 0 7.0312-1.2969 3.125-1.2812 5.3125-3.625 2.1875-2.3125 3.375-5.5312t1.1875-7.1406v-41.516h-4.3281l-0.2031 5.8906q-0.8907-1.3594-2.0469-2.4844-1.1563-1.1406-2.5156-1.9688-1.7188-1.0938-3.7813-1.6562-2.0469-0.5625-4.3437-0.5625-4.4219 0-7.6094 1.875-3.1719 1.875-5.2031 4.9219-2.0313 3-3.0157 6.7969-0.9687 3.7812-0.9687 7.9219zm4.6875 0.82812v-0.82812q0-3.125 0.6562-6.1719 0.6719-3.0469 2.1563-5.5 1.4844-2.5 3.9844-4.125t6.2031-1.625q2.0781 0 3.8906 0.60938 1.8125 0.60937 3.2969 1.7031t2.6094 2.5781q1.1406 1.4844 1.8437 3.3125v19.844q-0.7031 1.7656-1.8906 3.1719t-2.6719 2.375q-1.5625 0.98438-3.3594 1.5-1.7968 0.5-3.7968 0.5-3.4375 0-5.9063-1.4375-2.4531-1.4531-3.9375-3.7969-1.5937-2.4688-2.3281-5.6719-0.7188-3.2031-0.75-6.4375zm45.742-21.562v4.1719h14.953v33.906h-14.953v4.1875h34.016v-4.1875h-14.406v-38.078zm13.594-11.562q0 1.4062 0.8125 2.4219 0.8282 1.0156 2.7032 1.0156t2.7031-1.0156q0.8437-1.0156 0.8437-2.4219 0-0.78125-0.2187-1.4375-0.2031-0.67187-0.6719-1.1875-0.4375-0.42187-1.1094-0.6875-0.6562-0.28125-1.5468-0.28125-0.9063 0-1.5782 0.28125-0.6562 0.26563-1.0781 0.6875-0.4687 0.51563-0.6719 1.2031-0.1875 0.67187-0.1875 1.4219zm33.32 53.828h4.6875v-28.875q0.6563-2.0625 1.8907-3.8594 1.2343-1.7969 2.8281-3.125 1.7656-1.4062 3.9062-2.25 2.1563-0.84375 4.5782-0.84375 2.7656-0.0312 4.7812 0.75 2.0156 0.78125 3.375 2.2969 1.3281 1.5312 1.9688 3.7656 0.6562 2.2188 0.6875 5.1094v27.031h4.6875l-0.031-27.109q0-3.7969-0.9375-6.7812-0.9375-2.9844-2.7344-5.0156-1.8437-2.0312-4.5156-3.0781-2.6719-1.0625-6.1562-1.0625-2.6094 0-4.9219 0.76563-2.2969 0.75-4.25 2.125-1.6406 1.125-2.9688 2.6875-1.3281 1.5625-2.3125 3.4062l-0.2343-8.2031h-4.3282zm64.883-25.078-13.094-17.188h-5.5781l16.094 20.734-16.766 21.531h5.625l13.75-17.969 13.828 17.969h5.5469l-16.75-21.531 16.094-20.734h-5.625zm97.891-3.9062v-18.125h-4.6875v18.125h-16.953v4.6406h16.953v18.641h4.6875v-18.641h17.344v-4.6406z" clip-path="url(#clipPath65327-1-2)"/>
   <path transform="translate(-524.53 11.663)" d="m1571.8 772.72h13.25q3.7031-0.0469 6.9688-1.1719 3.2656-1.1406 5.7187-3.2812 2.4219-2.1094 3.8438-5.1719 1.4375-3.0781 1.4375-6.9844 0-3.9375-1.4063-7.0156-1.4062-3.0938-3.875-5.2812-2.4219-2.1562-5.7031-3.2969-3.2813-1.1562-6.9844-1.2344h-17.891v56.875h4.6406zm0-4.0312v-25.391h13.25q2.8125 0.0469 5.25 0.96875 2.4375 0.90625 4.2344 2.5938 1.7656 1.6719 2.7812 4.0469 1.0157 2.3594 1.0157 5.2812 0 2.8906-1.0469 5.2031-1.0313 2.2969-2.8281 3.9062-1.7969 1.5938-4.2188 2.4844-2.4219 0.875-5.1875 0.90625zm70.398-15.578q-5.75-0.0469-9.9843 2.375-4.2344 2.4219-6.7032 6.7656l-0.031-1.875-0.2813-6.4844h-4.4531v42.266h4.8438l-0.078-27.078q0.7813-2.8906 2.25-5.0156 1.4688-2.125 3.4532-3.5312 2.0781-1.4531 4.6718-2.125 2.5938-0.6875 5.5625-0.6875 1.7188 0 3.3594 0.20312 1.6406 0.1875 3.25 0.53125l0.625-4.5312q-1.2187-0.39062-3-0.59375-1.7656-0.21875-3.4844-0.21875zm17.648 21.281v1.25q0 4.3438 1.2812 8.2188 1.2969 3.8594 3.7657 6.75 2.375 2.9219 5.8906 4.625 3.5156 1.7031 7.9687 1.7031 4.4219 0 7.9063-1.7188 3.5-1.7188 5.9219-4.6094 2.3906-2.9375 3.6718-6.7812 1.2969-3.8438 1.2969-8.1875v-1.25q0-4.3281-1.2969-8.1875-1.2812-3.875-3.7031-6.7656-2.4219-2.9375-5.9219-4.625-3.5-1.7031-7.9531-1.7031t-7.9375 1.7188q-3.4687 1.7188-5.8906 4.6094-2.4219 2.9219-3.7188 6.7969-1.2812 3.8594-1.2812 8.1562zm4.6562 1.25v-1.25q0.031-3.3125 0.9532-6.4375 0.9218-3.125 2.75-5.5156 1.7656-2.4219 4.3906-3.8594 2.6406-1.4531 6.0781-1.4531t6.0781 1.4531q2.6407 1.4375 4.4688 3.8594 1.7656 2.3906 2.7031 5.5156t0.9688 6.4375v1.25q-0.031 3.3594-0.9532 6.4844-0.9218 3.125-2.6718 5.5156-1.8438 2.4219-4.4688 3.875-2.6094 1.4375-6.0469 1.4375-3.4687 0-6.125-1.4375-2.6562-1.4531-4.4218-3.8438-1.8282-2.4219-2.75-5.5469-0.9219-3.125-0.9532-6.4844zm45.898-21.75h-4.1875v42.266h4.375l0.047-32.234q0.3125-1.1719 0.7813-2.3438 0.4687-1.1719 1.2812-2.1094 0.8594-1.0156 2.2032-1.6094 1.3593-0.60937 3.3906-0.65625 1.8281-0.0312 3.0156 0.5625 1.2031 0.57813 1.9063 1.5469 0.7031 1.0156 0.9687 2.3281 0.2813 1.3125 0.2813 2.6406l0.031 31.875h4.4219l0.031-31.844q0-0.1875-0.016-0.34375t-0.016-0.35938q0.2656-1.1719 0.7656-2.2969 0.5156-1.1406 1.375-2.0312 0.9063-0.90625 2.2344-1.4688t3.2812-0.60938q1.9063-0.0312 3.1094 0.60938 1.2188 0.64062 1.9219 1.7031 0.7031 1.0938 0.9531 2.4688 0.2656 1.3594 0.2656 2.7188l0.031 31.453h4.4219l0.031-31.406q0-2.4219-0.5156-4.5469-0.5-2.1406-1.6719-3.7344-1.0469-1.5312-2.9219-2.4375-1.875-0.92188-4.5312-0.92188-1.8438 0-3.3438 0.46875t-2.7187 1.25q-1.125 0.73438-1.9844 1.7188-0.8594 0.96875-1.4531 2.0625-0.3906-1.125-1.0156-2.0938-0.625-0.98437-1.5625-1.7344-1.0469-0.78125-2.5-1.2188-1.4375-0.45313-3.3125-0.45313-3.4844 0.0312-5.7344 1.5469-2.2344 1.5-3.4844 4zm65.898 43.047q5.2656 0 9.25-2.0625 3.9844-2.0781 6.4063-5.4375l-2.9688-2.2656q-2.2656 2.8125-5.4375 4.2969-3.1562 1.4844-7.0625 1.4844-3.3906-0.0469-6.1719-1.375-2.7656-1.3281-4.7656-3.625-1.9531-2.1875-3.0625-5.0781-1.1094-2.8906-1.2656-6.25v-1.2969h31.641v-2.8438q0-4.0312-1.1562-7.5625-1.1563-3.5312-3.3438-6.1875-2.2187-2.625-5.4844-4.125-3.2656-1.5-7.4375-1.5-3.9843 0-7.4062 1.6406-3.4219 1.6406-5.9531 4.5312-2.5782 2.8906-4.0469 6.7969-1.4688 3.9062-1.4688 8.4375v1.6719q0 4.2656 1.4375 8.0312 1.4532 3.7656 4.0782 6.625 2.5781 2.8125 6.2031 4.4531 3.6406 1.6406 8.0156 1.6406zm-0.8594-39.812q3 0 5.3438 1.1562 2.3437 1.1562 3.9844 3.0625 1.6093 1.9219 2.5156 4.4688 0.9219 2.5312 0.9219 5.0625v0.4375h-26.75q0.3906-3.0469 1.5625-5.6406 1.1718-2.6094 3-4.5156 1.7968-1.875 4.1718-2.9531 2.3907-1.0781 5.25-1.0781zm46.445-14.062h-4.7656v10.828h-11.766v3.8594h11.766v26.484q0.031 3.4844 1.0313 5.8906 1 2.3906 2.75 3.9219 1.7656 1.5156 4.1562 2.2031 2.4063 0.6875 5.2188 0.6875 1.375 0 2.75-0.0937 1.3906-0.0937 2.6875-0.29688 1.0156-0.15625 1.9218-0.40625 0.9219-0.26562 1.6719-0.57812l-0.75-3.5469q-0.5781 0.0781-1.3594 0.21875-0.7812 0.125-1.6406 0.25-1.0937 0.15625-2.2344 0.23438-1.125 0.0781-2.2656 0.0781-1.9062 0-3.5781-0.42187-1.6563-0.4375-2.9063-1.4531-1.25-0.98437-1.9687-2.5938-0.7188-1.625-0.7656-4.0938v-26.484h15.672v-3.8594h-15.672zm37.102 19.062v-25.969h-4.6875v60h4.6875v-29.062q0.6719-2 1.8906-3.75 1.2344-1.7656 2.875-3.0469 1.7657-1.4531 3.9219-2.2656 2.1719-0.82813 4.5938-0.82813 2.7812-0.0312 4.8281 0.8125 2.0469 0.82813 3.4219 2.4375 1.2812 1.5156 1.9062 3.7344 0.625 2.2031 0.6719 4.9375v27.031h4.6875v-27q-0.047-3.8281-0.9844-6.8125-0.9375-2.9844-2.7344-5.0625-1.8281-2.0625-4.5156-3.1094-2.6719-1.0625-6.1406-1.0625-2.6563 0-5 0.78125-2.3438 0.78125-4.2656 2.1875-1.5938 1.125-2.9063 2.6719-1.3125 1.5469-2.25 3.375zm61.336 34.812q5.2657 0 9.25-2.0625 3.9844-2.0781 6.4063-5.4375l-2.9688-2.2656q-2.2656 2.8125-5.4375 4.2969-3.1562 1.4844-7.0625 1.4844-3.3906-0.0469-6.1718-1.375-2.7657-1.3281-4.7657-3.625-1.9531-2.1875-3.0625-5.0781-1.1093-2.8906-1.2656-6.25v-1.2969h31.641v-2.8438q0-4.0312-1.1562-7.5625-1.1563-3.5312-3.3438-6.1875-2.2187-2.625-5.4843-4.125-3.2657-1.5-7.4375-1.5-3.9844 0-7.4063 1.6406-3.4219 1.6406-5.9531 4.5312-2.5781 2.8906-4.0469 6.7969-1.4687 3.9062-1.4687 8.4375v1.6719q0 4.2656 1.4375 8.0312 1.4531 3.7656 4.0781 6.625 2.5781 2.8125 6.2031 4.4531 3.6406 1.6406 8.0156 1.6406zm-0.8593-39.812q3 0 5.3437 1.1562 2.3438 1.1562 3.9844 3.0625 1.6094 1.9219 2.5156 4.4688 0.9219 2.5312 0.9219 5.0625v0.4375h-26.75q0.3906-3.0469 1.5625-5.6406 1.1719-2.6094 3-4.5156 1.7969-1.875 4.1719-2.9531 2.3906-1.0781 5.25-1.0781zm59.445 39.031h4.375v-42.266h-4.7188v29.766q-0.5468 2.0625-1.625 3.7344-1.0781 1.6562-2.6406 2.7812-1.6719 1.2969-3.9062 1.9844-2.2188 0.67187-4.9532 0.67187-2.625 0-4.5468-0.8125-1.9063-0.82812-3.1875-2.4688-1.2969-1.6406-1.9219-4.0312-0.625-2.4062-0.625-5.5781v-26.047h-4.6875v25.969q0.047 4.0625 0.9844 7.25 0.9375 3.1875 2.7656 5.3281 1.8437 2.1875 4.5156 3.3438t6.1875 1.1562q4.7656 0 8.2344-1.9688 3.4844-1.9844 5.5625-5.5zm48.867-10.781q0 1.4844-0.6407 2.7031-0.6406 1.2031-1.8125 2.1406-1.7968 1.3594-4.2656 2.0469-2.4531 0.6875-5.2344 0.6875-2.1093 0-4.3125-0.40625-2.2031-0.42187-4.0468-1.4375-1.8282-1.0156-3.1094-2.6719-1.2656-1.6562-1.5-4.1562h-4.6875q0.125 2.8906 1.5 5.2344 1.3906 2.3438 3.8125 3.9844 2.3437 1.5938 5.5469 2.5156 3.2031 0.92188 6.7968 0.92188 3.3282 0 6.5313-0.8125 3.2031-0.82813 5.625-2.5469 1.9844-1.4531 3.2344-3.5781t1.25-4.8594q0-2.8906-1.3125-4.9375-1.2969-2.0625-3.4844-3.5-2.2344-1.4531-5.1719-2.3906-2.9219-0.9375-6.125-1.6406-2.5-0.5-4.7812-1.1406-2.2813-0.65625-3.9219-1.625-1.6406-0.90625-2.5-2.25t-0.8594-3.1875q0-1.8281 0.9688-3.2188 0.9843-1.3906 2.5468-2.2812 1.5625-0.9375 3.5625-1.3906 2.0157-0.45312 4.1719-0.45312 2.2656 0 4.3906 0.59375 2.125 0.57812 3.8125 1.6719 1.6407 1.0938 2.6719 2.7031 1.0313 1.5938 1.0781 3.625h4.7188q-0.1094-3-1.4688-5.3438-1.3437-2.3438-3.5625-3.9844-2.2343-1.6094-5.2187-2.4375-2.9844-0.84375-6.4219-0.84375-3.0469 0-5.9219 0.78125t-5.0156 2.1875q-2.2656 1.5156-3.625 3.6719-1.3437 2.1406-1.3437 4.875 0 2.8906 1.3437 4.9062 1.3594 2.0156 3.5469 3.2969 2.3437 1.375 5.0312 2.2344 2.7032 0.85937 5.9375 1.5156 2.5782 0.54688 4.9532 1.3281 2.3906 0.78125 4.0781 1.875 1.5156 0.98437 2.375 2.375 0.8594 1.375 0.8594 3.2188zm85.281-18.203v-18.125h-4.6875v18.125h-16.953v4.6406h16.953v18.641h4.6875v-18.641h17.344v-4.6406z" clip-path="url(#clipPath65321-0-3)"/>
   <path transform="translate(-524.53 11.663)" d="m1561.9 940.16h4.6094l5-28.906q0.9375-2.0312 2.4687-3.8594 1.5469-1.8438 3.5-3.2188 1.9219-1.3594 4.1407-2.1562 2.2343-0.8125 4.5312-0.8125 2.7031 0 4.4531 0.98438 1.7657 0.96875 2.7032 2.5781 0.9375 1.6406 1.1406 3.8125 0.2187 2.1562-0.094 4.5469l-4.6093 27.031h4.6093l4.5313-26.875q0.4687-3.1719 0.031-6.1562-0.4218-2.9844-1.7812-5.1719-1.4063-2.1875-3.7969-3.5-2.375-1.3125-5.8906-1.3438-2.4688-0.0469-4.6563 0.64063-2.1875 0.6875-4.1406 1.8906-1.9531 1.2188-3.6094 2.875-1.6562 1.6562-3.0312 3.5781l1.4062-8.25-4.2187 0.0469z" clip-path="url(#clipPath65315-6-9)"/>
   <path transform="translate(-524.53 11.663)" d="m1661.3 928.4 3.0781 3.125 13.953-14.219 13.984 14.219 3.0782-3.125-13.984-14.25 13.406-13.641-3.0937-3.1562-13.391 13.672-13.359-13.672-3.0938 3.1562 13.359 13.641zm110.62-25.969-10.281 12.688 3.7968 2.7031 9.1719-13.25 9.5313 13.359 3.8281-2.7656-10.5-12.547 15.109-4.4844-1.4844-4.5312-14.562 5.7344 0.7344-16.047h-4.6407l0.4688 15.891-14.844-5.5469-1.4531 4.5zm66.914 41.719v-3.9844h-34.453v3.9844zm32.383-3.2031q5.2656 0 9.25-2.0625 3.9843-2.0781 6.4062-5.4375l-2.9687-2.2656q-2.2657 2.8125-5.4375 4.2969-3.1563 1.4844-7.0625 1.4844-3.3907-0.0469-6.1719-1.375-2.7656-1.3281-4.7656-3.625-1.9532-2.1875-3.0625-5.0781-1.1094-2.8906-1.2657-6.25v-1.2969h31.641v-2.8438q0-4.0312-1.1563-7.5625-1.1562-3.5312-3.3437-6.1875-2.2188-2.625-5.4844-4.125t-7.4375-1.5q-3.9844 0-7.4063 1.6406-3.4218 1.6406-5.9531 4.5312-2.5781 2.8906-4.0469 6.7969-1.4687 3.9062-1.4687 8.4375v1.6719q0 4.2656 1.4375 8.0312 1.4531 3.7656 4.0781 6.625 2.5781 2.8125 6.2031 4.4531 3.6407 1.6406 8.0157 1.6406zm-0.8594-39.812q3 0 5.3437 1.1562 2.3438 1.1562 3.9844 3.0625 1.6094 1.9219 2.5156 4.4688 0.9219 2.5312 0.9219 5.0625v0.4375h-26.75q0.3906-3.0469 1.5625-5.6406 1.1719-2.6094 3-4.5156 1.7969-1.875 4.1719-2.9531 2.3906-1.0781 5.25-1.0781zm47.695 13.953-13.094-17.188h-5.5782l16.094 20.734-16.766 21.531h5.625l13.75-17.969 13.828 17.969h5.5469l-16.75-21.531 16.094-20.734h-5.625zm31.289 41.328h4.6406v-21.375q0.9375 1.25 2.1719 2.2656 1.2343 1.0156 2.6406 1.7188 1.75 0.9375 3.7656 1.4219 2.0156 0.5 4.2031 0.5 4.25 0 7.375-1.7969 3.125-1.7969 5.1563-4.7656 2-2.9688 3.0312-6.875 1.0313-3.9062 1.0313-8.0469v-0.82812q-0.031-4.4531-1.1094-8.5156-1.0781-4.0625-3.2969-7.0625-2.1093-2.7812-5.1406-4.3594-3.0312-1.5781-7.1719-1.5781-2.1406 0-4.1406 0.51563-1.9844 0.5-3.7031 1.4688-1.4531 0.82812-2.7188 2-1.2656 1.1719-2.2031 2.6094l-0.2031-5.8125h-4.3281zm29.328-37.781v0.82812q-0.031 3.2344-0.7656 6.4375-0.7188 3.2031-2.3125 5.7031-1.5625 2.3438-4.0157 3.8281-2.4375 1.4844-5.9062 1.4844-1.9531 0-3.7969-0.5-1.8281-0.51563-3.3594-1.4844-1.4843-0.90625-2.6406-2.2031-1.1406-1.3125-1.8906-2.9531v-20.625q0.75-1.7969 1.9219-3.2656 1.1718-1.4688 2.6875-2.5156 1.4531-1.0156 3.2187-1.5781 1.7813-0.57813 3.7813-0.57813 3.3906 0 5.7656 1.375 2.3906 1.3594 4 3.5469 1.7187 2.5781 2.5156 5.8594t0.7969 6.6406zm16.133-0.23438v1.25q0 4.3438 1.2813 8.2188 1.2968 3.8594 3.7656 6.75 2.375 2.9219 5.8906 4.625 3.5156 1.7031 7.9688 1.7031 4.4218 0 7.9062-1.7188 3.5-1.7188 5.9219-4.6094 2.3906-2.9375 3.6719-6.7812 1.2968-3.8438 1.2968-8.1875v-1.25q0-4.3281-1.2968-8.1875-1.2813-3.875-3.7032-6.7656-2.4218-2.9375-5.9218-4.625-3.5-1.7031-7.9532-1.7031-4.4531 0-7.9375 1.7188-3.4687 1.7188-5.8906 4.6094-2.4219 2.9219-3.7187 6.7969-1.2813 3.8594-1.2813 8.1562zm4.6563 1.25v-1.25q0.031-3.3125 0.9531-6.4375 0.9219-3.125 2.75-5.5156 1.7656-2.4219 4.3906-3.8594 2.6406-1.4531 6.0781-1.4531t6.0782 1.4531q2.6406 1.4375 4.4687 3.8594 1.7656 2.3906 2.7031 5.5156t0.9688 6.4375v1.25q-0.031 3.3594-0.9531 6.4844-0.9219 3.125-2.6719 5.5156-1.8438 2.4219-4.4688 3.875-2.6093 1.4375-6.0468 1.4375-3.4688 0-6.125-1.4375-2.6563-1.4531-4.4219-3.8438-1.8281-2.4219-2.75-5.5469t-0.9531-6.4844zm73.711-22.531q-5.75-0.0469-9.9844 2.375-4.2344 2.4219-6.7031 6.7656l-0.031-1.875-0.2812-6.4844h-4.4532v42.266h4.8438l-0.078-27.078q0.7812-2.8906 2.25-5.0156 1.4687-2.125 3.4531-3.5312 2.0781-1.4531 4.6719-2.125 2.5937-0.6875 5.5625-0.6875 1.7187 0 3.3593 0.20312 1.6407 0.1875 3.25 0.53125l0.625-4.5312q-1.2187-0.39062-3-0.59375-1.7656-0.21875-3.4843-0.21875zm35.664-10.047h-4.7656v10.828h-11.766v3.8594h11.766v26.484q0.031 3.4844 1.0313 5.8906 1 2.3906 2.75 3.9219 1.7656 1.5156 4.1562 2.2031 2.4063 0.6875 5.2188 0.6875 1.375 0 2.75-0.0937 1.3906-0.0937 2.6875-0.29688 1.0156-0.15625 1.9218-0.40625 0.9219-0.26562 1.6719-0.57812l-0.75-3.5469q-0.5781 0.0781-1.3594 0.21875-0.7812 0.125-1.6406 0.25-1.0937 0.15625-2.2344 0.23438-1.125 0.0781-2.2656 0.0781-1.9062 0-3.5781-0.42187-1.6563-0.4375-2.9063-1.4531-1.25-0.98437-1.9687-2.5938-0.7188-1.625-0.7656-4.0938v-26.484h15.672v-3.8594h-15.672zm50.43 53.875q5.2656 0 9.25-2.0625 3.9844-2.0781 6.4063-5.4375l-2.9688-2.2656q-2.2656 2.8125-5.4375 4.2969-3.1562 1.4844-7.0625 1.4844-3.3906-0.0469-6.1719-1.375-2.7656-1.3281-4.7656-3.625-1.9531-2.1875-3.0625-5.0781-1.1094-2.8906-1.2656-6.25v-1.2969h31.641v-2.8438q0-4.0312-1.1562-7.5625-1.1563-3.5312-3.3438-6.1875-2.2187-2.625-5.4844-4.125-3.2656-1.5-7.4375-1.5-3.9843 0-7.4062 1.6406-3.4219 1.6406-5.9531 4.5312-2.5782 2.8906-4.0469 6.7969-1.4688 3.9062-1.4688 8.4375v1.6719q0 4.2656 1.4375 8.0312 1.4532 3.7656 4.0782 6.625 2.5781 2.8125 6.2031 4.4531 3.6406 1.6406 8.0156 1.6406zm-0.8594-39.812q3 0 5.3438 1.1562 2.3437 1.1562 3.9844 3.0625 1.6093 1.9219 2.5156 4.4688 0.9219 2.5312 0.9219 5.0625v0.4375h-26.75q0.3906-3.0469 1.5625-5.6406 1.1718-2.6094 3-4.5156 1.7968-1.875 4.1718-2.9531 2.3907-1.0781 5.25-1.0781zm58.789-4.0156q-5.75-0.0469-9.9844 2.375-4.2343 2.4219-6.7031 6.7656l-0.031-1.875-0.2813-6.4844h-4.4531v42.266h4.8437l-0.078-27.078q0.7813-2.8906 2.25-5.0156 1.4688-2.125 3.4531-3.5312 2.0782-1.4531 4.6719-2.125 2.5938-0.6875 5.5625-0.6875 1.7188 0 3.3594 0.20312 1.6406 0.1875 3.25 0.53125l0.625-4.5312q-1.2188-0.39062-3-0.59375-1.7656-0.21875-3.4844-0.21875z" clip-path="url(#clipPath65309-2-8)"/>
  </g>
 </g>
</svg>
