<?xml version="1.0" encoding="UTF-8" standalone="no"?>
<svg
   width="653.64"
   height="503"
   fill="none"
   stroke-linecap="square"
   stroke-miterlimit="10"
   version="1.1"
   viewBox="0 0 653.64 503"
   id="svg48075"
   sodipodi:docname="status_reporter_mq_nodes.svg"
   inkscape:version="1.2.2 (b0a8486541, 2022-12-01)"
   xmlns:inkscape="http://www.inkscape.org/namespaces/inkscape"
   xmlns:sodipodi="http://sodipodi.sourceforge.net/DTD/sodipodi-0.dtd"
   xmlns="http://www.w3.org/2000/svg"
   xmlns:svg="http://www.w3.org/2000/svg">
  <sodipodi:namedview
     id="namedview48077"
     pagecolor="#ffffff"
     bordercolor="#000000"
     borderopacity="0.25"
     inkscape:showpageshadow="2"
     inkscape:pageopacity="0.0"
     inkscape:pagecheckerboard="0"
     inkscape:deskcolor="#d1d1d1"
     showgrid="false"
     inkscape:zoom="1.7574553"
     inkscape:cx="327.4621"
     inkscape:cy="251.5"
     inkscape:window-width="1920"
     inkscape:window-height="1062"
     inkscape:window-x="0"
     inkscape:window-y="18"
     inkscape:window-maximized="1"
     inkscape:current-layer="svg48075" />
  <defs
     id="defs47943">
    <clipPath
       id="clipPath19395">
      <path
         d="m0 0h2560v1440h-2560z"
         id="path47769" />
    </clipPath>
    <clipPath
       id="clipPath19401">
      <path
         d="m0 0h2560v1440h-2560z"
         id="path47772" />
    </clipPath>
    <clipPath
       id="clipPath19407">
      <path
         d="m0 0h2560v1440h-2560z"
         id="path47775" />
    </clipPath>
    <clipPath
       id="clipPath19413">
      <path
         d="m0 0h2560v1440h-2560z"
         id="path47778" />
    </clipPath>
    <clipPath
       id="clipPath19419">
      <path
         d="m0 0h2560v1440h-2560z"
         id="path47781" />
    </clipPath>
    <clipPath
       id="clipPath19425">
      <path
         d="m0 0h2560v1440h-2560z"
         id="path47784" />
    </clipPath>
    <clipPath
       id="clipPath19431">
      <path
         d="m0 0h2560v1440h-2560z"
         id="path47787" />
    </clipPath>
    <clipPath
       id="clipPath19437">
      <path
         d="m0 0h2560v1440h-2560z"
         id="path47790" />
    </clipPath>
    <clipPath
       id="clipPath19443">
      <path
         d="m0 0h2560v1440h-2560z"
         id="path47793" />
    </clipPath>
    <clipPath
       id="clipPath19449">
      <path
         d="m0 0h2560v1440h-2560z"
         id="path47796" />
    </clipPath>
    <clipPath
       id="clipPath19455">
      <path
         d="m0 0h2560v1440h-2560z"
         id="path47799" />
    </clipPath>
    <clipPath
       id="clipPath19461">
      <path
         d="m0 0h2560v1440h-2560z"
         id="path47802" />
    </clipPath>
    <clipPath
       id="clipPath19467">
      <path
         d="m0 0h2560v1440h-2560z"
         id="path47805" />
    </clipPath>
    <clipPath
       id="clipPath19473">
      <path
         d="m0 0h2560v1440h-2560z"
         id="path47808" />
    </clipPath>
    <clipPath
       id="clipPath19479">
      <path
         d="m0 0h2560v1440h-2560z"
         id="path47811" />
    </clipPath>
    <clipPath
       id="clipPath19485">
      <path
         d="m0 0h2560v1440h-2560z"
         id="path47814" />
    </clipPath>
    <clipPath
       id="clipPath19491">
      <path
         d="m0 0h2560v1440h-2560z"
         id="path47817" />
    </clipPath>
    <clipPath
       id="clipPath19497">
      <path
         d="m0 0h2560v1440h-2560z"
         id="path47820" />
    </clipPath>
    <clipPath
       id="clipPath19503">
      <path
         d="m0 0h2560v1440h-2560z"
         id="path47823" />
    </clipPath>
    <clipPath
       id="clipPath19509">
      <path
         d="m0 0h2560v1440h-2560z"
         id="path47826" />
    </clipPath>
    <clipPath
       id="clipPath19515">
      <path
         d="m0 0h2560v1440h-2560z"
         id="path47829" />
    </clipPath>
    <clipPath
       id="clipPath19521">
      <path
         d="m0 0h2560v1440h-2560z"
         id="path47832" />
    </clipPath>
    <clipPath
       id="clipPath19527">
      <path
         d="m0 0h2560v1440h-2560z"
         id="path47835" />
    </clipPath>
    <clipPath
       id="clipPath19533">
      <path
         d="m0 0h2560v1440h-2560z"
         id="path47838" />
    </clipPath>
    <clipPath
       id="clipPath19539">
      <path
         d="m0 0h2560v1440h-2560z"
         id="path47841" />
    </clipPath>
    <clipPath
       id="clipPath19545">
      <path
         d="m0 0h2560v1440h-2560z"
         id="path47844" />
    </clipPath>
    <clipPath
       id="clipPath19551">
      <path
         d="m0 0h2560v1440h-2560z"
         id="path47847" />
    </clipPath>
    <clipPath
       id="clipPath19557">
      <path
         d="m0 0h2560v1440h-2560z"
         id="path47850" />
    </clipPath>
    <clipPath
       id="clipPath19563">
      <path
         d="m0 0h2560v1440h-2560z"
         id="path47853" />
    </clipPath>
    <clipPath
       id="clipPath19569">
      <path
         d="m0 0h2560v1440h-2560z"
         id="path47856" />
    </clipPath>
    <clipPath
       id="clipPath19575">
      <path
         d="m0 0h2560v1440h-2560z"
         id="path47859" />
    </clipPath>
    <clipPath
       id="clipPath19581">
      <path
         d="m0 0h2560v1440h-2560z"
         id="path47862" />
    </clipPath>
    <clipPath
       id="clipPath19587">
      <path
         d="m0 0h2560v1440h-2560z"
         id="path47865" />
    </clipPath>
    <clipPath
       id="clipPath19593">
      <path
         d="m0 0h2560v1440h-2560z"
         id="path47868" />
    </clipPath>
    <clipPath
       id="clipPath19599">
      <path
         d="m0 0h2560v1440h-2560z"
         id="path47871" />
    </clipPath>
    <clipPath
       id="clipPath19605">
      <path
         d="m0 0h2560v1440h-2560z"
         id="path47874" />
    </clipPath>
    <clipPath
       id="clipPath19611">
      <path
         d="m0 0h2560v1440h-2560z"
         id="path47877" />
    </clipPath>
    <clipPath
       id="clipPath19617">
      <path
         d="m0 0h2560v1440h-2560z"
         id="path47880" />
    </clipPath>
    <clipPath
       id="clipPath19623">
      <path
         d="m0 0h2560v1440h-2560z"
         id="path47883" />
    </clipPath>
    <clipPath
       id="clipPath19629">
      <path
         d="m0 0h2560v1440h-2560z"
         id="path47886" />
    </clipPath>
    <clipPath
       id="clipPath19635">
      <path
         d="m0 0h2560v1440h-2560z"
         id="path47889" />
    </clipPath>
    <clipPath
       id="clipPath19641">
      <path
         d="m0 0h2560v1440h-2560z"
         id="path47892" />
    </clipPath>
    <clipPath
       id="clipPath19647">
      <path
         d="m0 0h2560v1440h-2560z"
         id="path47895" />
    </clipPath>
    <clipPath
       id="clipPath19653">
      <path
         d="m0 0h2560v1440h-2560z"
         id="path47898" />
    </clipPath>
    <clipPath
       id="clipPath19659">
      <path
         d="m0 0h2560v1440h-2560z"
         id="path47901" />
    </clipPath>
    <clipPath
       id="clipPath19665">
      <path
         d="m0 0h2560v1440h-2560z"
         id="path47904" />
    </clipPath>
    <clipPath
       id="clipPath19671">
      <path
         d="m0 0h2560v1440h-2560z"
         id="path47907" />
    </clipPath>
    <clipPath
       id="clipPath19677">
      <path
         d="m0 0h2560v1440h-2560z"
         id="path47910" />
    </clipPath>
    <clipPath
       id="clipPath19683">
      <path
         d="m0 0h2560v1440h-2560z"
         id="path47913" />
    </clipPath>
    <clipPath
       id="clipPath19689">
      <path
         d="m0 0h2560v1440h-2560z"
         id="path47916" />
    </clipPath>
    <clipPath
       id="clipPath19695">
      <path
         d="m0 0h2560v1440h-2560z"
         id="path47919" />
    </clipPath>
    <clipPath
       id="clipPath19701">
      <path
         d="m0 0h2560v1440h-2560z"
         id="path47922" />
    </clipPath>
    <clipPath
       id="clipPath19731">
      <path
         d="m0 0h2560v1440h-2560z"
         id="path47925" />
    </clipPath>
    <clipPath
       id="clipPath19737">
      <path
         d="m0 0h2560v1440h-2560z"
         id="path47928" />
    </clipPath>
    <clipPath
       id="clipPath19743">
      <path
         d="m0 0h2560v1440h-2560z"
         id="path47931" />
    </clipPath>
    <clipPath
       id="clipPath19749">
      <path
         d="m0 0h2560v1440h-2560z"
         id="path47934" />
    </clipPath>
    <clipPath
       id="clipPath19755">
      <path
         d="m0 0h2560v1440h-2560z"
         id="path47937" />
    </clipPath>
    <clipPath
       id="clipPath19761">
      <path
         d="m0 0h2560v1440h-2560z"
         id="path47940" />
    </clipPath>
  </defs>
  <g
     id="g48204">
    <path
       transform="matrix(0.5,0,0,0.5,-480.56,-105.64)"
       d="m 1911.4,316.93 h 83.646 v -83.646 h 167.76 v 83.646 h 83.646 v 167.29 h -83.646 v 83.646 h -167.76 V 484.22 H 1911.4 Z"
       clip-path="url(#clipPath19761)"
       fill="#ffffff"
       id="path47945"
       style="fill-rule:evenodd" />
    <path
       transform="matrix(0.5,0,0,0.5,-480.56,-105.64)"
       d="m 1911.4,316.93 h 83.646 v -83.646 h 167.76 v 83.646 h 83.646 v 167.29 h -83.646 v 83.646 h -167.76 V 484.22 H 1911.4 Z"
       clip-path="url(#clipPath19755)"
       stroke="#ffc000"
       stroke-linecap="butt"
       stroke-linejoin="round"
       stroke-width="4"
       id="path47947"
       style="fill-rule:evenodd" />
    <path
       transform="matrix(0.5,0,0,0.5,-480.56,-105.64)"
       d="m 1087.8,413.68 125.23,-95.666 125.23,95.666 -47.833,154.79 h -154.79 z"
       clip-path="url(#clipPath19749)"
       fill="#ffffff"
       id="path47949"
       style="fill-rule:evenodd" />
    <path
       transform="matrix(0.5,0,0,0.5,-480.56,-105.64)"
       d="m 1087.8,413.68 125.23,-95.666 125.23,95.666 -47.833,154.79 h -154.79 z"
       clip-path="url(#clipPath19743)"
       stroke="#ffc000"
       stroke-linecap="butt"
       stroke-linejoin="round"
       stroke-width="4"
       id="path47951"
       style="fill-rule:evenodd" />
    <path
       transform="matrix(0.5,0,0,0.5,-480.56,-105.64)"
       d="m 1358.9,414 125.23,-95.666 125.23,95.666 -47.833,154.79 h -154.79 z"
       clip-path="url(#clipPath19737)"
       fill="#ffffff"
       id="path47953"
       style="fill-rule:evenodd" />
    <path
       transform="matrix(0.5,0,0,0.5,-480.56,-105.64)"
       d="m 1358.9,414 125.23,-95.666 125.23,95.666 -47.833,154.79 h -154.79 z"
       clip-path="url(#clipPath19731)"
       stroke="#ffc000"
       stroke-linecap="butt"
       stroke-linejoin="round"
       stroke-width="4"
       id="path47955"
       style="fill-rule:evenodd" />
    <path
       transform="matrix(0.5,0,0,0.5,-480.56,-105.64)"
       d="m 1087.8,753.71 27.89,-111.56 h 492.02 l -27.89,111.56 z"
       clip-path="url(#clipPath19701)"
       fill="#ffffff"
       id="path47957"
       style="fill-rule:evenodd" />
    <path
       transform="matrix(0.5,0,0,0.5,-480.56,-105.64)"
       d="m 1087.8,753.71 27.89,-111.56 h 492.02 l -27.89,111.56 z"
       clip-path="url(#clipPath19695)"
       stroke="#2e79f3"
       stroke-linecap="butt"
       stroke-linejoin="round"
       stroke-width="4"
       id="path47959"
       style="fill-rule:evenodd" />
    <path
       transform="matrix(0.5,0,0,0.5,-480.56,-105.64)"
       d="m 1213,568.8 v 73.354"
       clip-path="url(#clipPath19689)"
       fill="#000000"
       fill-opacity="0"
       id="path47961"
       style="fill-rule:evenodd" />
    <path
       transform="matrix(0.5,0,0,0.5,-480.56,-105.64)"
       d="m 1213,568.8 v 49.354"
       clip-path="url(#clipPath19683)"
       stroke="#595959"
       stroke-linecap="butt"
       stroke-linejoin="round"
       stroke-width="4"
       id="path47963"
       style="fill-rule:evenodd" />
    <path
       transform="matrix(0.5,0,0,0.5,-480.56,-105.64)"
       d="m 1206.4,618.16 6.6069,18.152 6.607,-18.152 z"
       clip-path="url(#clipPath19677)"
       fill="#595959"
       stroke="#595959"
       stroke-linecap="butt"
       stroke-width="4"
       id="path47965"
       style="fill-rule:evenodd" />
    <path
       transform="matrix(0.5,0,0,0.5,-480.56,-105.64)"
       d="m 1484.2,568.41 v 73.732"
       clip-path="url(#clipPath19671)"
       fill="#000000"
       fill-opacity="0"
       id="path47967"
       style="fill-rule:evenodd" />
    <path
       transform="matrix(0.5,0,0,0.5,-480.56,-105.64)"
       d="m 1484.2,568.41 v 49.732"
       clip-path="url(#clipPath19665)"
       stroke="#595959"
       stroke-linecap="butt"
       stroke-linejoin="round"
       stroke-width="4"
       id="path47969"
       style="fill-rule:evenodd" />
    <path
       transform="matrix(0.5,0,0,0.5,-480.56,-105.64)"
       d="m 1477.6,618.14 6.6069,18.152 6.607,-18.152 z"
       clip-path="url(#clipPath19659)"
       fill="#595959"
       stroke="#595959"
       stroke-linecap="butt"
       stroke-width="4"
       id="path47971"
       style="fill-rule:evenodd" />
    <path
       transform="matrix(0.5,0,0,0.5,-480.56,-105.64)"
       d="m 1122.8,342.31 h 180.41 V 544.17 H 1122.8 Z"
       clip-path="url(#clipPath19653)"
       fill="#000000"
       fill-opacity="0"
       id="path47973"
       style="fill-rule:evenodd" />
    <path
       transform="matrix(.5 0 0 .5 -480.56 -105.64)"
       d="m1149.6 437.53q2.2969 0 3.5 1 1.2031 0.98437 1.6406 2.6406 0.4532 1.6406 0.4532 3.6562v8.1875q0 0.82813-0.5469 1.3906t-1.375 0.5625-1.375-0.5625-0.5469-1.3906v-8.1875q0-1.0625-0.2656-1.9062-0.25-0.84375-0.9219-1.3594-0.6719-0.51563-1.9062-0.51563-1.2188 0-2.0938 0.51563-0.8594 0.51562-1.2969 1.3594-0.4218 0.84375-0.4218 1.9062v8.1875q0 0.82813-0.5469 1.3906t-1.375 0.5625-1.375-0.5625-0.5469-1.3906v-19.781q0-0.82812 0.5469-1.3906t1.375-0.5625 1.375 0.5625 0.5469 1.3906v7.9375l-0.4844-0.0937q0.2969-0.54687 0.7969-1.1719 0.5156-0.625 1.25-1.1562 0.7343-0.54688 1.625-0.875 0.9062-0.34375 1.9687-0.34375zm23.768 0q0.8281 0 1.375 0.54687 0.5469 0.53125 0.5469 1.4062v13.531q0 0.82813-0.5469 1.3906t-1.375 0.5625-1.375-0.5625-0.5469-1.3906v-1.5625l0.7032 0.28125q0 0.42188-0.4532 1.0156-0.4375 0.59375-1.2031 1.1719-0.7656 0.5625-1.8125 0.96875-1.0312 0.39063-2.25 0.39063-2.2187 0-4.0156-1.125-1.7813-1.1406-2.8281-3.1406-1.0313-2-1.0313-4.5938 0-2.625 1.0313-4.625 1.0468-2 2.7968-3.125 1.7657-1.1406 3.9219-1.1406 1.375 0 2.5156 0.42187 1.1563 0.40625 2 1.0469 0.8594 0.64062 1.3125 1.2969 0.4688 0.65625 0.4688 1.1094l-1.1563 0.40625v-2.3281q0-0.82812 0.5469-1.3906t1.375-0.5625zm-6.4687 14.234q1.4218 0 2.4687-0.70312 1.0625-0.70313 1.6563-1.9219 0.5937-1.2188 0.5937-2.7188 0-1.5312-0.5937-2.75-0.5938-1.2188-1.6563-1.9219-1.0469-0.70313-2.4687-0.70313-1.375 0-2.4375 0.70313-1.0469 0.70312-1.6407 1.9219-0.5937 1.2188-0.5937 2.75 0 1.5 0.5937 2.7188 0.5938 1.2188 1.6407 1.9219 1.0625 0.70312 2.4375 0.70312zm14.471 3.2031q-0.8281 0-1.375-0.5625t-0.5469-1.3906v-13.219q0-0.82812 0.5469-1.3906t1.375-0.5625 1.375 0.5625 0.5469 1.3906v3.0156l-0.2188-2.1406q0.3438-0.78125 0.9063-1.3594 0.5625-0.59375 1.2656-1t1.5-0.59375 1.5937-0.1875q0.9688 0 1.625 0.54687 0.6563 0.53125 0.6563 1.2812 0 1.0469-0.5469 1.5156t-1.1875 0.46875q-0.6094 0-1.1094-0.21875-0.4843-0.23438-1.125-0.23438-0.5781 0-1.1718 0.28125-0.5938 0.26563-1.0938 0.84375-0.4844 0.5625-0.7969 1.4219-0.2968 0.84375-0.2968 2v7.5781q0 0.82813-0.5469 1.3906t-1.375 0.5625zm25.278-23.688q0.8282 0 1.375 0.54687 0.5469 0.54688 0.5469 1.4062v19.781q0 0.82813-0.5469 1.3906-0.5468 0.5625-1.375 0.5625-0.8281 0-1.375-0.5625-0.5468-0.5625-0.5468-1.3906v-1.5625l0.7031 0.28125q0 0.42188-0.4531 1.0156-0.4375 0.59375-1.2032 1.1719-0.7656 0.5625-1.8125 0.96875-1.0312 0.39063-2.25 0.39063-2.2187 0-4.0156-1.125-1.7812-1.1406-2.8281-3.1406-1.0313-2-1.0313-4.5938 0-2.625 1.0313-4.625 1.0469-2 2.7969-3.125 1.7656-1.1406 3.9218-1.1406 1.375 0 2.5157 0.42187 1.1562 0.40625 2 1.0469 0.8593 0.64062 1.3125 1.2969 0.4687 0.65625 0.4687 1.1094l-1.1562 0.40625v-8.5781q0-0.82812 0.5468-1.3906 0.5469-0.5625 1.375-0.5625zm-6.4687 20.484q1.4219 0 2.4687-0.70312 1.0625-0.70313 1.6563-1.9219 0.5937-1.2188 0.5937-2.7188 0-1.5312-0.5937-2.75-0.5938-1.2188-1.6563-1.9219-1.0468-0.70313-2.4687-0.70313-1.375 0-2.4375 0.70313-1.0469 0.70312-1.6406 1.9219-0.5938 1.2188-0.5938 2.75 0 1.5 0.5938 2.7188 0.5937 1.2188 1.6406 1.9219 1.0625 0.70312 2.4375 0.70312zm32.268-13.922q0.7344 0 1.2656 0.5625 0.5469 0.5625 0.5469 1.4219 0 0.23438-0.031 0.40625-0.031 0.17188-0.094 0.32813l-4.8906 13.188q-0.2188 0.64062-0.7969 0.98437-0.5781 0.32813-1.2187 0.23438-1.0938-0.0625-1.6407-1.2188l-3.1562-9.125 0.8281 0.0469-2.9844 9.0781q-0.5312 1.1562-1.625 1.2188-0.6093 0.0937-1.2031-0.23438-0.5937-0.34375-0.8125-0.98437l-4.8906-13.188q-0.1406-0.34375-0.1406-0.73438 0-0.76562 0.5156-1.375 0.5156-0.60937 1.4062-0.60937 0.6094 0 1.0938 0.29687 0.4844 0.28125 0.6719 0.92188l3.875 10.5-0.7969-0.0625 2.9062-7.9062q0.5157-1.1875 1.7657-1.1875 0.7031 0 1.0625 0.3125 0.375 0.29687 0.5937 0.875l2.9063 7.9062-0.9532 0.125 3.9375-10.562q0.375-1.2188 1.8594-1.2188zm19.001-0.3125q0.8281 0 1.375 0.54687 0.5469 0.53125 0.5469 1.4062v13.531q0 0.82813-0.5469 1.3906t-1.375 0.5625-1.375-0.5625-0.5469-1.3906v-1.5625l0.7031 0.28125q0 0.42188-0.4531 1.0156-0.4375 0.59375-1.2031 1.1719-0.7656 0.5625-1.8125 0.96875-1.0313 0.39063-2.25 0.39063-2.2188 0-4.0156-1.125-1.7813-1.1406-2.8282-3.1406-1.0312-2-1.0312-4.5938 0-2.625 1.0312-4.625 1.0469-2 2.7969-3.125 1.7656-1.1406 3.9219-1.1406 1.375 0 2.5156 0.42187 1.1563 0.40625 2 1.0469 0.8594 0.64062 1.3125 1.2969 0.4688 0.65625 0.4688 1.1094l-1.1563 0.40625v-2.3281q0-0.82812 0.5469-1.3906t1.375-0.5625zm-6.4688 14.234q1.4219 0 2.4688-0.70312 1.0625-0.70313 1.6562-1.9219 0.5938-1.2188 0.5938-2.7188 0-1.5312-0.5938-2.75-0.5937-1.2188-1.6562-1.9219-1.0469-0.70313-2.4688-0.70313-1.375 0-2.4375 0.70313-1.0468 0.70312-1.6406 1.9219-0.5937 1.2188-0.5937 2.75 0 1.5 0.5937 2.7188 0.5938 1.2188 1.6406 1.9219 1.0625 0.70312 2.4375 0.70312zm14.471 3.2031q-0.8281 0-1.375-0.5625t-0.5469-1.3906v-13.219q0-0.82812 0.5469-1.3906t1.375-0.5625 1.375 0.5625 0.5469 1.3906v3.0156l-0.2188-2.1406q0.3438-0.78125 0.9063-1.3594 0.5625-0.59375 1.2656-1t1.5-0.59375 1.5937-0.1875q0.9688 0 1.625 0.54687 0.6563 0.53125 0.6563 1.2812 0 1.0469-0.5469 1.5156t-1.1875 0.46875q-0.6094 0-1.1094-0.21875-0.4843-0.23438-1.125-0.23438-0.5781 0-1.1718 0.28125-0.5938 0.26563-1.0938 0.84375-0.4844 0.5625-0.7969 1.4219-0.2968 0.84375-0.2968 2v7.5781q0 0.82813-0.5469 1.3906t-1.375 0.5625zm19.325 0.3125q-2.7187 0-4.7187-1.125-2-1.1406-3.0782-3.0938-1.0625-1.9531-1.0625-4.4062 0-2.8906 1.1563-4.9219 1.1719-2.0312 3.0625-3.1094 1.8906-1.0938 4-1.0938 1.6406 0 3.0937 0.67187 1.4532 0.67188 2.5625 1.8438 1.125 1.1562 1.7813 2.7031 0.6562 1.5312 0.6562 3.2656-0.031 0.76563-0.6093 1.25-0.5625 0.46875-1.3438 0.46875h-12.219l-0.9532-3.2031h11.734l-0.7031 0.64062v-0.85937q-0.062-0.92188-0.6563-1.6562-0.5937-0.75-1.4687-1.1719-0.875-0.4375-1.875-0.4375-0.9531 0-1.7969 0.26563-0.8281 0.25-1.4375 0.85937-0.6094 0.60938-0.9687 1.6406-0.3438 1.0156-0.3438 2.5781 0 1.7344 0.7188 2.9375 0.7343 1.1875 1.8593 1.8125 1.1407 0.625 2.4219 0.625 1.1875 0 1.8906-0.1875 0.7032-0.1875 1.125-0.45312 0.4375-0.28125 0.7969-0.46875 0.5781-0.29688 1.0781-0.29688 0.7032 0 1.1719 0.48438 0.4688 0.48437 0.4688 1.1094 0 0.875-0.9063 1.5781-0.8281 0.70312-2.3281 1.2344-1.5 0.51563-3.1094 0.51563z"
       clip-path="url(#clipPath19647)"
       fill="#595959"
       id="path47977" />
    <path
       transform="matrix(.5 0 0 .5 -480.56 -105.64)"
       d="m1212.2 642.15h271.15v111.56h-271.15z"
       clip-path="url(#clipPath19641)"
       fill="#000"
       fill-opacity="0"
       fill-rule="evenodd"
       id="path47979" />
    <path
       transform="matrix(.5 0 0 .5 -480.56 -105.64)"
       d="m1241.6 692.22q2.3594 0 3.5938 1 1.2343 0.98437 1.6875 2.6406 0.4687 1.6406 0.4687 3.6562v8.1875q0 0.82813-0.5469 1.3906-0.5312 0.5625-1.3593 0.5625-0.8438 0-1.3907-0.5625-0.5312-0.5625-0.5312-1.3906v-8.1875q0-1.0625-0.2813-1.9062-0.2656-0.84375-0.9687-1.3594-0.7031-0.51563-2.0156-0.51563-1.2813 0-2.1719 0.51563-0.875 0.51562-1.3438 1.3594-0.4531 0.84375-0.4531 1.9062v8.1875q0 0.82813-0.5469 1.3906-0.5468 0.5625-1.375 0.5625-0.8281 0-1.375-0.5625-0.5468-0.5625-0.5468-1.3906v-13.219q0-0.82812 0.5468-1.3906 0.5469-0.5625 1.375-0.5625 0.8282 0 1.375 0.5625 0.5469 0.5625 0.5469 1.3906v1.375l-0.4844-0.0937q0.2969-0.54687 0.8282-1.1719 0.5468-0.625 1.2812-1.1562 0.7344-0.54688 1.6563-0.875 0.9375-0.34375 2.0312-0.34375zm26.525 8.8906q0 2.625-1.1719 4.625-1.1563 2-3.125 3.125-1.9688 1.1094-4.4063 1.1094t-4.4062-1.1094q-1.9688-1.125-3.1406-3.125-1.1563-2-1.1563-4.625t1.1563-4.625q1.1718-2 3.1406-3.125 1.9687-1.1406 4.4062-1.1406t4.4063 1.1406q1.9687 1.125 3.125 3.125 1.1719 2 1.1719 4.625zm-3.8438 0q0-1.625-0.6562-2.8281-0.6563-1.2031-1.7657-1.875-1.0937-0.67188-2.4375-0.67188-1.3437 0-2.4531 0.67188-1.0937 0.67187-1.75 1.875-0.6562 1.2031-0.6562 2.8281 0 1.6094 0.6562 2.8125 0.6563 1.1875 1.75 1.8594 1.1094 0.67187 2.4531 0.67187 1.3438 0 2.4375-0.67187 1.1094-0.67188 1.7657-1.8594 0.6562-1.2031 0.6562-2.8125zm21.218-15.141q0.8282 0 1.375 0.54687 0.5469 0.54688 0.5469 1.4062v19.781q0 0.82813-0.5469 1.3906-0.5468 0.5625-1.375 0.5625-0.8281 0-1.375-0.5625-0.5468-0.5625-0.5468-1.3906v-1.5625l0.7031 0.28125q0 0.42188-0.4531 1.0156-0.4375 0.59375-1.2032 1.1719-0.7656 0.5625-1.8125 0.96875-1.0312 0.39063-2.25 0.39063-2.2187 0-4.0156-1.125-1.7812-1.1406-2.8281-3.1406-1.0313-2-1.0313-4.5938 0-2.625 1.0313-4.625 1.0469-2 2.7969-3.125 1.7656-1.1406 3.9218-1.1406 1.375 0 2.5157 0.42187 1.1562 0.40625 2 1.0469 0.8593 0.64062 1.3125 1.2969 0.4687 0.65625 0.4687 1.1094l-1.1562 0.40625v-8.5781q0-0.82812 0.5468-1.3906 0.5469-0.5625 1.375-0.5625zm-6.4687 20.484q1.4219 0 2.4687-0.70312 1.0625-0.70313 1.6563-1.9219 0.5937-1.2188 0.5937-2.7188 0-1.5312-0.5937-2.75-0.5938-1.2188-1.6563-1.9219-1.0468-0.70313-2.4687-0.70313-1.375 0-2.4375 0.70313-1.0469 0.70312-1.6406 1.9219-0.5938 1.2188-0.5938 2.75 0 1.5 0.5938 2.7188 0.5937 1.2188 1.6406 1.9219 1.0625 0.70312 2.4375 0.70312zm20.612 3.5156q-2.7188 0-4.7188-1.125-2-1.1406-3.0781-3.0938-1.0625-1.9531-1.0625-4.4062 0-2.8906 1.1563-4.9219 1.1718-2.0312 3.0625-3.1094 1.8906-1.0938 4-1.0938 1.6406 0 3.0937 0.67187 1.4531 0.67188 2.5625 1.8438 1.125 1.1562 1.7813 2.7031 0.6562 1.5312 0.6562 3.2656-0.031 0.76563-0.6094 1.25-0.5625 0.46875-1.3437 0.46875h-12.219l-0.9531-3.2031h11.734l-0.7031 0.64062v-0.85937q-0.062-0.92188-0.6563-1.6562-0.5937-0.75-1.4687-1.1719-0.875-0.4375-1.875-0.4375-0.9532 0-1.7969 0.26563-0.8281 0.25-1.4375 0.85937-0.6094 0.60938-0.9688 1.6406-0.3437 1.0156-0.3437 2.5781 0 1.7344 0.7187 2.9375 0.7344 1.1875 1.8594 1.8125 1.1406 0.625 2.4219 0.625 1.1875 0 1.8906-0.1875t1.125-0.45312q0.4375-0.28125 0.7969-0.46875 0.5781-0.29688 1.0781-0.29688 0.7031 0 1.1719 0.48438 0.4687 0.48437 0.4687 1.1094 0 0.875-0.9062 1.5781-0.8281 0.70312-2.3281 1.2344-1.5 0.51563-3.1094 0.51563zm11.88 4.8125q-0.6719 0-1.1094-0.4375t-0.4375-1.0781q0-0.64062 0.4375-1.0781 0.4375-0.42188 1.1094-0.42188h16.25q0.6719 0 1.0937 0.42188 0.4375 0.4375 0.4375 1.1094 0 0.64063-0.4375 1.0625-0.4218 0.42188-1.0937 0.42188zm29.528-4.8125q-2.7188 0-4.7188-1.125-2-1.1406-3.0781-3.0938-1.0625-1.9531-1.0625-4.4062 0-2.8906 1.1562-4.9219 1.1719-2.0312 3.0625-3.1094 1.8907-1.0938 4-1.0938 1.6407 0 3.0938 0.67187 1.4531 0.67188 2.5625 1.8438 1.125 1.1562 1.7812 2.7031 0.6563 1.5312 0.6563 3.2656-0.031 0.76563-0.6094 1.25-0.5625 0.46875-1.3437 0.46875h-12.219l-0.9531-3.2031h11.734l-0.7032 0.64062v-0.85937q-0.062-0.92188-0.6562-1.6562-0.5938-0.75-1.4688-1.1719-0.875-0.4375-1.875-0.4375-0.9531 0-1.7968 0.26563-0.8282 0.25-1.4375 0.85937-0.6094 0.60938-0.9688 1.6406-0.3437 1.0156-0.3437 2.5781 0 1.7344 0.7187 2.9375 0.7344 1.1875 1.8594 1.8125 1.1406 0.625 2.4219 0.625 1.1875 0 1.8906-0.1875t1.125-0.45312q0.4375-0.28125 0.7969-0.46875 0.5781-0.29688 1.0781-0.29688 0.7031 0 1.1719 0.48438 0.4687 0.48437 0.4687 1.1094 0 0.875-0.9062 1.5781-0.8282 0.70312-2.3282 1.2344-1.5 0.51563-3.1093 0.51563zm11.177-17.438q0.9219 0 1.5625 0.8125l10.688 13.266q0.4219 0.51563 0.4219 1.1562 0 0.79688-0.6094 1.375-0.6093 0.57813-1.3437 0.57813-0.9375 0-1.5781-0.82813l-10.688-13.281q-0.4063-0.51562-0.4063-1.1562 0-0.82812 0.5781-1.375 0.5938-0.54687 1.375-0.54687zm0.031 17.156q-0.6406 0-1.2656-0.48438-0.625-0.5-0.625-1.2031 0-0.64063 0.4843-1.2188l4.8907-5.9844 1.9218 3.2031-3.875 4.8906q-0.6093 0.79688-1.5312 0.79688zm10.656-17.156q0.7657 0 1.2813 0.53125 0.5312 0.53125 0.5312 1.2031 0 0.3125-0.094 0.64063-0.094 0.3125-0.3438 0.60937l-4.8437 5.8906-2.0156-2.7969 3.9375-5.2031q0.6406-0.875 1.5468-0.875zm13.396-0.3125q2.25 0 4.0157 1.1406 1.7812 1.125 2.8125 3.1094 1.0468 1.9844 1.0468 4.6094t-1.0468 4.625q-1.0313 2-2.7813 3.1406-1.7344 1.125-3.9062 1.125-1.2813 0-2.4063-0.40625-1.125-0.42188-1.9687-1.0625-0.8438-0.64063-1.3125-1.2969-0.4688-0.65625-0.4688-1.0938l1-0.42187v8.4219q0 0.82813-0.5469 1.3906-0.5468 0.5625-1.375 0.5625-0.8281 0-1.375-0.54688-0.5468-0.54687-0.5468-1.4062v-19.625q0-0.82812 0.5468-1.3906 0.5469-0.5625 1.375-0.5625 0.8282 0 1.375 0.5625 0.5469 0.5625 0.5469 1.3906v1.5781l-0.5469-0.29688q0-0.40625 0.4375-1 0.4532-0.59375 1.2188-1.1875 0.7812-0.59375 1.7812-0.96875 1.0157-0.39062 2.125-0.39062zm-0.4687 3.5156q-1.4063 0-2.4688 0.70313-1.0625 0.70312-1.6562 1.9062-0.5781 1.2031-0.5781 2.7344 0 1.5 0.5781 2.7344 0.5937 1.2344 1.6562 1.9375 1.0625 0.70312 2.4688 0.70312 1.4062 0 2.4375-0.70312 1.0469-0.70313 1.6406-1.9375 0.5938-1.2344 0.5938-2.7344 0-1.5312-0.5938-2.7344-0.5937-1.2031-1.6406-1.9062-1.0313-0.70313-2.4375-0.70313zm28.315 5.375q0 2.625-1.1719 4.625-1.1562 2-3.125 3.125-1.9687 1.1094-4.4062 1.1094t-4.4063-1.1094q-1.9687-1.125-3.1406-3.125-1.1563-2-1.1563-4.625t1.1563-4.625q1.1719-2 3.1406-3.125 1.9688-1.1406 4.4063-1.1406t4.4062 1.1406q1.9688 1.125 3.125 3.125 1.1719 2 1.1719 4.625zm-3.8438 0q0-1.625-0.6562-2.8281-0.6563-1.2031-1.7656-1.875-1.0938-0.67188-2.4375-0.67188-1.3438 0-2.4532 0.67188-1.0937 0.67187-1.75 1.875-0.6562 1.2031-0.6562 2.8281 0 1.6094 0.6562 2.8125 0.6563 1.1875 1.75 1.8594 1.1094 0.67187 2.4532 0.67187 1.3437 0 2.4375-0.67187 1.1093-0.67188 1.7656-1.8594 0.6562-1.2031 0.6562-2.8125zm9.1243 8.5469q-0.8281 0-1.375-0.5625t-0.5469-1.3906v-13.219q0-0.82812 0.5469-1.3906t1.375-0.5625 1.375 0.5625 0.5469 1.3906v3.0156l-0.2188-2.1406q0.3438-0.78125 0.9063-1.3594 0.5625-0.59375 1.2656-1t1.5-0.59375 1.5938-0.1875q0.9687 0 1.625 0.54687 0.6562 0.53125 0.6562 1.2812 0 1.0469-0.5469 1.5156-0.5468 0.46875-1.1875 0.46875-0.6093 0-1.1093-0.21875-0.4844-0.23438-1.125-0.23438-0.5782 0-1.1719 0.28125-0.5938 0.26563-1.0938 0.84375-0.4843 0.5625-0.7968 1.4219-0.2969 0.84375-0.2969 2v7.5781q0 0.82813-0.5469 1.3906t-1.375 0.5625zm12.154-16.797h7.5938q0.7656 0 1.2656 0.51563 0.5156 0.5 0.5156 1.2656 0 0.75-0.5156 1.25-0.5 0.48438-1.2656 0.48438h-7.5938q-0.7656 0-1.2812-0.5-0.5-0.51563-0.5-1.2969 0-0.73437 0.5-1.2188 0.5156-0.5 1.2812-0.5zm3.4375-4q0.8281 0 1.3438 0.5625 0.5312 0.54688 0.5312 1.3906v14.234q0 0.45313 0.1719 0.75 0.1875 0.28125 0.4844 0.40625 0.3125 0.125 0.6562 0.125 0.3906 0 0.7031-0.14062 0.3282-0.14063 0.75-0.14063 0.4375 0 0.7969 0.42188 0.375 0.40625 0.375 1.1406 0 0.89063-0.9844 1.4688-0.9687 0.57813-2.0781 0.57813-0.6719 0-1.5-0.10938-0.8125-0.10937-1.5312-0.54687-0.7188-0.4375-1.2032-1.3281-0.4687-0.89062-0.4687-2.4688v-14.391q0-0.84375 0.5469-1.3906 0.5625-0.5625 1.4062-0.5625zm17.366 21.109q-2.7188 0-4.7188-1.125-2-1.1406-3.0781-3.0938-1.0625-1.9531-1.0625-4.4062 0-2.8906 1.1563-4.9219 1.1718-2.0312 3.0625-3.1094 1.8906-1.0938 4-1.0938 1.6406 0 3.0937 0.67187 1.4531 0.67188 2.5625 1.8438 1.125 1.1562 1.7813 2.7031 0.6562 1.5312 0.6562 3.2656-0.031 0.76563-0.6094 1.25-0.5625 0.46875-1.3437 0.46875h-12.219l-0.9531-3.2031h11.734l-0.7031 0.64062v-0.85937q-0.062-0.92188-0.6563-1.6562-0.5937-0.75-1.4687-1.1719-0.875-0.4375-1.875-0.4375-0.9532 0-1.7969 0.26563-0.8281 0.25-1.4375 0.85937-0.6094 0.60938-0.9688 1.6406-0.3437 1.0156-0.3437 2.5781 0 1.7344 0.7187 2.9375 0.7344 1.1875 1.8594 1.8125 1.1406 0.625 2.4219 0.625 1.1875 0 1.8906-0.1875t1.125-0.45312q0.4375-0.28125 0.7969-0.46875 0.5781-0.29688 1.0781-0.29688 0.7031 0 1.1719 0.48438 0.4687 0.48437 0.4687 1.1094 0 0.875-0.9062 1.5781-0.8281 0.70312-2.3281 1.2344-1.5 0.51563-3.1094 0.51563zm12.74-0.3125q-0.8281 0-1.375-0.5625t-0.5469-1.3906v-13.219q0-0.82812 0.5469-1.3906t1.375-0.5625 1.375 0.5625 0.5469 1.3906v3.0156l-0.2188-2.1406q0.3438-0.78125 0.9063-1.3594 0.5625-0.59375 1.2656-1t1.5-0.59375 1.5937-0.1875q0.9688 0 1.625 0.54687 0.6563 0.53125 0.6563 1.2812 0 1.0469-0.5469 1.5156t-1.1875 0.46875q-0.6094 0-1.1094-0.21875-0.4843-0.23438-1.125-0.23438-0.5781 0-1.1718 0.28125-0.5938 0.26563-1.0938 0.84375-0.4844 0.5625-0.7969 1.4219-0.2968 0.84375-0.2968 2v7.5781q0 0.82813-0.5469 1.3906t-1.375 0.5625z"
       clip-path="url(#clipPath19635)"
       fill="#595959"
       id="path47981" />
    <path
       transform="matrix(.5 0 0 .5 -480.56 -105.64)"
       d="m1394 342.63h180.41v201.86h-180.41z"
       clip-path="url(#clipPath19629)"
       fill="#000"
       fill-opacity="0"
       fill-rule="evenodd"
       id="path47983" />
    <path
       transform="matrix(.5 0 0 .5 -480.56 -105.64)"
       d="m1485.5 444.08q0 2.4062-0.8125 4.4844-0.7969 2.0781-2.25 3.6719-1.4531 1.5781-3.4531 2.4688-2 0.89062-4.375 0.89062-2.3594 0-4.3438-0.89062-1.9843-0.89063-3.4531-2.4688-1.4531-1.5938-2.25-3.6719t-0.7969-4.4844q0-2.3906 0.7969-4.4688 0.7969-2.0938 2.25-3.6719 1.4688-1.5781 3.4531-2.4688 1.9844-0.90625 4.3438-0.90625 2.375 0 4.375 0.90625 2 0.89063 3.4531 2.4688 1.4531 1.5781 2.25 3.6719 0.8125 2.0781 0.8125 4.4688zm-4.1719 0q0-2.1406-0.8593-3.875-0.8594-1.75-2.375-2.7656-1.5-1.0312-3.4844-1.0312t-3.4844 1.0312q-1.5 1.0156-2.3594 2.75-0.8437 1.7188-0.8437 3.8906 0 2.1406 0.8437 3.8906 0.8594 1.75 2.3594 2.7812 1.5 1.0156 3.4844 1.0156t3.4844-1.0156q1.5156-1.0312 2.375-2.7812 0.8593-1.75 0.8593-3.8906zm15.038 11.516q-2.2344 0-4.0313-0.54687-1.7812-0.5625-3.4218-1.9688-0.4063-0.35938-0.6407-0.79688-0.2187-0.45312-0.2187-0.90625 0-0.73437 0.5312-1.2969 0.5313-0.5625 1.3282-0.5625 0.6093 0 1.0781 0.39062 1.2187 0.98438 2.4219 1.5 1.2031 0.51563 2.9531 0.51563 1.1875 0 2.1719-0.35938 1-0.375 1.6093-1 0.6094-0.625 0.6094-1.4219 0-0.96875-0.5781-1.6406-0.5781-0.67187-1.7656-1.125-1.1719-0.46875-3-0.71875-1.7344-0.26562-3.0469-0.78125-1.3125-0.53125-2.1875-1.3438-0.875-0.82812-1.3281-1.9219-0.4532-1.1094-0.4532-2.4844 0-2.0781 1.0782-3.5469 1.0781-1.4844 2.8906-2.25 1.8281-0.76563 4.0312-0.76563 2.0938 0 3.8594 0.625 1.7813 0.625 2.9063 1.5781 0.9218 0.73437 0.9218 1.7031 0 0.70313-0.5468 1.2812-0.5469 0.57813-1.2813 0.57813-0.4687 0-0.8594-0.29688-0.5156-0.45312-1.375-0.84375-0.8593-0.40625-1.8281-0.67187-0.9531-0.28125-1.7969-0.28125-1.375 0-2.3125 0.35937-0.9375 0.34375-1.4218 0.95313-0.4844 0.60937-0.4844 1.4219 0 0.95313 0.5625 1.5781t1.6094 1q1.0625 0.35937 2.5312 0.64062 1.9219 0.35938 3.375 0.84375 1.4531 0.46875 2.4063 1.2344 0.9687 0.75 1.4531 1.8906 0.4844 1.125 0.4844 2.75 0 2.0938-1.1563 3.5938-1.1562 1.5-3.0312 2.2969-1.8594 0.79687-4.0469 0.79687z"
       clip-path="url(#clipPath19623)"
       fill="#595959"
       id="path47985" />
    <path
       transform="matrix(.5 0 0 .5 -480.56 -105.64)"
       d="m1913.8 318.34h330.17v164.47h-330.17z"
       clip-path="url(#clipPath19617)"
       fill="#000"
       fill-opacity="0"
       fill-rule="evenodd"
       id="path47987" />
    <path
       transform="matrix(0.5,0,0,0.5,-480.56,-105.64)"
       d="m 2006.9,376.29 q -0.8906,0 -1.5937,-0.5625 -0.7032,-0.5625 -0.7032,-1.3906 v -18.5 q 0,-0.82813 0.5469,-1.3906 0.5625,-0.5625 1.4063,-0.5625 h 9.2031 q 1.6719,0 3.125,0.89063 1.4531,0.875 2.3437,2.4375 0.9063,1.5469 0.9063,3.5625 0,1.2188 -0.5,2.375 -0.5,1.1406 -1.3438,2.0781 -0.8437,0.92188 -1.9062,1.4375 l 0.031,-0.75 q 0.9063,0.48438 1.4844,1.1406 0.5938,0.65625 0.9219,1.4062 0.3437,0.75 0.4219,1.625 0.125,0.79687 0.1718,1.4062 0.047,0.60937 0.1875,1.0312 0.1407,0.40625 0.5625,0.625 0.7032,0.42187 0.875,1.2031 0.1875,0.78125 -0.3593,1.3906 -0.3594,0.42187 -0.9063,0.53125 -0.5312,0.10937 -1.0781,0 -0.5469,-0.10938 -0.9063,-0.29688 -0.5312,-0.32812 -1.0781,-0.95312 -0.5469,-0.625 -0.8906,-1.6719 -0.3281,-1.0625 -0.3281,-2.7188 0,-0.54687 -0.2032,-1.0156 -0.1875,-0.46875 -0.5468,-0.79688 -0.3438,-0.34375 -0.8907,-0.51562 -0.5312,-0.17188 -1.2656,-0.17188 h -6.4687 l 0.4843,-0.73437 v 6.9375 q 0,0.82812 -0.4531,1.3906 -0.4531,0.56248 -1.25,0.5625 z m 1.25,-11.453 h 7.4531 q 0.5782,0 1.125,-0.53125 0.5469,-0.53125 0.8907,-1.4375 0.3593,-0.92188 0.3593,-2 0,-1.4062 -0.7656,-2.3438 -0.75,-0.95313 -1.6094,-0.95313 h -7.3906 l 0.3906,-1.0312 v 9.0625 z m 32.253,-5.9844 q 0.8281,0 1.375,0.54688 0.5469,0.53125 0.5469,1.4062 v 13.531 q 0,0.82812 -0.5469,1.3906 -0.5469,0.56248 -1.375,0.5625 -0.8281,2e-5 -1.375,-0.5625 -0.5469,-0.56252 -0.5469,-1.3906 v -1.5625 l 0.7031,0.28125 q 0,0.42187 -0.4531,1.0156 -0.4375,0.59375 -1.2031,1.1719 -0.7656,0.5625 -1.8125,0.96875 -1.0313,0.39062 -2.25,0.39062 -2.2188,0 -4.0156,-1.125 -1.7813,-1.1406 -2.8282,-3.1406 -1.0312,-2 -1.0312,-4.5938 0,-2.625 1.0312,-4.625 1.0469,-2 2.7969,-3.125 1.7656,-1.1406 3.9219,-1.1406 1.375,0 2.5156,0.42188 1.1563,0.40625 2,1.0469 0.8594,0.64063 1.3125,1.2969 0.4688,0.65625 0.4688,1.1094 l -1.1563,0.40625 v -2.3281 q 0,-0.82813 0.5469,-1.3906 0.5469,-0.56247 1.375,-0.5625 z m -6.4688,14.234 q 1.4219,0 2.4688,-0.70313 1.0625,-0.70312 1.6562,-1.9219 0.5938,-1.2188 0.5938,-2.7188 0,-1.5312 -0.5938,-2.75 -0.5937,-1.2188 -1.6562,-1.9219 -1.0469,-0.70312 -2.4688,-0.70312 -1.375,0 -2.4375,0.70312 -1.0468,0.70313 -1.6406,1.9219 -0.5937,1.2188 -0.5937,2.75 0,1.5 0.5937,2.7188 0.5938,1.2188 1.6406,1.9219 1.0625,0.70313 2.4375,0.70313 z m 21.409,-14.234 q 2.25,0 4.0157,1.1406 1.7812,1.125 2.8125,3.1094 1.0468,1.9844 1.0468,4.6094 0,2.625 -1.0468,4.625 -1.0313,2 -2.7813,3.1406 -1.7344,1.125 -3.9062,1.125 -1.2813,0 -2.4063,-0.40625 -1.125,-0.42187 -1.9687,-1.0625 -0.8438,-0.64062 -1.3125,-1.2969 -0.4688,-0.65625 -0.4688,-1.0938 l 1,-0.42188 v 2.3438 q 0,0.82813 -0.5469,1.3906 -0.5468,0.54687 -1.375,0.54687 -0.8282,0 -1.3751,-0.53125 -0.5469,-0.54687 -0.5469,-1.4062 v -20.109 q 0,-0.82813 0.5469,-1.3906 0.5469,-0.56247 1.3751,-0.5625 0.8282,-3e-5 1.375,0.5625 0.5469,0.5625 0.5469,1.3906 v 8.1406 l -0.5469,-0.29687 q 0,-0.40625 0.4375,-1 0.4532,-0.59375 1.2188,-1.1875 0.7812,-0.59375 1.7812,-0.96875 1.0157,-0.39063 2.125,-0.39063 z m -0.4687,3.5156 q -1.4063,0 -2.4688,0.70312 -1.0625,0.70313 -1.6562,1.9062 -0.5781,1.2031 -0.5781,2.7344 0,1.5 0.5781,2.7344 0.5937,1.2344 1.6562,1.9375 1.0625,0.70313 2.4688,0.70313 1.4062,0 2.4375,-0.70313 1.0469,-0.70312 1.6406,-1.9375 0.5938,-1.2344 0.5938,-2.7344 0,-1.5312 -0.5938,-2.7344 -0.5937,-1.2031 -1.6406,-1.9062 -1.0313,-0.70312 -2.4375,-0.70312 z m 20.565,-3.5156 q 2.25,0 4.0156,1.1406 1.7812,1.125 2.8125,3.1094 1.0469,1.9844 1.0469,4.6094 0,2.625 -1.0469,4.625 -1.0313,2 -2.7813,3.1406 -1.7343,1.125 -3.9062,1.125 -1.2813,0 -2.4063,-0.40625 -1.125,-0.42187 -1.9687,-1.0625 -0.8438,-0.64062 -1.3125,-1.2969 -0.4688,-0.65625 -0.4688,-1.0938 l 1,-0.42188 v 2.3438 q 0,0.82813 -0.5468,1.3906 -0.5469,0.54687 -1.375,0.54687 -0.8282,0 -1.375,-0.53125 -0.5469,-0.54687 -0.5469,-1.4062 v -20.109 q 0,-0.82813 0.5469,-1.3906 0.5468,-0.5625 1.375,-0.5625 0.8281,0 1.375,0.5625 0.5468,0.5625 0.5468,1.3906 v 8.1406 l -0.5468,-0.29687 q 0,-0.40625 0.4375,-1 0.4531,-0.59375 1.2187,-1.1875 0.7813,-0.59375 1.7813,-0.96875 1.0156,-0.39063 2.125,-0.39063 z m -0.4688,3.5156 q -1.4062,0 -2.4687,0.70312 -1.0625,0.70313 -1.6563,1.9062 -0.5781,1.2031 -0.5781,2.7344 0,1.5 0.5781,2.7344 0.5938,1.2344 1.6563,1.9375 1.0625,0.70313 2.4687,0.70313 1.4063,0 2.4375,-0.70313 1.0469,-0.70312 1.6406,-1.9375 0.5938,-1.2344 0.5938,-2.7344 0,-1.5312 -0.5938,-2.7344 -0.5937,-1.2031 -1.6406,-1.9062 -1.0312,-0.70312 -2.4375,-0.70312 z m 15.33,11.969 q 0,0.82812 -0.5468,1.3906 -0.5469,0.5625 -1.375,0.5625 -0.8438,0 -1.3907,-0.5625 -0.5312,-0.5625 -0.5312,-1.3906 v -13.219 q 0,-0.82813 0.5312,-1.3906 0.5469,-0.5625 1.3907,-0.5625 0.8281,0 1.375,0.5625 0.5468,0.5625 0.5468,1.3906 z m -1.9687,-17.25 q -1.0781,0 -1.5313,-0.34375 -0.4531,-0.35938 -0.4531,-1.25 v -0.60938 q 0,-0.9375 0.5,-1.2656 0.5,-0.34375 1.5156,-0.34375 1.125,0 1.5625,0.35937 0.4532,0.35938 0.4532,1.25 v 0.60938 q 0,0.92187 -0.4844,1.2656 -0.4688,0.32813 -1.5625,0.32813 z m 6.0832,2.4062 h 7.5938 q 0.7656,0 1.2656,0.51562 0.5156,0.5 0.5156,1.2656 0,0.75 -0.5156,1.25 -0.5,0.48437 -1.2656,0.48437 h -7.5938 q -0.7656,0 -1.2812,-0.5 -0.5,-0.51562 -0.5,-1.2969 0,-0.73438 0.5,-1.2188 0.5156,-0.5 1.2812,-0.5 z m 3.4375,-4 q 0.8282,0 1.3438,0.5625 0.5312,0.54687 0.5312,1.3906 v 14.234 q 0,0.45312 0.1719,0.75 0.1875,0.28125 0.4844,0.40625 0.3125,0.125 0.6562,0.125 0.3907,0 0.7032,-0.14063 0.3281,-0.14062 0.75,-0.14062 0.4375,0 0.7968,0.42187 0.375,0.40625 0.375,1.1406 0,0.89062 -0.9843,1.4688 -0.9688,0.57812 -2.0782,0.57812 -0.6718,0 -1.5,-0.10937 -0.8125,-0.10938 -1.5312,-0.54688 -0.7188,-0.4375 -1.2031,-1.3281 -0.4688,-0.89063 -0.4688,-2.4688 v -14.391 q 0,-0.84375 0.5469,-1.3906 0.5625,-0.5625 1.4062,-0.5625 z m 11.807,-1.6406 q 0.4375,0 0.9375,0.25 0.5,0.23438 0.75,0.625 l 7.7813,11.969 -1.6094,-0.0625 7.9688,-11.906 q 0.6093,-0.875 1.5781,-0.875 0.7656,0 1.375,0.54688 0.6094,0.54687 0.6094,1.4062 v 18.531 q 0,0.82812 -0.5469,1.3906 -0.5469,0.56248 -1.4375,0.5625 -0.9063,0 -1.4688,-0.5625 -0.5468,-0.5625 -0.5468,-1.3906 v -15.078 l 1.25,0.29688 -6.5313,9.9531 q -0.2969,0.34375 -0.7344,0.60938 -0.4218,0.25 -0.875,0.21875 -0.4062,0.0312 -0.8437,-0.21875 -0.4375,-0.26563 -0.7188,-0.60938 l -6.1093,-9.6719 0.8281,-1.6875 v 16.188 q 0,0.82812 -0.5156,1.3906 -0.5,0.5625 -1.3438,0.5625 -0.7969,0 -1.3125,-0.5625 -0.5,-0.5625 -0.5,-1.3906 v -18.531 q 0,-0.79688 0.5781,-1.375 0.5938,-0.57813 1.4375,-0.57813 z m 44.927,23.328 q 0.6719,0 1.2344,0.5625 0.5781,0.5625 0.5781,1.2969 0,0.73438 -0.6563,1.3906 -0.6562,0.65625 -1.6875,1.1719 -1.0156,0.51563 -2.125,0.79688 -1.0937,0.29687 -1.9843,0.29687 -1.9844,0 -3.1719,-0.375 -1.1875,-0.375 -1.9531,-0.84375 -0.7657,-0.45312 -1.4375,-0.82812 -0.6719,-0.35938 -1.6407,-0.35938 -0.5937,0 -0.9687,0.20313 -0.375,0.21875 -0.8125,0.42187 -0.4219,0.20313 -1.1875,0.20313 -0.7969,0 -1.3438,-0.60938 -0.5468,-0.60937 -0.5468,-1.3125 0,-1.25 1.125,-1.6562 l 6.625,-2.4688 2.875,0.70313 -6.2032,2.3125 1.8282,-1.0625 q 1.1093,0 1.9531,0.32812 0.8594,0.34375 1.625,0.75 0.7656,0.42188 1.5781,0.75 0.8125,0.34375 1.875,0.34375 0.8594,0 1.4531,-0.28125 0.5938,-0.28125 1.0469,-0.64062 0.5469,-0.42188 0.9688,-0.76563 0.4375,-0.32812 0.9531,-0.32812 z m -0.125,-12.094 q 0,2.4062 -0.8125,4.4844 -0.7969,2.0781 -2.25,3.6719 -1.4531,1.5781 -3.4531,2.4688 -2,0.89062 -4.375,0.89062 -2.3594,0 -4.3438,-0.89062 -1.9844,-0.89063 -3.4531,-2.4688 -1.4531,-1.5938 -2.25,-3.6719 -0.7969,-2.0781 -0.7969,-4.4844 0,-2.3906 0.7969,-4.4688 0.7969,-2.0938 2.25,-3.6719 1.4687,-1.5781 3.4531,-2.4688 1.9844,-0.90625 4.3438,-0.90625 2.375,0 4.375,0.90625 2,0.89063 3.4531,2.4688 1.4531,1.5781 2.25,3.6719 0.8125,2.0781 0.8125,4.4688 z m -4.1719,0 q 0,-2.1406 -0.8594,-3.875 -0.8593,-1.75 -2.375,-2.7656 -1.5,-1.0312 -3.4843,-1.0312 -1.9844,0 -3.4844,1.0312 -1.5,1.0156 -2.3594,2.75 -0.8437,1.7188 -0.8437,3.8906 0,2.1406 0.8437,3.8906 0.8594,1.75 2.3594,2.7812 1.5,1.0156 3.4844,1.0156 1.9843,0 3.4843,-1.0156 1.5157,-1.0312 2.375,-2.7812 0.8594,-1.75 0.8594,-3.8906 z"
       clip-path="url(#clipPath19611)"
       id="path47989"
       style="fill:#595959" />
    <path
       transform="matrix(0.5,0,0,0.5,-480.56,-105.64)"
       d="m 2072.7,405.46 q -0.7812,0 -1.2969,-0.51563 -0.5,-0.51562 -0.5,-1.2812 0,-0.76562 0.5,-1.25 0.5157,-0.48437 1.2969,-0.48437 h 13.016 q 0.7657,0 1.2813,0.5 0.5156,0.5 0.5156,1.2656 0,0.76563 -0.5156,1.2656 -0.5156,0.49997 -1.2813,0.5 z m 6.4531,6.2344 q -0.8906,0 -1.4843,-0.57812 -0.5938,-0.57813 -0.5938,-1.4688 v -12.484 q 0,-0.89062 0.6094,-1.4688 0.6094,-0.57812 1.5,-0.57812 0.9375,0 1.4844,0.57812 0.5625,0.57813 0.5625,1.4688 v 12.484 q 0,0.89062 -0.5782,1.4688 -0.5625,0.57812 -1.5,0.57812 z"
       clip-path="url(#clipPath19605)"
       id="path47991"
       style="fill:#595959" />
    <path
       transform="matrix(0.5,0,0,0.5,-480.56,-105.64)"
       d="m 1927.9,448.45 q -0.7344,0 -1.2187,-0.48438 -0.4688,-0.5 -0.4688,-1.2188 v -11.562 q 0,-0.73437 0.4688,-1.2188 0.4843,-0.5 1.2187,-0.5 0.7344,0 1.2031,0.5 0.4844,0.48438 0.4844,1.2188 v 2.625 l -0.2031,-1.875 q 0.3125,-0.67187 0.7969,-1.1875 0.4843,-0.51562 1.0937,-0.85937 0.625,-0.35938 1.3281,-0.53125 0.7032,-0.17188 1.4063,-0.17188 0.8281,0 1.4062,0.48438 0.5782,0.46875 0.5782,1.125 0,0.92187 -0.4844,1.3281 -0.4688,0.40625 -1.0313,0.40625 -0.5312,0 -0.9687,-0.1875 -0.4219,-0.20312 -0.9844,-0.20312 -0.5156,0 -1.0312,0.23437 -0.5157,0.23438 -0.9532,0.73438 -0.4218,0.5 -0.6875,1.25 -0.2656,0.73437 -0.2656,1.75 v 6.6406 q 0,0.71875 -0.4844,1.2188 -0.4687,0.48438 -1.2031,0.48438 z m 22.394,-15.266 q 0.7344,0 1.2031,0.48438 0.4844,0.46875 0.4844,1.2344 v 11.844 q 0,0.71875 -0.4844,1.2188 -0.4687,0.48438 -1.2031,0.48438 -0.7188,0 -1.2031,-0.48438 -0.4688,-0.5 -0.4688,-1.2188 v -1.375 l 0.6094,0.25 q 0,0.35938 -0.3906,0.89063 -0.3907,0.51562 -1.0625,1.0156 -0.6719,0.5 -1.5782,0.85938 -0.9062,0.34375 -1.9687,0.34375 -1.9375,0 -3.5156,-0.98438 -1.5625,-1 -2.4688,-2.75 -0.9062,-1.75 -0.9062,-4.0156 0,-2.2969 0.9062,-4.0469 0.9063,-1.75 2.4375,-2.75 1.5469,-1 3.4219,-1 1.2031,0 2.2031,0.375 1.0156,0.35938 1.75,0.92188 0.75,0.5625 1.1563,1.1406 0.4062,0.5625 0.4062,0.95313 l -1,0.35937 v -2.0312 q 0,-0.73437 0.4688,-1.2188 0.4843,-0.5 1.2031,-0.5 z m -5.6563,12.469 q 1.2344,0 2.1563,-0.60937 0.9375,-0.625 1.4531,-1.6875 0.5156,-1.0625 0.5156,-2.375 0,-1.3438 -0.5156,-2.4062 -0.5156,-1.0781 -1.4531,-1.6875 -0.9219,-0.625 -2.1563,-0.625 -1.2031,0 -2.125,0.625 -0.9218,0.60937 -1.4375,1.6875 -0.5156,1.0625 -0.5156,2.4062 0,1.3125 0.5156,2.375 0.5157,1.0625 1.4375,1.6875 0.9219,0.60937 2.125,0.60937 z m 18.74,-12.469 q 1.9531,0 3.5,1 1.5625,1 2.4687,2.7344 0.9219,1.7344 0.9219,4.0312 0,2.2969 -0.9219,4.0469 -0.9062,1.75 -2.4375,2.75 -1.5156,0.98438 -3.4219,0.98438 -1.125,0 -2.1093,-0.35938 -0.9688,-0.375 -1.7188,-0.92187 -0.7344,-0.5625 -1.1406,-1.1406 -0.4063,-0.57812 -0.4063,-0.96875 l 0.875,-0.35937 v 2.0469 q 0,0.71875 -0.4843,1.2188 -0.4688,0.48438 -1.2032,0.48438 -0.7343,0 -1.2187,-0.46875 -0.4688,-0.48438 -0.4688,-1.2344 v -17.594 q 0,-0.71875 0.4688,-1.2031 0.4844,-0.5 1.2187,-0.5 0.7344,0 1.2032,0.5 0.4843,0.48437 0.4843,1.2031 v 7.1094 l -0.4843,-0.25 q 0,-0.35938 0.3906,-0.875 0.3906,-0.51563 1.0625,-1.0312 0.6719,-0.53125 1.5469,-0.85938 0.8906,-0.34375 1.875,-0.34375 z m -0.4219,3.0781 q -1.2344,0 -2.1563,0.625 -0.9218,0.60937 -1.4375,1.6719 -0.5156,1.0469 -0.5156,2.3906 0,1.3125 0.5156,2.3906 0.5157,1.0781 1.4375,1.7031 0.9219,0.60937 2.1563,0.60937 1.2344,0 2.1406,-0.60937 0.9063,-0.625 1.4219,-1.7031 0.5312,-1.0781 0.5312,-2.3906 0,-1.3438 -0.5312,-2.3906 -0.5156,-1.0625 -1.4219,-1.6719 -0.9062,-0.625 -2.1406,-0.625 z m 18.006,-3.0781 q 1.9531,0 3.5,1 1.5625,1 2.4687,2.7344 0.9219,1.7344 0.9219,4.0312 0,2.2969 -0.9219,4.0469 -0.9062,1.75 -2.4375,2.75 -1.5156,0.98438 -3.4218,0.98438 -1.125,0 -2.1094,-0.35938 -0.9688,-0.375 -1.7188,-0.92187 -0.7343,-0.5625 -1.1406,-1.1406 -0.4062,-0.57812 -0.4062,-0.96875 l 0.875,-0.35937 v 2.0469 q 0,0.71875 -0.4844,1.2188 -0.4688,0.48438 -1.2031,0.48438 -0.7344,0 -1.2188,-0.46875 -0.4687,-0.48438 -0.4687,-1.2344 v -17.594 q 0,-0.71875 0.4687,-1.2031 0.4844,-0.5 1.2188,-0.5 0.7343,0 1.2031,0.5 0.4844,0.48437 0.4844,1.2031 v 7.1094 l -0.4844,-0.25 q 0,-0.35938 0.3906,-0.875 0.3906,-0.51563 1.0625,-1.0312 0.6719,-0.53125 1.5469,-0.85938 0.8906,-0.34375 1.875,-0.34375 z m -0.4219,3.0781 q -1.2344,0 -2.1562,0.625 -0.9219,0.60937 -1.4375,1.6719 -0.5157,1.0469 -0.5157,2.3906 0,1.3125 0.5157,2.3906 0.5156,1.0781 1.4375,1.7031 0.9218,0.60937 2.1562,0.60937 1.2344,0 2.1406,-0.60937 0.9063,-0.625 1.4219,-1.7031 0.5313,-1.0781 0.5313,-2.3906 0,-1.3438 -0.5313,-2.3906 -0.5156,-1.0625 -1.4219,-1.6719 -0.9062,-0.625 -2.1406,-0.625 z m 13.412,10.484 q 0,0.71875 -0.4843,1.2188 -0.4688,0.48438 -1.2032,0.48438 -0.7187,0 -1.2031,-0.48438 -0.4687,-0.5 -0.4687,-1.2188 v -11.562 q 0,-0.73437 0.4687,-1.2188 0.4844,-0.5 1.2031,-0.5 0.7344,0 1.2032,0.5 0.4843,0.48438 0.4843,1.2188 z m -1.7031,-15.094 q -0.9531,0 -1.3437,-0.3125 -0.3907,-0.3125 -0.3907,-1.0938 v -0.53125 q 0,-0.8125 0.4219,-1.0938 0.4375,-0.29687 1.3281,-0.29687 0.9844,0 1.375,0.3125 0.3907,0.29687 0.3907,1.0781 v 0.53125 q 0,0.8125 -0.4219,1.1094 -0.4063,0.29687 -1.3594,0.29687 z m 5.3112,2.0938 h 6.6406 q 0.6719,0 1.1094,0.45313 0.4531,0.45312 0.4531,1.125 0,0.64062 -0.4531,1.0781 -0.4375,0.42188 -1.1094,0.42188 h -6.6406 q -0.6719,0 -1.125,-0.4375 -0.4375,-0.45313 -0.4375,-1.125 0,-0.64063 0.4375,-1.0781 0.4531,-0.4375 1.125,-0.4375 z m 3,-3.5 q 0.7343,0 1.1875,0.5 0.4687,0.48438 0.4687,1.2188 v 12.453 q 0,0.39062 0.1406,0.64062 0.1563,0.25 0.4219,0.375 0.2656,0.10938 0.5781,0.10938 0.3438,0 0.625,-0.125 0.2813,-0.125 0.6407,-0.125 0.3906,0 0.7031,0.35937 0.3281,0.35938 0.3281,1 0,0.78125 -0.8594,1.2969 -0.8437,0.5 -1.8281,0.5 -0.5937,0 -1.3125,-0.0937 -0.7031,-0.10938 -1.3437,-0.48438 -0.625,-0.375 -1.0469,-1.1562 -0.4063,-0.78125 -0.4063,-2.1562 v -12.594 q 0,-0.73437 0.4844,-1.2188 0.4844,-0.5 1.2188,-0.5 z m 16.155,2.9375 q 2.2344,0 3.2969,1.0781 1.0781,1.0781 1.4062,2.7969 l -0.4687,-0.25 0.2187,-0.45312 q 0.3282,-0.64063 1.0313,-1.375 0.7031,-0.75 1.6875,-1.2656 1,-0.53125 2.2344,-0.53125 2.0156,0 3.0625,0.875 1.0625,0.85938 1.4531,2.3125 0.3906,1.4375 0.3906,3.2031 v 7.1719 q 0,0.71875 -0.4844,1.2188 -0.4687,0.48438 -1.2031,0.48438 -0.7187,0 -1.2031,-0.48438 -0.4688,-0.5 -0.4688,-1.2188 v -7.1719 q 0,-0.92188 -0.2343,-1.6562 -0.2188,-0.75 -0.8125,-1.2031 -0.5782,-0.45312 -1.6719,-0.45312 -1.0625,0 -1.8281,0.45312 -0.75,0.45313 -1.125,1.2031 -0.375,0.73437 -0.375,1.6562 v 7.1719 q 0,0.71875 -0.4844,1.2188 -0.4688,0.48438 -1.2031,0.48438 -0.7188,0 -1.2032,-0.48438 -0.4687,-0.5 -0.4687,-1.2188 v -7.1719 q 0,-0.92188 -0.2344,-1.6562 -0.2187,-0.75 -0.8125,-1.2031 -0.5781,-0.45312 -1.6719,-0.45312 -1.0625,0 -1.8281,0.45312 -0.75,0.45313 -1.125,1.2031 -0.375,0.73437 -0.375,1.6562 v 7.1719 q 0,0.71875 -0.4844,1.2188 -0.4687,0.48438 -1.2031,0.48438 -0.7344,0 -1.2187,-0.48438 -0.4688,-0.5 -0.4688,-1.2188 v -11.562 q 0,-0.73437 0.4688,-1.2188 0.4843,-0.5 1.2187,-0.5 0.7344,0 1.2031,0.5 0.4844,0.48438 0.4844,1.2188 v 1.2031 l -0.4219,-0.0937 q 0.25,-0.46875 0.6875,-1.0156 0.4532,-0.54687 1.0938,-1.0156 0.6562,-0.48438 1.4375,-0.78125 0.7812,-0.29688 1.7031,-0.29688 z m 30.207,0.28125 q 0.7344,0 1.2031,0.48438 0.4844,0.46875 0.4844,1.2344 v 17.156 q 0,0.73438 -0.4844,1.2188 -0.4687,0.48438 -1.2031,0.48438 -0.7188,0 -1.2031,-0.48438 -0.4688,-0.48437 -0.4688,-1.2188 v -6.9688 l 0.6094,0.25 q 0,0.35938 -0.3906,0.89063 -0.3907,0.51562 -1.0625,1.0156 -0.6719,0.5 -1.5782,0.85938 -0.9062,0.34375 -1.9687,0.34375 -1.9375,0 -3.5156,-0.98438 -1.5625,-1 -2.4688,-2.75 -0.9062,-1.75 -0.9062,-4.0156 0,-2.2969 0.9062,-4.0469 0.9063,-1.75 2.4375,-2.75 1.5469,-1 3.4219,-1 1.2031,0 2.2031,0.375 1.0156,0.35938 1.75,0.92188 0.75,0.5625 1.1563,1.1406 0.4062,0.5625 0.4062,0.95313 l -1,0.35937 v -1.75 q 0,-0.73437 0.4688,-1.2188 0.4843,-0.5 1.2031,-0.5 z m -5.6563,12.188 q 1.2344,0 2.1563,-0.60937 0.9375,-0.625 1.4531,-1.6875 0.5156,-1.0625 0.5156,-2.375 0,-1.3438 -0.5156,-2.4062 -0.5156,-1.0781 -1.4531,-1.6875 -0.9219,-0.625 -2.1563,-0.625 -1.2031,0 -2.125,0.625 -0.9218,0.60937 -1.4375,1.6875 -0.5156,1.0625 -0.5156,2.4062 0,1.3125 0.5156,2.375 0.5157,1.0625 1.4375,1.6875 0.9219,0.60937 2.125,0.60937 z m 11.912,7.2812 q -0.5938,0 -0.9688,-0.39062 -0.375,-0.375 -0.375,-0.9375 0,-0.54688 0.375,-0.9375 0.375,-0.375 0.9688,-0.375 h 14.219 q 0.5938,0 0.9688,0.375 0.375,0.39062 0.375,0.96875 0,0.5625 -0.375,0.92187 -0.375,0.375 -0.9688,0.375 z m 26.54,-19.75 q 1.9531,0 3.5,1 1.5625,1 2.4688,2.7344 0.9218,1.7344 0.9218,4.0312 0,2.2969 -0.9218,4.0469 -0.9063,1.75 -2.4375,2.75 -1.5157,0.98438 -3.4219,0.98438 -1.125,0 -2.1094,-0.35938 -0.9687,-0.375 -1.7187,-0.92187 -0.7344,-0.5625 -1.1407,-1.1406 -0.4062,-0.57812 -0.4062,-0.96875 l 0.875,-0.35937 v 7.3594 q 0,0.73438 -0.4844,1.2188 -0.4687,0.48438 -1.2031,0.48438 -0.7344,0 -1.2188,-0.48438 -0.4687,-0.46875 -0.4687,-1.2188 v -17.156 q 0,-0.73437 0.4687,-1.2188 0.4844,-0.5 1.2188,-0.5 0.7344,0 1.2031,0.5 0.4844,0.48438 0.4844,1.2188 v 1.3594 l -0.4844,-0.25 q 0,-0.35938 0.3906,-0.875 0.3907,-0.51563 1.0625,-1.0312 0.6719,-0.53125 1.5469,-0.85938 0.8906,-0.34375 1.875,-0.34375 z m -0.4219,3.0781 q -1.2343,0 -2.1562,0.625 -0.9219,0.60937 -1.4375,1.6719 -0.5156,1.0469 -0.5156,2.3906 0,1.3125 0.5156,2.3906 0.5156,1.0781 1.4375,1.7031 0.9219,0.60937 2.1562,0.60937 1.2344,0 2.1407,-0.60937 0.9062,-0.625 1.4218,-1.7031 0.5313,-1.0781 0.5313,-2.3906 0,-1.3438 -0.5313,-2.3906 -0.5156,-1.0625 -1.4218,-1.6719 -0.9063,-0.625 -2.1407,-0.625 z m 11.928,12.188 q -0.7343,0 -1.2187,-0.48438 -0.4688,-0.5 -0.4688,-1.2188 v -11.562 q 0,-0.73437 0.4688,-1.2188 0.4844,-0.5 1.2187,-0.5 0.7344,0 1.2032,0.5 0.4843,0.48438 0.4843,1.2188 v 2.625 l -0.2031,-1.875 q 0.3125,-0.67187 0.7969,-1.1875 0.4844,-0.51562 1.0937,-0.85937 0.625,-0.35938 1.3282,-0.53125 0.7031,-0.17188 1.4062,-0.17188 0.8281,0 1.4063,0.48438 0.5781,0.46875 0.5781,1.125 0,0.92187 -0.4844,1.3281 -0.4687,0.40625 -1.0312,0.40625 -0.5313,0 -0.9688,-0.1875 -0.4219,-0.20312 -0.9844,-0.20312 -0.5156,0 -1.0312,0.23437 -0.5156,0.23438 -0.9531,0.73438 -0.4219,0.5 -0.6875,1.25 -0.2657,0.73437 -0.2657,1.75 v 6.6406 q 0,0.71875 -0.4843,1.2188 -0.4688,0.48438 -1.2032,0.48438 z m 24.395,-7.4688 q 0,2.2812 -1.0313,4.0312 -1.0156,1.75 -2.75,2.7344 -1.7187,0.98438 -3.8437,0.98438 -2.125,0 -3.8594,-0.98438 -1.7187,-0.98437 -2.7344,-2.7344 -1.0156,-1.75 -1.0156,-4.0312 0,-2.2969 1.0156,-4.0469 1.0157,-1.75 2.7344,-2.75 1.7344,-1 3.8594,-1 2.125,0 3.8437,1 1.7344,1 2.75,2.75 1.0313,1.75 1.0313,4.0469 z m -3.375,0 q 0,-1.4375 -0.5781,-2.4844 -0.5625,-1.0469 -1.5313,-1.6406 -0.9687,-0.59375 -2.1406,-0.59375 -1.1719,0 -2.1406,0.59375 -0.9688,0.59375 -1.5469,1.6406 -0.5625,1.0469 -0.5625,2.4844 0,1.3906 0.5625,2.4531 0.5781,1.0469 1.5469,1.6406 0.9687,0.57812 2.1406,0.57812 1.1719,0 2.1406,-0.57812 0.9688,-0.59375 1.5313,-1.6406 0.5781,-1.0625 0.5781,-2.4531 z m 14.175,-7.7969 q 2.2344,0 3.2969,1.0781 1.0781,1.0781 1.4062,2.7969 l -0.4687,-0.25 0.2187,-0.45312 q 0.3281,-0.64063 1.0313,-1.375 0.7031,-0.75 1.6875,-1.2656 1,-0.53125 2.2343,-0.53125 2.0157,0 3.0625,0.875 1.0625,0.85938 1.4532,2.3125 0.3906,1.4375 0.3906,3.2031 v 7.1719 q 0,0.71875 -0.4844,1.2188 -0.4687,0.48438 -1.2031,0.48438 -0.7188,0 -1.2031,-0.48438 -0.4688,-0.5 -0.4688,-1.2188 v -7.1719 q 0,-0.92188 -0.2344,-1.6562 -0.2187,-0.75 -0.8125,-1.2031 -0.5781,-0.45312 -1.6718,-0.45312 -1.0625,0 -1.8282,0.45312 -0.75,0.45313 -1.125,1.2031 -0.375,0.73437 -0.375,1.6562 v 7.1719 q 0,0.71875 -0.4843,1.2188 -0.4688,0.48438 -1.2032,0.48438 -0.7187,0 -1.2031,-0.48438 -0.4687,-0.5 -0.4687,-1.2188 v -7.1719 q 0,-0.92188 -0.2344,-1.6562 -0.2188,-0.75 -0.8125,-1.2031 -0.5781,-0.45312 -1.6719,-0.45312 -1.0625,0 -1.8281,0.45312 -0.75,0.45313 -1.125,1.2031 -0.375,0.73437 -0.375,1.6562 v 7.1719 q 0,0.71875 -0.4844,1.2188 -0.4687,0.48438 -1.2031,0.48438 -0.7344,0 -1.2188,-0.48438 -0.4687,-0.5 -0.4687,-1.2188 v -11.562 q 0,-0.73437 0.4687,-1.2188 0.4844,-0.5 1.2188,-0.5 0.7344,0 1.2031,0.5 0.4844,0.48438 0.4844,1.2188 v 1.2031 l -0.4219,-0.0937 q 0.25,-0.46875 0.6875,-1.0156 0.4531,-0.54687 1.0938,-1.0156 0.6562,-0.48438 1.4375,-0.78125 0.7812,-0.29688 1.7031,-0.29688 z m 25.004,15.547 q -2.375,0 -4.125,-0.98438 -1.75,-1 -2.6875,-2.7031 -0.9375,-1.7188 -0.9375,-3.875 0,-2.5156 1.0157,-4.2969 1.0156,-1.7812 2.6718,-2.7344 1.6563,-0.95313 3.5,-0.95313 1.4375,0 2.7032,0.59375 1.2812,0.59375 2.25,1.6094 0.9843,1.0156 1.5625,2.3594 0.5781,1.3438 0.5781,2.8594 -0.031,0.67187 -0.5469,1.0938 -0.5,0.42187 -1.1719,0.42187 h -10.688 l -0.8437,-2.7969 h 10.281 l -0.625,0.5625 v -0.76563 q -0.047,-0.8125 -0.5781,-1.4531 -0.5156,-0.64063 -1.2812,-1.0156 -0.7657,-0.39062 -1.6407,-0.39062 -0.8437,0 -1.5781,0.23437 -0.7187,0.21875 -1.25,0.75 -0.5312,0.53125 -0.8437,1.4375 -0.2969,0.89063 -0.2969,2.2656 0,1.5156 0.625,2.5625 0.625,1.0469 1.625,1.5938 1,0.54687 2.1094,0.54687 1.0468,0 1.6562,-0.17187 0.6094,-0.17188 0.9844,-0.40625 0.3906,-0.23438 0.7031,-0.40625 0.5,-0.25 0.9375,-0.25 0.625,0 1.0313,0.42187 0.4062,0.42188 0.4062,0.98438 0,0.75 -0.7812,1.3594 -0.7344,0.625 -2.0469,1.0938 -1.3125,0.45313 -2.7188,0.45313 z m 9.6294,-14.984 h 6.6407 q 0.6718,0 1.1093,0.45313 0.4532,0.45312 0.4532,1.125 0,0.64062 -0.4532,1.0781 -0.4375,0.42188 -1.1093,0.42188 h -6.6407 q -0.6718,0 -1.125,-0.4375 -0.4375,-0.45313 -0.4375,-1.125 0,-0.64063 0.4375,-1.0781 0.4532,-0.4375 1.125,-0.4375 z m 3,-3.5 q 0.7344,0 1.1875,0.5 0.4688,0.48438 0.4688,1.2188 v 12.453 q 0,0.39062 0.1406,0.64062 0.1563,0.25 0.4219,0.375 0.2656,0.10938 0.5781,0.10938 0.3438,0 0.625,-0.125 0.2813,-0.125 0.6406,-0.125 0.3907,0 0.7032,0.35937 0.3281,0.35938 0.3281,1 0,0.78125 -0.8594,1.2969 -0.8437,0.5 -1.8281,0.5 -0.5938,0 -1.3125,-0.0937 -0.7031,-0.10938 -1.3438,-0.48438 -0.625,-0.375 -1.0468,-1.1562 -0.4063,-0.78125 -0.4063,-2.1562 v -12.594 q 0,-0.73437 0.4844,-1.2188 0.4844,-0.5 1.2187,-0.5 z m 16.155,2.9375 q 2.0156,0 3.0625,0.875 1.0468,0.85938 1.4375,2.3125 0.4062,1.4375 0.4062,3.2031 v 7.1719 q 0,0.71875 -0.4844,1.2188 -0.4687,0.48438 -1.2031,0.48438 -0.7187,0 -1.2031,-0.48438 -0.4688,-0.5 -0.4688,-1.2188 v -7.1719 q 0,-0.92188 -0.2343,-1.6562 -0.2188,-0.75 -0.8125,-1.2031 -0.5782,-0.45312 -1.6719,-0.45312 -1.0625,0 -1.8281,0.45312 -0.75,0.45313 -1.125,1.2031 -0.375,0.73437 -0.375,1.6562 v 7.1719 q 0,0.71875 -0.4844,1.2188 -0.4688,0.48438 -1.2031,0.48438 -0.7344,0 -1.2188,-0.48438 -0.4687,-0.5 -0.4687,-1.2188 v -17.312 q 0,-0.71875 0.4687,-1.2031 0.4844,-0.5 1.2188,-0.5 0.7343,0 1.2031,0.5 0.4844,0.48437 0.4844,1.2031 v 6.9531 l -0.4219,-0.0937 q 0.25,-0.46875 0.6875,-1.0156 0.4531,-0.54687 1.0937,-1.0156 0.6563,-0.48438 1.4375,-0.78125 0.7813,-0.29688 1.7032,-0.29688 z m 15.596,15.547 q -2.375,0 -4.125,-0.98438 -1.75,-1 -2.6875,-2.7031 -0.9375,-1.7188 -0.9375,-3.875 0,-2.5156 1.0156,-4.2969 1.0156,-1.7813 2.6719,-2.7344 1.6562,-0.95313 3.5,-0.95313 1.4375,0 2.7031,0.59375 1.2812,0.59375 2.25,1.6094 0.9844,1.0156 1.5625,2.3594 0.5781,1.3438 0.5781,2.8594 -0.031,0.67187 -0.5469,1.0938 -0.5,0.42187 -1.1718,0.42187 h -10.688 l -0.8438,-2.7969 h 10.281 l -0.625,0.5625 v -0.76563 q -0.047,-0.8125 -0.5782,-1.4531 -0.5156,-0.64063 -1.2812,-1.0156 -0.7656,-0.39062 -1.6406,-0.39062 -0.8438,0 -1.5782,0.23437 -0.7187,0.21875 -1.25,0.75 -0.5312,0.53125 -0.8437,1.4375 -0.2969,0.89063 -0.2969,2.2656 0,1.5156 0.625,2.5625 0.625,1.0469 1.625,1.5938 1,0.54687 2.1094,0.54687 1.0469,0 1.6562,-0.17187 0.6094,-0.17188 0.9844,-0.40625 0.3906,-0.23438 0.7031,-0.40625 0.5,-0.25 0.9375,-0.25 0.625,0 1.0313,0.42187 0.4062,0.42188 0.4062,0.98438 0,0.75 -0.7812,1.3594 -0.7344,0.625 -2.0469,1.0938 -1.3125,0.45313 -2.7187,0.45313 z m 20.582,-15.266 q 0.7187,0 1.1875,0.5 0.4844,0.48438 0.4844,1.2188 v 7.1094 q 0,2.9688 -1.6563,4.7031 -1.6406,1.7344 -4.75,1.7344 -3.1094,0 -4.75,-1.7344 -1.6406,-1.7344 -1.6406,-4.7031 v -7.1094 q 0,-0.73437 0.4687,-1.2188 0.4844,-0.5 1.2188,-0.5 0.7344,0 1.2031,0.5 0.4844,0.48438 0.4844,1.2188 v 7.1094 q 0,1.7031 0.75,2.5312 0.75,0.82812 2.2656,0.82812 1.5469,0 2.2969,-0.82812 0.75,-0.82813 0.75,-2.5312 v -7.1094 q 0,-0.73437 0.4687,-1.2188 0.4844,-0.5 1.2188,-0.5 z m 4.4517,12.656 q -0.2813,-0.39062 -0.25,-1 0.031,-0.625 0.7187,-1.0625 0.4531,-0.28125 0.9531,-0.23437 0.5157,0.0312 0.9844,0.51562 0.8125,0.8125 1.7031,1.2656 0.9063,0.4375 2.25,0.4375 0.4219,-0.0312 0.9219,-0.125 0.5,-0.0937 0.875,-0.4375 0.375,-0.35938 0.375,-1.0938 0,-0.60938 -0.4219,-0.96875 -0.4062,-0.375 -1.0937,-0.625 -0.6875,-0.25 -1.5313,-0.46875 -0.8593,-0.26563 -1.7812,-0.5625 -0.9063,-0.3125 -1.6719,-0.79688 -0.75,-0.5 -1.2344,-1.3125 -0.4687,-0.8125 -0.4687,-2.0469 0,-1.3906 0.7812,-2.375 0.7969,-0.98438 2.0313,-1.5156 1.25,-0.53125 2.625,-0.53125 0.875,0 1.8125,0.21875 0.9531,0.20313 1.8281,0.67188 0.875,0.45312 1.4531,1.2188 0.3125,0.42187 0.3594,1.0156 0.062,0.57813 -0.5312,1.0469 -0.4063,0.34375 -0.9688,0.29687 -0.5625,-0.0469 -0.9219,-0.375 -0.4843,-0.60937 -1.2812,-0.96875 -0.7969,-0.375 -1.8281,-0.375 -0.4219,0 -0.9219,0.10938 -0.4844,0.0937 -0.8438,0.42187 -0.3593,0.3125 -0.3593,1.0156 0,0.64062 0.4062,1.0156 0.4219,0.375 1.1406,0.625 0.7188,0.23438 1.5313,0.45313 0.8281,0.21875 1.6875,0.53125 0.875,0.3125 1.6094,0.8125 0.7343,0.5 1.1718,1.2969 0.4532,0.79688 0.4532,2.0312 0,1.4375 -0.8438,2.4531 -0.8281,1 -2.0937,1.5156 -1.2657,0.51563 -2.5782,0.51563 -1.6562,0 -3.3125,-0.57813 -1.6406,-0.57812 -2.7343,-2.0312 z"
       clip-path="url(#clipPath19599)"
       id="path47993"
       style="fill:#595959" />
    <path
       transform="matrix(0.5,0,0,0.5,-480.56,-105.64)"
       d="m 1423.5,938.63 27.89,-111.56 h 492.02 l -27.89,111.56 z"
       clip-path="url(#clipPath19593)"
       fill="#ffffff"
       id="path47997"
       style="fill-rule:evenodd" />
    <path
       transform="matrix(0.5,0,0,0.5,-480.56,-105.64)"
       d="m 1423.5,938.63 27.89,-111.56 h 492.02 l -27.89,111.56 z"
       clip-path="url(#clipPath19587)"
       stroke="#2e79f3"
       stroke-linecap="butt"
       stroke-linejoin="round"
       stroke-width="4"
       id="path47999"
       style="fill-rule:evenodd" />
    <path
       transform="matrix(0.5,0,0,0.5,-480.56,-105.64)"
       d="m 1547.8,827.08 h 271.15 V 938.64 H 1547.8 Z"
       clip-path="url(#clipPath19581)"
       fill="#000000"
       fill-opacity="0"
       id="path48001"
       style="fill-rule:evenodd" />
    <path
       transform="matrix(.5 0 0 .5 -480.56 -105.64)"
       d="m1602.2 872.17q1.6719 0 3.125 0.96875 1.4531 0.95312 2.3437 2.5938 0.9063 1.625 0.9063 3.6406 0 1.9844-0.9063 3.625-0.8906 1.625-2.3437 2.6094-1.4531 0.96875-3.125 0.96875h-5.875l0.3125-0.57813v6.625q0 0.82813-0.5156 1.3906-0.5 0.5625-1.3438 0.5625-0.7969 0-1.3125-0.5625-0.5-0.5625-0.5-1.3906v-18.5q0-0.82812 0.5469-1.3906 0.5625-0.5625 1.4062-0.5625zm0 10.766q0.6094 0 1.1875-0.51562 0.5781-0.51563 0.9531-1.3281 0.3906-0.8125 0.3906-1.7188 0-0.92187-0.3906-1.7188-0.375-0.8125-0.9531-1.2969-0.5781-0.5-1.1875-0.5h-5.9375l0.375-0.57813v8.1562l-0.3438-0.5zm11.655 11.641q-0.8281 0-1.375-0.5625t-0.5469-1.3906v-13.219q0-0.82812 0.5469-1.3906t1.375-0.5625 1.375 0.5625 0.5469 1.3906v3.0156l-0.2188-2.1406q0.3438-0.78125 0.9063-1.3594 0.5625-0.59375 1.2656-1t1.5-0.59375 1.5937-0.1875q0.9688 0 1.625 0.54687 0.6563 0.53125 0.6563 1.2812 0 1.0469-0.5469 1.5156t-1.1875 0.46875q-0.6094 0-1.1094-0.21875-0.4843-0.23438-1.125-0.23438-0.5781 0-1.1718 0.28125-0.5938 0.26563-1.0938 0.84375-0.4844 0.5625-0.7969 1.4219-0.2968 0.84375-0.2968 2v7.5781q0 0.82813-0.5469 1.3906t-1.375 0.5625zm27.872-8.5469q0 2.625-1.1719 4.625-1.1562 2-3.125 3.125-1.9687 1.1094-4.4062 1.1094t-4.4063-1.1094q-1.9687-1.125-3.1406-3.125-1.1563-2-1.1563-4.625t1.1563-4.625q1.1719-2 3.1406-3.125 1.9688-1.1406 4.4063-1.1406t4.4062 1.1406q1.9688 1.125 3.125 3.125 1.1719 2 1.1719 4.625zm-3.8438 0q0-1.625-0.6562-2.8281-0.6563-1.2031-1.7656-1.875-1.0938-0.67188-2.4375-0.67188-1.3438 0-2.4532 0.67188-1.0937 0.67187-1.75 1.875-0.6562 1.2031-0.6562 2.8281 0 1.6094 0.6562 2.8125 0.6563 1.1875 1.75 1.8594 1.1094 0.67187 2.4532 0.67187 1.3437 0 2.4375-0.67187 1.1093-0.67188 1.7656-1.8594 0.6562-1.2031 0.6562-2.8125zm16.202-8.8906q2.5469 0 3.7656 1.2344 1.2188 1.2344 1.6094 3.1719l-0.5469-0.28125 0.25-0.51563q0.3907-0.73437 1.1875-1.5781 0.7969-0.84375 1.9375-1.4375 1.1407-0.59375 2.5469-0.59375 2.2969 0 3.5 1 1.2031 0.98437 1.6406 2.6406 0.4532 1.6406 0.4532 3.6562v8.1875q0 0.82813-0.5469 1.3906-0.5313 0.5625-1.375 0.5625-0.8281 0-1.375-0.5625t-0.5469-1.3906v-8.1875q0-1.0625-0.25-1.9062t-0.9219-1.3594q-0.6718-0.51563-1.9218-0.51563-1.2188 0-2.0938 0.51563-0.8594 0.51562-1.2969 1.3594-0.4218 0.84375-0.4218 1.9062v8.1875q0 0.82813-0.5469 1.3906t-1.375 0.5625-1.375-0.5625-0.5469-1.3906v-8.1875q0-1.0625-0.2656-1.9062-0.25-0.84375-0.9219-1.3594-0.6719-0.51563-1.9062-0.51563-1.2188 0-2.0938 0.51563-0.8594 0.51562-1.2969 1.3594-0.4218 0.84375-0.4218 1.9062v8.1875q0 0.82813-0.5469 1.3906t-1.375 0.5625-1.375-0.5625-0.5469-1.3906v-13.219q0-0.82812 0.5469-1.3906t1.375-0.5625 1.375 0.5625 0.5469 1.3906v1.375l-0.4844-0.0937q0.2969-0.54687 0.7969-1.1719 0.5156-0.625 1.25-1.1562 0.7343-0.54688 1.625-0.875 0.9062-0.34375 1.9687-0.34375zm28.567 17.75q-2.7188 0-4.7188-1.125-2-1.1406-3.0781-3.0938-1.0625-1.9531-1.0625-4.4062 0-2.8906 1.1562-4.9219 1.1719-2.0312 3.0625-3.1094 1.8907-1.0938 4-1.0938 1.6407 0 3.0938 0.67187 1.4531 0.67188 2.5625 1.8438 1.125 1.1562 1.7812 2.7031 0.6563 1.5312 0.6563 3.2656-0.031 0.76563-0.6094 1.25-0.5625 0.46875-1.3437 0.46875h-12.219l-0.9531-3.2031h11.734l-0.7032 0.64062v-0.85937q-0.062-0.92188-0.6562-1.6562-0.5938-0.75-1.4688-1.1719-0.875-0.4375-1.875-0.4375-0.9531 0-1.7968 0.26563-0.8282 0.25-1.4375 0.85937-0.6094 0.60938-0.9688 1.6406-0.3437 1.0156-0.3437 2.5781 0 1.7344 0.7187 2.9375 0.7344 1.1875 1.8594 1.8125 1.1406 0.625 2.4219 0.625 1.1875 0 1.8906-0.1875t1.125-0.45312q0.4375-0.28125 0.7969-0.46875 0.5781-0.29688 1.0781-0.29688 0.7031 0 1.1719 0.48438 0.4687 0.48437 0.4687 1.1094 0 0.875-0.9062 1.5781-0.8282 0.70312-2.3282 1.2344-1.5 0.51563-3.1093 0.51563zm11.005-17.109h7.5937q0.7657 0 1.2657 0.51563 0.5156 0.5 0.5156 1.2656 0 0.75-0.5156 1.25-0.5 0.48438-1.2657 0.48438h-7.5937q-0.7656 0-1.2813-0.5-0.5-0.51563-0.5-1.2969 0-0.73437 0.5-1.2188 0.5157-0.5 1.2813-0.5zm3.4375-4q0.8281 0 1.3437 0.5625 0.5313 0.54688 0.5313 1.3906v14.234q0 0.45313 0.1719 0.75 0.1875 0.28125 0.4843 0.40625 0.3125 0.125 0.6563 0.125 0.3906 0 0.7031-0.14062 0.3281-0.14063 0.75-0.14063 0.4375 0 0.7969 0.42188 0.375 0.40625 0.375 1.1406 0 0.89063-0.9844 1.4688-0.9687 0.57813-2.0781 0.57813-0.6719 0-1.5-0.10938-0.8125-0.10937-1.5313-0.54687-0.7187-0.4375-1.2031-1.3281-0.4687-0.89062-0.4687-2.4688v-14.391q0-0.84375 0.5468-1.3906 0.5625-0.5625 1.4063-0.5625zm18.463 3.3594q2.2969 0 3.5 1 1.2031 0.98437 1.6406 2.6406 0.4531 1.6406 0.4531 3.6562v8.1875q0 0.82813-0.5468 1.3906-0.5469 0.5625-1.375 0.5625-0.8282 0-1.375-0.5625-0.5469-0.5625-0.5469-1.3906v-8.1875q0-1.0625-0.2656-1.9062-0.25-0.84375-0.9219-1.3594-0.6719-0.51563-1.9063-0.51563-1.2187 0-2.0937 0.51563-0.8594 0.51562-1.2969 1.3594-0.4219 0.84375-0.4219 1.9062v8.1875q0 0.82813-0.5468 1.3906-0.5469 0.5625-1.375 0.5625-0.8282 0-1.375-0.5625-0.5469-0.5625-0.5469-1.3906v-19.781q0-0.82812 0.5469-1.3906 0.5468-0.5625 1.375-0.5625 0.8281 0 1.375 0.5625 0.5468 0.5625 0.5468 1.3906v7.9375l-0.4843-0.0937q0.2968-0.54687 0.7968-1.1719 0.5157-0.625 1.25-1.1562 0.7344-0.54688 1.625-0.875 0.9063-0.34375 1.9688-0.34375zm17.815 17.75q-2.7188 0-4.7188-1.125-2-1.1406-3.0781-3.0938-1.0625-1.9531-1.0625-4.4062 0-2.8906 1.1562-4.9219 1.1719-2.0312 3.0625-3.1094 1.8907-1.0938 4-1.0938 1.6407 0 3.0938 0.67187 1.4531 0.67188 2.5625 1.8438 1.125 1.1562 1.7812 2.7031 0.6563 1.5312 0.6563 3.2656-0.031 0.76563-0.6094 1.25-0.5625 0.46875-1.3437 0.46875h-12.219l-0.9531-3.2031h11.734l-0.7032 0.64062v-0.85937q-0.062-0.92188-0.6562-1.6562-0.5938-0.75-1.4688-1.1719-0.875-0.4375-1.875-0.4375-0.9531 0-1.7968 0.26563-0.8282 0.25-1.4375 0.85937-0.6094 0.60938-0.9688 1.6406-0.3437 1.0156-0.3437 2.5781 0 1.7344 0.7187 2.9375 0.7344 1.1875 1.8594 1.8125 1.1406 0.625 2.4219 0.625 1.1875 0 1.8906-0.1875t1.125-0.45312q0.4375-0.28125 0.7969-0.46875 0.5781-0.29688 1.0781-0.29688 0.7031 0 1.1719 0.48438 0.4687 0.48437 0.4687 1.1094 0 0.875-0.9062 1.5781-0.8282 0.70312-2.3282 1.2344-1.5 0.51563-3.1093 0.51563zm23.521-17.438q0.8281 0 1.375 0.5625t0.5469 1.3906v8.125q0 3.4062-1.8907 5.3906-1.8906 1.9688-5.4375 1.9688-3.5468 0-5.4218-1.9688-1.875-1.9844-1.875-5.3906v-8.125q0-0.82812 0.5468-1.3906 0.5469-0.5625 1.375-0.5625 0.8282 0 1.375 0.5625 0.5469 0.5625 0.5469 1.3906v8.125q0 1.9531 0.8594 2.9062 0.8594 0.9375 2.5937 0.9375 1.7657 0 2.625-0.9375 0.8594-0.95312 0.8594-2.9062v-8.125q0-0.82812 0.5469-1.3906t1.375-0.5625zm5.0966 14.469q-0.3282-0.45313-0.2969-1.1562 0.031-0.70313 0.8281-1.2188 0.5156-0.3125 1.0938-0.26563 0.5781 0.0469 1.125 0.59375 0.9218 0.92188 1.9375 1.4375 1.0312 0.51563 2.5781 0.51563 0.4687-0.0312 1.0469-0.14063 0.5781-0.125 1-0.51562 0.4375-0.40625 0.4375-1.2344 0-0.70312-0.4844-1.1094-0.4688-0.42188-1.2656-0.70313-0.7813-0.29687-1.7344-0.5625-0.9844-0.28125-2.0313-0.625-1.0468-0.35937-1.9062-0.92187t-1.4063-1.4844q-0.5468-0.92187-0.5468-2.3438 0-1.5938 0.8906-2.7031 0.9062-1.125 2.3281-1.7344 1.4219-0.60937 3-0.60937 0.9844 0 2.0625 0.25 1.0938 0.23437 2.0781 0.76562 1 0.51563 1.6719 1.375 0.3594 0.48438 0.4219 1.1562 0.062 0.67188-0.6094 1.2188-0.4844 0.39063-1.125 0.34375-0.6406-0.0625-1.0469-0.4375-0.5468-0.70312-1.4687-1.1094-0.9063-0.42188-2.0938-0.42188-0.4687 0-1.0312 0.10938-0.5625 0.10937-0.9844 0.48437-0.4062 0.35938-0.4062 1.1562 0 0.73438 0.4687 1.1719 0.4844 0.4375 1.2969 0.70312 0.8281 0.26563 1.75 0.53125 0.9531 0.25 1.9375 0.60938 1 0.34375 1.8281 0.92187 0.8438 0.57813 1.3438 1.5 0.5156 0.90625 0.5156 2.3125 0 1.625-0.9531 2.7812-0.9532 1.1562-2.4063 1.75-1.4375 0.57813-2.9375 0.57813-1.8906 0-3.7812-0.64063-1.875-0.65625-3.125-2.3281z"
       clip-path="url(#clipPath19575)"
       fill="#595959"
       id="path48005" />
    <path
       transform="matrix(0.5,0,0,0.5,-480.56,-105.64)"
       d="m 1423.5,1123.6 27.89,-111.56 h 492.02 l -27.89,111.56 z"
       clip-path="url(#clipPath19569)"
       fill="#ffffff"
       id="path48007"
       style="fill-rule:evenodd" />
    <path
       transform="matrix(0.5,0,0,0.5,-480.56,-105.64)"
       d="m 1423.5,1123.6 27.89,-111.56 h 492.02 l -27.89,111.56 z"
       clip-path="url(#clipPath19563)"
       stroke="#2e79f3"
       stroke-linecap="butt"
       stroke-linejoin="round"
       stroke-width="4"
       id="path48009"
       style="fill-rule:evenodd" />
    <path
       transform="matrix(0.5,0,0,0.5,-480.56,-105.64)"
       d="m 1547.8,1012 h 271.15 v 111.56 H 1547.8 Z"
       clip-path="url(#clipPath19557)"
       fill="#000000"
       fill-opacity="0"
       id="path48011"
       style="fill-rule:evenodd" />
    <path
       transform="matrix(.5 0 0 .5 -480.56 -105.64)"
       d="m1653.8 1062.1q2.3594 0 3.5937 1 1.2344 0.9844 1.6875 2.6406 0.4688 1.6407 0.4688 3.6563v8.1875q0 0.8281-0.5469 1.3906-0.5312 0.5625-1.3594 0.5625-0.8437 0-1.3906-0.5625-0.5312-0.5625-0.5312-1.3906v-8.1875q0-1.0625-0.2813-1.9063-0.2656-0.8437-0.9687-1.3593-0.7032-0.5157-2.0157-0.5157-1.2812 0-2.1718 0.5157-0.875 0.5156-1.3438 1.3593-0.4531 0.8438-0.4531 1.9063v8.1875q0 0.8281-0.5469 1.3906t-1.375 0.5625-1.375-0.5625-0.5469-1.3906v-13.219q0-0.8281 0.5469-1.3906t1.375-0.5625 1.375 0.5625 0.5469 1.3906v1.375l-0.4844-0.094q0.2969-0.5469 0.8281-1.1719 0.5469-0.625 1.2813-1.1562 0.7344-0.5469 1.6562-0.875 0.9375-0.3438 2.0313-0.3438zm17.025 0q1.3437 0 2.4531 0.4219 1.125 0.4062 1.9375 1.0469 0.8281 0.6406 1.2812 1.2968 0.4688 0.6563 0.4688 1.1094l-0.8281 0.4063v-2.3282q0-0.8281 0.5312-1.3906 0.5469-0.5625 1.3906-0.5625 0.8282 0 1.375 0.5469 0.5469 0.5312 0.5469 1.4062v14.234q0 2.7813-1.2031 4.4531-1.2031 1.6875-3.1563 2.4375-1.9531 0.7657-4.1875 0.7657-0.6406 0-1.6718-0.1719-1.0157-0.1563-1.9532-0.3906-0.9218-0.2188-1.4062-0.4063-0.9531-0.4062-1.3281-1.0312-0.3594-0.625-0.1407-1.3282 0.2813-0.9375 0.9219-1.2812 0.6406-0.3281 1.3438-0.062 0.3281 0.094 1.0625 0.375 0.7343 0.2969 1.6093 0.5312 0.8907 0.2344 1.5625 0.2344 2.3907 0 3.5469-0.9687 1.1563-0.9532 1.1563-2.6407v-2.7812l0.375 0.2812q0 0.4219-0.4375 1.0157-0.4219 0.5937-1.1719 1.1718-0.75 0.5625-1.7813 0.9688-1.0156 0.3906-2.1718 0.3906-2.2657 0-4.0938-1.125-1.8281-1.1406-2.8906-3.1406-1.0469-2-1.0469-4.5938 0-2.625 1.0469-4.625 1.0625-2 2.8437-3.125 1.7969-1.1406 4.0157-1.1406zm0.6093 3.5156q-1.4375 0-2.5312 0.7032-1.0938 0.7031-1.7031 1.9218-0.6094 1.2188-0.6094 2.75 0 1.5 0.6094 2.7188 0.6093 1.2187 1.7031 1.9219 1.0937 0.7031 2.5312 0.7031 1.4688 0 2.5469-0.7031 1.0938-0.7032 1.7031-1.9219 0.6094-1.2188 0.6094-2.7188 0-1.5312-0.6094-2.75-0.6093-1.2187-1.7031-1.9218-1.0781-0.7032-2.5469-0.7032zm16.322 11.969q0 0.8281-0.5469 1.3906-0.5468 0.5625-1.375 0.5625-0.8437 0-1.3906-0.5625-0.5312-0.5625-0.5312-1.3906v-13.219q0-0.8281 0.5312-1.3906 0.5469-0.5625 1.3906-0.5625 0.8282 0 1.375 0.5625 0.5469 0.5625 0.5469 1.3906zm-1.9687-17.25q-1.0782 0-1.5313-0.3438-0.4531-0.3593-0.4531-1.25v-0.6093q0-0.9375 0.5-1.2657 0.5-0.3437 1.5156-0.3437 1.125 0 1.5625 0.3594 0.4531 0.3593 0.4531 1.25v0.6093q0 0.9219-0.4843 1.2657-0.4688 0.3281-1.5625 0.3281zm15.052 1.7656q2.3593 0 3.5937 1 1.2344 0.9844 1.6875 2.6406 0.4688 1.6407 0.4688 3.6563v8.1875q0 0.8281-0.5469 1.3906-0.5313 0.5625-1.3594 0.5625-0.8437 0-1.3906-0.5625-0.5313-0.5625-0.5313-1.3906v-8.1875q0-1.0625-0.2812-1.9063-0.2656-0.8437-0.9688-1.3593-0.7031-0.5157-2.0156-0.5157-1.2812 0-2.1719 0.5157-0.875 0.5156-1.3437 1.3593-0.4531 0.8438-0.4531 1.9063v8.1875q0 0.8281-0.5469 1.3906t-1.375 0.5625-1.375-0.5625-0.5469-1.3906v-13.219q0-0.8281 0.5469-1.3906t1.375-0.5625 1.375 0.5625 0.5469 1.3906v1.375l-0.4844-0.094q0.2969-0.5469 0.8281-1.1719 0.5469-0.625 1.2813-1.1562 0.7343-0.5469 1.6562-0.875 0.9375-0.3438 2.0313-0.3438zm10.275 0.3125q0.9219 0 1.5625 0.8125l10.688 13.266q0.4219 0.5157 0.4219 1.1563 0 0.7969-0.6094 1.375t-1.3437 0.5781q-0.9375 0-1.5782-0.8281l-10.688-13.281q-0.4062-0.5156-0.4062-1.1562 0-0.8281 0.5781-1.375 0.5938-0.5469 1.375-0.5469zm0.031 17.156q-0.6407 0-1.2657-0.4844-0.625-0.5-0.625-1.2031 0-0.6407 0.4844-1.2188l4.8906-5.9844 1.9219 3.2032-3.875 4.8906q-0.6094 0.7969-1.5312 0.7969zm10.656-17.156q0.7656 0 1.2813 0.5313 0.5312 0.5312 0.5312 1.2031 0 0.3125-0.094 0.6406-0.094 0.3125-0.3438 0.6094l-4.8437 5.8906-2.0157-2.7969 3.9375-5.2031q0.6407-0.875 1.5469-0.875z"
       clip-path="url(#clipPath19551)"
       fill="#595959"
       id="path48015" />
    <path
       transform="matrix(.5 0 0 .5 -480.56 -105.64)"
       d="m1547.8 753.53v73.732"
       clip-path="url(#clipPath19545)"
       fill="#000"
       fill-opacity="0"
       fill-rule="evenodd"
       id="path48017" />
    <path
       transform="matrix(0.5,0,0,-0.5,-480.56,672.756)"
       d="m 1547.8,753.53 v 49.732"
       clip-path="url(#clipPath19539)"
       stroke-linejoin="round"
       id="path48019"
       style="fill-rule:evenodd;stroke:#595959;stroke-width:4;stroke-linecap:butt" />
    <path
       transform="matrix(0.5,0,0,0.5,-480.56,-105.64)"
       d="m 1541.2,803.26 6.6069,18.152 6.607,-18.152 z"
       clip-path="url(#clipPath19533)"
       fill="#595959"
       id="path48021"
       style="fill-rule:evenodd;stroke:#595959;stroke-width:4;stroke-linecap:butt" />
    <path
       transform="matrix(0.5,0,0,0.5,-480.56,-105.64)"
       d="m 1547.8,938.63 v 73.732"
       clip-path="url(#clipPath19527)"
       fill="#000000"
       fill-opacity="0"
       id="path48025"
       style="fill-rule:evenodd" />
    <g
       id="g48128"
       transform="translate(50)">
      <path
         transform="matrix(0.5,0,0,0.5,-480.56,-105.64)"
         d="m 1547.8,962.63 v 49.732"
         clip-path="url(#clipPath19521)"
         stroke="#595959"
         stroke-linecap="butt"
         stroke-linejoin="round"
         stroke-width="4"
         id="path48027"
         style="fill-rule:evenodd" />
      <path
         transform="matrix(0.5,0,0,0.5,-480.56,-105.64)"
         d="m 1554.5,962.63 -6.6069,-18.152 -6.607,18.152 z"
         clip-path="url(#clipPath19515)"
         fill="#595959"
         stroke="#595959"
         stroke-linecap="butt"
         stroke-width="4"
         id="path48029"
         style="fill-rule:evenodd" />
    </g>
    <path
       transform="matrix(0.5,0,0,0.5,-480.56,-105.64)"
       d="m 1819,938.63 v 73.732"
       clip-path="url(#clipPath19509)"
       fill="#000000"
       fill-opacity="0"
       id="path48031"
       style="fill-rule:evenodd" />
    <g
       id="g48132"
       transform="translate(-50)">
      <path
         transform="matrix(0.5,0,0,0.5,-480.56,-105.64)"
         d="m 1819,938.63 v 49.732"
         clip-path="url(#clipPath19503)"
         stroke="#595959"
         stroke-linecap="butt"
         stroke-linejoin="round"
         stroke-width="4"
         id="path48033"
         style="fill-rule:evenodd" />
      <path
         transform="matrix(0.5,0,0,0.5,-480.56,-105.64)"
         d="m 1812.4,988.37 6.6069,18.152 6.607,-18.152 z"
         clip-path="url(#clipPath19497)"
         fill="#595959"
         stroke="#595959"
         stroke-linecap="butt"
         stroke-width="4"
         id="path48035"
         style="fill-rule:evenodd" />
    </g>
    <path
       transform="matrix(0.5,0,0,0.5,-480.56,-105.64)"
       d="m 1547.8,1123.6 v 73.732"
       clip-path="url(#clipPath19491)"
       fill="#000000"
       fill-opacity="0"
       id="path48037"
       style="fill-rule:evenodd" />
    <g
       id="g48140"
       transform="translate(50)">
      <path
         transform="matrix(0.5,0,0,0.5,-480.56,-105.64)"
         d="m 1547.8,1147.6 v 49.732"
         clip-path="url(#clipPath19485)"
         stroke="#595959"
         stroke-linecap="butt"
         stroke-linejoin="round"
         stroke-width="4"
         id="path48039"
         style="fill-rule:evenodd" />
      <path
         transform="matrix(0.5,0,0,0.5,-480.56,-105.64)"
         d="m 1554.5,1147.6 -6.6069,-18.152 -6.607,18.152 z"
         clip-path="url(#clipPath19479)"
         fill="#595959"
         stroke="#595959"
         stroke-linecap="butt"
         stroke-width="4"
         id="path48041"
         style="fill-rule:evenodd" />
    </g>
    <path
       transform="matrix(0.5,0,0,0.5,-480.56,-105.64)"
       d="m 1819,1123.6 v 73.732"
       clip-path="url(#clipPath19473)"
       fill="#000000"
       fill-opacity="0"
       id="path48043"
       style="fill-rule:evenodd" />
    <g
       id="g48136"
       transform="translate(-50)">
      <path
         transform="matrix(0.5,0,0,0.5,-480.56,-105.64)"
         d="m 1819,1123.6 v 49.732"
         clip-path="url(#clipPath19467)"
         stroke="#595959"
         stroke-linecap="butt"
         stroke-linejoin="round"
         stroke-width="4"
         id="path48045"
         style="fill-rule:evenodd" />
      <path
         transform="matrix(0.5,0,0,0.5,-480.56,-105.64)"
         d="m 1812.4,1173.3 6.6069,18.152 6.607,-18.152 z"
         clip-path="url(#clipPath19461)"
         fill="#595959"
         stroke="#595959"
         stroke-linecap="butt"
         stroke-width="4"
         id="path48047"
         style="fill-rule:evenodd" />
    </g>
    <path
       transform="matrix(0.5,0,0,0.5,-480.56,-105.64)"
       d="M 1046.4,316.09 V 566.55"
       clip-path="url(#clipPath19455)"
       fill="#000000"
       fill-opacity="0"
       id="path48049"
       style="fill-rule:evenodd" />
    <path
       transform="matrix(0.5,0,0,0.5,-480.56,-105.64)"
       d="M 1046.4,316.09 V 566.55"
       clip-path="url(#clipPath19449)"
       stroke="#232c34"
       stroke-dasharray="8, 6"
       stroke-linecap="butt"
       stroke-linejoin="round"
       stroke-width="2"
       id="path48051"
       style="fill-rule:evenodd" />
    <path
       transform="matrix(0.5,0,0,0.5,-480.56,-105.64)"
       d="M 1046.4,642.14 V 1122.8"
       clip-path="url(#clipPath19443)"
       fill="#000000"
       fill-opacity="0"
       id="path48053"
       style="fill-rule:evenodd" />
    <path
       transform="matrix(0.5,0,0,0.5,-480.56,-105.64)"
       d="M 1046.4,642.14 V 1122.8"
       clip-path="url(#clipPath19437)"
       stroke="#232c34"
       stroke-dasharray="8, 6"
       stroke-linecap="butt"
       stroke-linejoin="round"
       stroke-width="2"
       id="path48055"
       style="fill-rule:evenodd" />
    <path
       transform="matrix(0.5,0,0,0.5,-480.56,-105.64)"
       d="M 981.12,1122.8 V 642.14 h 65.323 v 480.66 z"
       clip-path="url(#clipPath19431)"
       fill-opacity="0"
       fill-rule="evenodd"
       id="path48059"
       style="fill:#000000" />
    <path
       transform="matrix(0.5,0,0,0.5,-480.56,-105.64)"
       d="m 1016.5,973.54 q -1.3906,0 -2.2343,1.125 -0.8438,1.1094 -1.3125,3.3594 -0.4844,2.25 -1.0938,3.5 -0.625,1.2344 -1.5156,1.8438 -0.8906,0.59375 -2.1563,0.59375 -2,0 -3.2968,-1.6719 -1.3125,-1.6719 -1.3125,-4.2812 0,-2.8281 1.4062,-4.5312 1.3906,-1.7188 3.6406,-1.7188 v 1.875 q -1.4843,0 -2.4687,1.25 -0.9844,1.2344 -0.9844,3.125 0,1.8438 0.8281,2.9688 0.8125,1.1094 2.125,1.1094 1.2657,0 1.9688,-0.92187 0.6875,-0.9375 1.2656,-3.3906 0.5781,-2.4688 1.2344,-3.6875 0.6562,-1.2344 1.5781,-1.8281 0.9219,-0.5937 2.2344,-0.59375 2.1406,0 3.4219,1.7344 1.2812,1.7188 1.2812,4.5 0,2.9531 -1.4219,4.7969 -1.4375,1.8281 -3.625,1.8281 v -1.875 q 1.6407,-0.10937 2.5625,-1.375 0.9063,-1.2812 0.9063,-3.375 0,-1.9531 -0.8594,-3.1562 -0.8594,-1.2031 -2.1719,-1.2031 z m -16.937,-8.9844 h 4.3282 v -3.5 h 1.5312 v 3.5 h 11.266 q 1.4063,0 2.0938,-0.5 0.6875,-0.51562 0.6875,-1.7031 0,-0.46875 -0.1563,-1.5156 l 1.5313,-0.0781 q 0.2656,0.73437 0.2656,2 0,1.9219 -1.1094,2.7969 -1.125,0.875 -3.2968,0.875 h -11.281 v 3.1094 h -1.5312 v -3.1094 h -4.3282 z m 21.234,-18.047 q -0.7969,0.28125 -2.3594,0.35937 1.2813,0.98438 1.9844,2.5156 0.6875,1.5156 0.6875,3.2188 0,2.4375 -1.3594,3.9531 -1.3593,1.5 -3.4375,1.5 -2.4687,0 -3.9062,-2.0469 -1.4375,-2.0625 -1.4375,-5.7344 v -3.3906 h -1.9219 q -1.8125,0 -2.8437,1.125 -1.0469,1.1094 -1.0469,3.25 0,1.9531 1,3.2344 1,1.2813 2.4062,1.2812 l -0.016,1.875 q -2.0156,0 -3.4844,-1.875 -1.4843,-1.875 -1.4843,-4.6094 0,-2.8281 1.4218,-4.4531 1.4063,-1.6406 3.9375,-1.6875 h 8 q 2.4532,0 3.6719,-0.51562 h 0.1875 z m -1.3437,5.875 q 0,-1.875 -0.9063,-3.3438 -0.9062,-1.4844 -2.4219,-2.1562 h -3.7187 v 3.3438 q 0.031,2.7969 1.0312,4.375 0.9844,1.5781 2.7188,1.5781 1.4219,0 2.3594,-1.0469 0.9375,-1.0625 0.9375,-2.75 z m -19.891,-15.25 h 4.3282 v -3.5 h 1.5312 v 3.5 h 11.266 q 1.4063,0 2.0938,-0.5 0.6875,-0.51563 0.6875,-1.7031 0,-0.46875 -0.1563,-1.5156 l 1.5313,-0.0781 q 0.2656,0.73438 0.2656,2 0,1.9219 -1.1094,2.7969 -1.125,0.875 -3.2968,0.875 h -11.281 v 3.1094 h -1.5312 v -3.1094 h -4.3282 z m 19.094,-18.25 q 2.4531,1.6875 2.4531,5.3906 0,2.7031 -1.5625,4.1094 -1.5781,1.4062 -4.6562,1.4375 h -11 v -1.8594 h 10.766 q 4.8281,0 4.8281,-3.9062 0,-4.0625 -3.3594,-5.1406 h -12.234 v -1.875 h 16.906 v 1.8125 z m -2.1563,-16.828 q -1.3906,0 -2.2343,1.125 -0.8438,1.1094 -1.3125,3.3594 -0.4844,2.25 -1.0938,3.5 -0.625,1.2344 -1.5156,1.8438 -0.8906,0.59375 -2.1563,0.59375 -2,0 -3.2968,-1.6719 -1.3125,-1.6719 -1.3125,-4.2812 0,-2.8281 1.4062,-4.5312 1.3906,-1.7188 3.6406,-1.7188 v 1.875 q -1.4843,0 -2.4687,1.25 -0.9844,1.2344 -0.9844,3.125 0,1.8438 0.8281,2.9688 0.8125,1.1094 2.125,1.1094 1.2657,0 1.9688,-0.92188 0.6875,-0.9375 1.2656,-3.3906 0.5781,-2.4688 1.2344,-3.6875 0.6562,-1.2344 1.5781,-1.8281 0.9219,-0.5937 2.2344,-0.59375 2.1406,0 3.4219,1.7344 1.2812,1.7188 1.2812,4.5 0,2.9531 -1.4219,4.7969 -1.4375,1.8281 -3.625,1.8281 v -1.875 q 1.6407,-0.10938 2.5625,-1.375 0.9063,-1.2812 0.9063,-3.375 0,-1.9531 -0.8594,-3.1562 -0.8594,-1.2031 -2.1719,-1.2031 z m -11.016,-21.672 q -0.1094,0.59375 -0.1094,1.2656 0,1.75 0.9844,2.9688 0.9688,1.2031 2.8281,1.7188 h 11.609 v 1.8594 h -16.906 v -1.8281 l 2.6875,-0.0312 q -3,-1.4844 -3,-4.7656 0,-0.78125 0.2031,-1.2344 z m 15.625,-9.2031 q 0,2.1562 -1.0625,3.9062 -1.0625,1.7344 -2.9531,2.7031 -1.9063,0.96875 -4.2656,0.96875 h -0.6719 q -2.4375,0 -4.3906,-0.9375 -1.9532,-0.95313 -3.0625,-2.6406 -1.125,-1.6875 -1.125,-3.6562 0,-3.0781 2.1093,-4.875 2.0938,-1.8125 5.7344,-1.8125 h 1.0469 v 12.062 h 0.3594 q 2.875,0 4.7968,-1.6406 1.9063,-1.6562 1.9063,-4.1562 0,-1.5 -0.5469,-2.6406 -0.5469,-1.1562 -1.75,-2.0938 l 0.8906,-1.1719 q 2.9844,2.0625 2.9844,5.9844 z m -15.938,0.34375 q 0,2.1094 1.5469,3.5625 1.5469,1.4375 4.1562,1.75 v -10.141 h -0.2031 q -2.4375,0.0781 -3.9687,1.3906 -1.5313,1.3125 -1.5313,3.4375 z m 7.3438,-23.922 q 3.9531,0 6.2812,1.75 2.3125,1.75 2.3125,4.6875 0,3.4688 -2.4375,5.3125 h 8.625 v 1.8594 h -23.406 v -1.7344 l 2.3906,-0.0937 q -2.7031,-1.8281 -2.7031,-5.2969 0,-3.0312 2.2968,-4.75 2.2969,-1.7344 6.375,-1.7344 z m -0.3282,1.875 q -3.2343,0 -5.1093,1.3281 -1.875,1.3281 -1.875,3.7031 0,1.7188 0.8281,2.9531 0.8281,1.2344 2.4062,1.8906 h 8.1094 q 1.4531,-0.67188 2.2188,-1.9219 0.7656,-1.25 0.7656,-2.9531 0,-2.3594 -1.875,-3.6719 -1.8906,-1.3281 -5.4688,-1.3281 z m -0.094,-4.9844 q -2.4375,0 -4.3906,-0.9375 -1.9532,-0.95312 -3.0313,-2.6719 -1.0937,-1.7344 -1.0937,-3.9219 0,-3.375 2.375,-5.4688 2.3593,-2.0938 6.2656,-2.0938 h 0.3906 q 2.4531,0 4.4219,0.95313 1.9531,0.9375 3.0156,2.6562 1.0625,1.7187 1.0625,3.9219 0,3.3594 -2.3594,5.4688 -2.375,2.0938 -6.2812,2.0938 z m 0.5156,-1.875 q 3.0313,0 4.9844,-1.5625 1.9375,-1.5781 1.9375,-4.125 0,-2.5312 -1.9375,-4.0938 -1.9531,-1.5781 -5.1406,-1.5781 h -0.3594 q -1.9375,0 -3.5469,0.71875 -1.6094,0.71875 -2.4844,2.0156 -0.8906,1.2969 -0.8906,2.9688 0,2.5 1.9688,4.0781 1.9531,1.5781 5.125,1.5781 z m -7.125,-24.891 q -0.1094,0.59375 -0.1094,1.2656 0,1.75 0.9844,2.9688 0.9688,1.2031 2.8281,1.7188 h 11.609 v 1.8594 h -16.906 v -1.8281 l 2.6875,-0.0312 q -3,-1.4844 -3,-4.7656 0,-0.78125 0.2031,-1.2344 z m -5.9218,-6.6406 h 4.3282 v -3.5 h 1.5312 v 3.5 h 11.266 q 1.4063,0 2.0938,-0.5 0.6875,-0.51562 0.6875,-1.7031 0,-0.46875 -0.1563,-1.5156 l 1.5313,-0.0781 q 0.2656,0.73437 0.2656,2 0,1.9219 -1.1094,2.7969 -1.125,0.875 -3.2968,0.875 h -11.281 v 3.1094 h -1.5312 v -3.1094 h -4.3282 z m 21.547,-13.922 q 0,2.1562 -1.0625,3.9062 -1.0625,1.7344 -2.9531,2.7031 -1.9063,0.96875 -4.2656,0.96875 h -0.6719 q -2.4375,0 -4.3906,-0.9375 -1.9532,-0.95312 -3.0625,-2.6406 -1.125,-1.6875 -1.125,-3.6562 0,-3.0781 2.1093,-4.875 2.0938,-1.8125 5.7344,-1.8125 h 1.0469 v 12.062 h 0.3594 q 2.875,0 4.7968,-1.6406 1.9063,-1.6562 1.9063,-4.1562 0,-1.5 -0.5469,-2.6406 -0.5469,-1.1562 -1.75,-2.0938 l 0.8906,-1.1719 q 2.9844,2.0625 2.9844,5.9844 z m -15.938,0.34375 q 0,2.1094 1.5469,3.5625 1.5469,1.4375 4.1562,1.75 v -10.141 h -0.2031 q -2.4375,0.0781 -3.9687,1.3906 -1.5313,1.3125 -1.5313,3.4375 z m 0.3125,-18.141 q -0.1094,0.59375 -0.1094,1.2656 0,1.75 0.9844,2.9688 0.9688,1.2031 2.8281,1.7188 h 11.609 v 1.8594 h -16.906 v -1.8281 l 2.6875,-0.0312 q -3,-1.4844 -3,-4.7656 0,-0.78125 0.2031,-1.2344 z"
       clip-path="url(#clipPath19425)"
       id="path48061"
       style="fill:#000000" />
    <path
       transform="matrix(0.5,0,0,0.5,-480.56,-105.64)"
       d="M 981.12,563.14 V 309.88 h 65.323 v 253.26 z"
       clip-path="url(#clipPath19419)"
       fill-opacity="0"
       fill-rule="evenodd"
       id="path48063"
       style="fill:#000000" />
    <path
       transform="matrix(0.5,0,0,0.5,-480.56,-105.64)"
       d="m 1012.6,464.85 q 3.9531,0 6.2813,1.75 2.3125,1.75 2.3125,4.7031 0,3.5312 -2.625,5.3438 l 2.3125,0.0781 v 1.75 h -24 v -1.8594 h 9.5468 q -2.7656,-1.7812 -2.7656,-5.2812 0,-3 2.2969,-4.7344 2.2812,-1.75 6.3594,-1.75 z m -0.3281,1.875 q -3.3438,0 -5.1563,1.2969 -1.8281,1.2969 -1.8281,3.6562 0,1.7969 0.8906,3.0469 0.875,1.25 2.5782,1.8906 h 7.625 q 3.1875,-1.4062 3.1875,-4.9688 0,-2.3125 -1.8282,-3.6094 -1.8281,-1.3125 -5.4687,-1.3125 z m -6.7031,-13.812 q -0.1094,0.59375 -0.1094,1.2656 0,1.75 0.9844,2.9688 0.9687,1.2031 2.8281,1.7188 h 11.609 v 1.8594 h -16.906 v -1.8281 l 2.6875,-0.0312 q -3,-1.4844 -3,-4.7656 0,-0.78125 0.2031,-1.2344 z m 6.6093,-1.6094 q -2.4375,0 -4.3906,-0.9375 -1.9531,-0.95312 -3.0312,-2.6719 -1.0938,-1.7344 -1.0938,-3.9219 0,-3.375 2.375,-5.4688 2.3594,-2.0938 6.2656,-2.0938 h 0.3907 q 2.4531,0 4.4218,0.95313 1.9532,0.9375 3.0157,2.6562 1.0625,1.7187 1.0625,3.9219 0,3.3594 -2.3594,5.4688 -2.375,2.0938 -6.2813,2.0938 z m 0.5157,-1.875 q 3.0312,0 4.9843,-1.5625 1.9375,-1.5781 1.9375,-4.125 0,-2.5312 -1.9375,-4.0938 -1.9531,-1.5781 -5.1406,-1.5781 h -0.3594 q -1.9375,0 -3.5468,0.71875 -1.6094,0.71875 -2.4844,2.0156 -0.8906,1.2969 -0.8906,2.9688 0,2.5 1.9687,4.0781 1.9531,1.5781 5.125,1.5781 z m -0.3282,-21.094 2.0625,2.1406 h 6.4532 v 1.875 h -24 v -1.875 h 15.359 l -1.9062,-1.7656 -6.3594,-6.4688 v -2.3594 l 7.125,7.1719 9.7813,-7.7969 v 2.2344 z m 8.8282,-17.891 q 0,2.1562 -1.0625,3.9062 -1.0625,1.7344 -2.9532,2.7031 -1.9062,0.96875 -4.2656,0.96875 h -0.6719 q -2.4375,0 -4.3906,-0.9375 -1.9531,-0.95312 -3.0625,-2.6406 -1.125,-1.6875 -1.125,-3.6562 0,-3.0781 2.1094,-4.875 2.0937,-1.8125 5.7344,-1.8125 h 1.0468 v 12.062 h 0.3594 q 2.875,0 4.7969,-1.6406 1.9062,-1.6562 1.9062,-4.1562 0,-1.5 -0.5468,-2.6406 -0.5469,-1.1562 -1.75,-2.0938 l 0.8906,-1.1719 q 2.9844,2.0625 2.9844,5.9844 z m -15.938,0.34375 q 0,2.1094 1.5468,3.5625 1.5469,1.4375 4.1563,1.75 v -10.141 h -0.2031 q -2.4375,0.0781 -3.9688,1.3906 -1.5312,1.3125 -1.5312,3.4375 z m 0.3125,-18.141 q -0.1094,0.59375 -0.1094,1.2656 0,1.75 0.9844,2.9688 0.9687,1.2031 2.8281,1.7188 h 11.609 v 1.8594 h -16.906 v -1.8281 l 2.6875,-0.0312 q -3,-1.4844 -3,-4.7656 0,-0.78125 0.2031,-1.2344 z"
       clip-path="url(#clipPath19413)"
       id="path48065"
       style="fill:#000000" />
    <path
       transform="matrix(0.5,0,0,0.5,-480.56,-105.64)"
       d="m 2078.2,568.23 v 129.7 h -259.21 v 129.7"
       clip-path="url(#clipPath19407)"
       fill-opacity="0"
       fill-rule="evenodd"
       id="path48067"
       style="fill:#000000" />
    <path
       transform="matrix(.5 0 0 .5 -480.56 -105.64)"
       d="m2078.2 568.23v129.7h-259.21v105.7"
       clip-path="url(#clipPath19401)"
       fill-rule="evenodd"
       stroke="#595959"
       stroke-linecap="butt"
       stroke-linejoin="round"
       stroke-width="4"
       id="path48071" />
    <path
       transform="matrix(.5 0 0 .5 -480.56 -105.64)"
       d="m1812.4 803.63 6.6069 18.152 6.607-18.152z"
       clip-path="url(#clipPath19395)"
       fill="#595959"
       fill-rule="evenodd"
       stroke="#595959"
       stroke-linecap="butt"
       stroke-width="4"
       id="path48073" />
  </g>
</svg>
